{"glyphs":{"0":{"ha":853,"x_min":72,"x_max":810,"o":"m 344 -14 q 142 51 211 -14 q 72 249 72 117 q 85 369 72 303 q 135 603 108 494 q 280 892 181 797 q 539 986 379 986 q 740 919 671 986 q 810 721 810 853 q 799 603 810 660 q 749 369 775 478 q 602 80 701 174 q 344 -14 503 -14 m 344 69 q 544 143 465 69 q 663 376 624 217 q 710 596 689 482 q 722 721 722 667 q 678 859 722 815 q 539 903 635 903 q 338 829 417 903 q 221 596 260 756 q 174 376 194 492 q 161 250 161 304 q 204 113 161 156 q 344 69 247 69 z "},"1":{"ha":547,"x_min":94,"x_max":550,"o":"m 290 0 q 269 8 276 0 q 265 31 263 17 l 439 847 l 156 661 q 133 654 142 654 q 113 667 119 654 l 99 692 q 94 706 94 699 q 114 735 94 722 l 458 963 q 475 971 469 969 q 493 972 481 972 l 522 972 q 543 964 536 972 q 547 942 550 956 l 353 31 q 340 8 350 17 q 317 0 331 0 l 290 0 z "},"2":{"ha":778,"x_min":8,"x_max":774,"o":"m 35 0 q 15 8 21 0 q 11 31 8 17 l 15 51 q 63 110 22 79 l 499 469 q 627 589 590 540 q 678 704 664 638 q 683 758 683 731 q 640 865 683 828 q 514 903 597 903 q 354 849 421 903 q 257 703 288 794 q 240 679 251 688 q 218 671 228 671 l 190 671 q 170 678 176 671 q 167 697 164 686 q 231 832 183 765 q 356 942 278 899 q 532 986 433 986 q 715 928 656 986 q 774 778 774 871 q 765 704 774 742 q 698 555 749 622 q 553 414 647 488 l 157 83 l 622 83 q 643 75 636 83 q 647 51 650 67 l 643 31 q 629 8 640 17 q 604 0 618 0 l 35 0 z "},"3":{"ha":800,"x_min":42,"x_max":822,"o":"m 326 -14 q 171 14 235 -14 q 74 88 107 42 q 42 192 42 135 q 44 224 42 201 q 57 243 47 236 q 79 250 67 250 l 99 250 q 131 218 129 250 q 194 103 132 136 q 344 69 256 69 q 533 122 456 69 q 632 275 611 175 q 638 329 638 301 q 443 467 638 467 l 321 467 q 300 475 307 467 q 296 497 293 483 l 300 518 q 321 551 306 536 l 678 889 l 258 889 q 238 897 244 889 q 235 919 232 906 l 239 940 q 252 963 242 954 q 276 972 263 972 l 794 972 q 815 964 808 972 q 819 940 822 956 l 815 919 q 799 893 813 907 l 432 550 l 460 550 q 657 499 586 550 q 728 347 728 447 q 719 275 728 315 q 644 120 700 186 q 505 20 588 54 q 326 -14 422 -14 z "},"4":{"ha":824,"x_min":14,"x_max":758,"o":"m 478 0 q 457 8 464 0 q 453 31 450 17 l 500 250 l 42 250 q 21 258 28 250 q 17 281 14 267 l 22 303 q 25 313 24 306 q 31 327 26 321 q 40 339 35 333 l 597 949 q 653 972 618 972 l 710 972 q 731 964 724 972 q 735 942 738 956 l 606 333 l 732 333 q 752 325 746 333 q 756 303 758 317 l 750 281 q 738 258 749 267 q 714 250 728 250 l 588 250 l 540 31 q 528 8 538 17 q 504 0 518 0 l 478 0 m 151 333 l 518 333 l 628 856 l 151 333 z "},"5":{"ha":793,"x_min":31,"x_max":782,"o":"m 306 -14 q 101 51 172 -14 q 31 213 31 115 q 32 243 31 233 q 43 263 33 256 q 65 269 53 269 l 92 269 q 119 238 122 269 q 167 111 111 153 q 306 69 222 69 q 501 133 417 69 q 610 311 586 197 q 617 376 617 340 q 567 497 617 456 q 424 539 517 539 q 330 525 368 539 q 246 485 292 511 q 207 463 222 469 q 175 456 192 456 l 150 456 q 130 465 138 456 q 126 486 122 474 l 264 940 q 278 964 268 956 q 301 972 288 972 l 754 972 q 775 964 768 972 q 779 942 782 956 l 774 919 q 761 897 771 906 q 738 889 751 889 l 339 889 l 242 575 q 317 608 276 594 q 424 622 357 622 q 628 559 549 622 q 708 382 708 496 q 700 311 708 349 q 563 69 668 153 q 306 -14 457 -14 z "},"6":{"ha":808,"x_min":67,"x_max":758,"o":"m 343 -14 q 138 58 208 -14 q 67 240 67 129 q 75 314 67 276 q 215 560 101 435 l 571 944 q 580 954 572 946 q 598 967 588 963 q 619 972 608 972 l 646 972 q 664 963 658 972 q 667 942 669 954 q 662 930 665 935 q 657 924 658 925 l 385 629 q 482 640 432 640 q 688 569 617 640 q 758 389 758 499 q 750 314 758 351 q 677 153 732 228 q 536 32 622 78 q 343 -14 450 -14 m 361 69 q 491 98 428 69 q 600 182 554 126 q 663 314 646 238 q 669 372 669 349 q 611 508 669 460 q 464 557 553 557 q 334 528 397 557 q 225 445 271 500 q 163 314 179 390 q 156 256 156 279 q 214 118 156 167 q 361 69 272 69 z "},"7":{"ha":676,"x_min":121,"x_max":774,"o":"m 144 0 q 126 9 132 0 q 124 31 121 18 q 129 43 124 35 l 665 889 l 192 889 q 172 897 178 889 q 168 919 165 906 l 172 940 q 185 963 175 954 q 210 972 196 972 l 746 972 q 767 964 760 972 q 771 940 774 956 l 767 919 q 746 868 763 894 l 218 35 q 197 8 206 17 q 174 0 188 0 l 144 0 z "},"8":{"ha":854,"x_min":46,"x_max":808,"o":"m 344 -14 q 128 49 210 -14 q 46 219 46 113 q 51 274 46 247 q 126 424 68 360 q 265 519 183 488 q 201 588 225 546 q 178 683 178 629 q 182 731 178 706 q 251 869 199 811 q 380 957 304 928 q 540 986 456 986 q 733 930 657 986 q 808 775 808 874 q 804 731 808 754 q 749 607 792 658 q 638 519 707 556 q 719 439 690 492 q 749 325 749 386 q 743 274 749 296 q 608 61 714 136 q 344 -14 503 -14 m 449 560 q 581 588 518 561 q 683 662 644 614 q 722 772 722 710 q 674 868 722 833 q 540 903 625 903 q 364 856 440 903 q 269 731 288 810 q 264 686 264 710 q 311 592 264 625 q 449 560 358 560 m 344 69 q 483 96 417 69 q 594 169 549 122 q 651 274 639 215 q 657 318 657 304 q 600 434 657 392 q 449 476 543 476 q 310 451 376 476 q 197 381 243 426 q 139 274 151 335 q 135 232 135 251 q 192 113 135 156 q 344 69 249 69 z "},"9":{"ha":794,"x_min":124,"x_max":800,"o":"m 211 0 q 193 9 199 0 q 190 31 188 18 q 201 49 192 39 l 486 357 q 393 346 442 346 q 192 417 260 346 q 124 594 124 488 q 132 665 124 631 q 203 819 150 746 q 340 940 256 893 q 529 986 424 986 q 731 915 663 986 q 800 736 800 843 q 792 665 800 701 q 741 538 776 593 q 660 432 706 482 l 288 28 q 278 18 286 26 q 260 5 271 10 q 239 0 250 0 l 211 0 m 411 429 q 538 458 476 429 q 644 542 600 488 q 704 665 689 596 q 710 719 710 692 q 654 853 710 803 q 511 903 599 903 q 384 874 446 903 q 278 790 322 844 q 219 665 235 736 q 214 611 214 639 q 269 478 214 528 q 411 429 324 429 z "},"\u0000":{"ha":0,"x_min":0,"x_max":0,"o":""},"\r":{"ha":367,"x_min":0,"x_max":0,"o":""}," ":{"ha":367,"x_min":0,"x_max":0,"o":""},"A":{"ha":907,"x_min":-50,"x_max":797,"o":"m -24 0 q -43 8 -36 0 q -50 26 -50 15 q -46 43 -50 35 l 497 944 q 543 972 514 972 l 601 972 q 636 944 632 972 l 796 43 q 797 31 797 39 q 790 8 797 17 q 771 0 782 0 l 742 0 q 710 29 715 0 l 668 243 l 178 243 l 42 21 q 7 0 29 0 l -24 0 m 228 326 l 654 326 l 557 874 l 228 326 z "},"Á":{"ha":907,"x_min":-50,"x_max":819,"o":"m -24 0 q -43 8 -36 0 q -50 26 -50 15 q -46 43 -50 35 l 497 944 q 543 972 514 972 l 601 972 q 636 944 632 972 l 796 43 q 797 31 797 39 q 790 8 797 17 q 771 0 782 0 l 742 0 q 710 29 715 0 l 668 243 l 178 243 l 42 21 q 7 0 29 0 l -24 0 m 228 326 l 654 326 l 557 874 l 228 326 m 563 1042 q 548 1047 553 1042 q 543 1058 543 1051 q 553 1079 543 1069 l 676 1197 q 702 1217 690 1211 q 733 1222 714 1222 l 797 1222 q 814 1217 808 1222 q 819 1203 819 1211 q 807 1179 819 1188 l 629 1056 q 608 1044 617 1047 q 583 1042 599 1042 l 563 1042 z "},"Ă":{"ha":907,"x_min":-50,"x_max":797,"o":"m -24 0 q -43 8 -36 0 q -50 26 -50 15 q -46 43 -50 35 l 497 944 q 543 972 514 972 l 601 972 q 636 944 632 972 l 796 43 q 797 31 797 39 q 790 8 797 17 q 771 0 782 0 l 742 0 q 710 29 715 0 l 668 243 l 178 243 l 42 21 q 7 0 29 0 l -24 0 m 228 326 l 654 326 l 557 874 l 228 326 m 585 1028 q 481 1063 515 1028 q 446 1153 446 1099 q 450 1189 446 1171 q 461 1208 453 1200 q 482 1215 469 1215 l 503 1215 q 521 1208 515 1215 q 524 1189 526 1200 q 521 1163 521 1172 q 588 1097 521 1097 q 658 1124 632 1097 q 696 1189 685 1150 q 707 1208 699 1200 q 728 1215 715 1215 l 749 1215 q 767 1208 761 1215 q 769 1189 772 1200 q 585 1028 736 1028 z "},"Â":{"ha":907,"x_min":-50,"x_max":797,"o":"m -24 0 q -43 8 -36 0 q -50 26 -50 15 q -46 43 -50 35 l 497 944 q 543 972 514 972 l 601 972 q 636 944 632 972 l 796 43 q 797 31 797 39 q 790 8 797 17 q 771 0 782 0 l 742 0 q 710 29 715 0 l 668 243 l 178 243 l 42 21 q 7 0 29 0 l -24 0 m 228 326 l 654 326 l 557 874 l 228 326 m 401 1042 q 386 1056 386 1042 q 399 1076 386 1067 l 554 1203 q 580 1219 569 1215 q 603 1222 590 1222 l 617 1222 q 639 1219 631 1222 q 657 1203 647 1215 l 758 1078 q 764 1063 764 1071 q 758 1048 764 1054 q 743 1042 751 1042 l 715 1042 q 692 1051 701 1042 l 601 1135 l 475 1051 q 466 1046 474 1050 q 449 1042 458 1042 l 401 1042 z "},"Ä":{"ha":907,"x_min":-50,"x_max":797,"o":"m -24 0 q -43 8 -36 0 q -50 26 -50 15 q -46 43 -50 35 l 497 944 q 543 972 514 972 l 601 972 q 636 944 632 972 l 796 43 q 797 31 797 39 q 790 8 797 17 q 771 0 782 0 l 742 0 q 710 29 715 0 l 668 243 l 178 243 l 42 21 q 7 0 29 0 l -24 0 m 228 326 l 654 326 l 557 874 l 228 326 m 425 1042 q 405 1050 411 1042 q 401 1072 399 1058 l 413 1125 q 426 1148 415 1139 q 450 1157 436 1157 l 503 1157 q 524 1148 517 1157 q 528 1125 531 1139 l 517 1072 q 503 1050 514 1058 q 478 1042 492 1042 l 425 1042 m 679 1042 q 659 1050 665 1042 q 656 1072 653 1058 l 667 1125 q 680 1148 669 1139 q 704 1157 690 1157 l 757 1157 q 778 1148 771 1157 q 782 1125 785 1139 l 771 1072 q 757 1050 768 1058 q 732 1042 746 1042 l 679 1042 z "},"À":{"ha":907,"x_min":-50,"x_max":797,"o":"m -24 0 q -43 8 -36 0 q -50 26 -50 15 q -46 43 -50 35 l 497 944 q 543 972 514 972 l 601 972 q 636 944 632 972 l 796 43 q 797 31 797 39 q 790 8 797 17 q 771 0 782 0 l 742 0 q 710 29 715 0 l 668 243 l 178 243 l 42 21 q 7 0 29 0 l -24 0 m 228 326 l 654 326 l 557 874 l 228 326 m 578 1042 q 554 1044 563 1042 q 538 1056 546 1047 l 417 1175 q 410 1193 410 1182 q 419 1213 410 1204 q 442 1222 428 1222 l 506 1222 q 533 1217 525 1222 q 551 1197 540 1213 l 622 1082 q 625 1068 625 1074 q 617 1049 625 1057 q 599 1042 610 1042 l 578 1042 z "},"Ā":{"ha":907,"x_min":-50,"x_max":797,"o":"m -24 0 q -43 8 -36 0 q -50 26 -50 15 q -46 43 -50 35 l 497 944 q 543 972 514 972 l 601 972 q 636 944 632 972 l 796 43 q 797 31 797 39 q 790 8 797 17 q 771 0 782 0 l 742 0 q 710 29 715 0 l 668 243 l 178 243 l 42 21 q 7 0 29 0 l -24 0 m 228 326 l 654 326 l 557 874 l 228 326 m 442 1042 q 422 1050 428 1042 q 418 1072 415 1058 l 424 1103 q 436 1125 425 1117 q 461 1133 447 1133 l 738 1133 q 758 1125 751 1133 q 761 1103 764 1117 l 756 1072 q 743 1050 754 1058 q 718 1042 732 1042 l 442 1042 z "},"Ą":{"ha":903,"x_min":-32,"x_max":808,"o":"m 663 -306 q 553 -269 592 -306 q 515 -168 515 -233 q 521 -114 515 -140 q 588 15 538 -35 q 710 76 639 65 l 708 88 l 681 243 l 189 243 l 56 21 q 42 7 51 14 q 21 0 33 0 l -7 0 q -25 8 -18 0 q -29 28 -32 17 q -26 33 -28 29 q -22 43 -25 38 l 521 944 q 567 972 538 972 l 614 972 q 649 944 644 972 l 808 43 q 807 28 808 31 q 795 8 806 17 q 774 0 785 0 l 733 0 q 651 -31 686 0 q 604 -114 615 -61 q 600 -144 600 -131 q 624 -205 600 -183 q 686 -226 647 -226 l 707 -226 q 727 -235 721 -226 q 731 -257 733 -243 l 726 -275 q 713 -297 724 -289 q 689 -306 703 -306 l 663 -306 m 240 326 l 665 326 l 569 874 l 240 326 z "},"Å":{"ha":907,"x_min":-50,"x_max":797,"o":"m -24 0 q -43 8 -36 0 q -50 26 -50 15 q -46 43 -50 35 l 497 944 q 543 972 514 972 l 601 972 q 636 944 632 972 l 796 43 q 797 31 797 39 q 790 8 797 17 q 771 0 782 0 l 742 0 q 710 29 715 0 l 668 243 l 178 243 l 42 21 q 7 0 29 0 l -24 0 m 228 326 l 654 326 l 557 874 l 228 326 m 581 1028 q 513 1051 540 1028 q 485 1111 485 1075 q 488 1132 485 1118 q 534 1207 497 1178 q 617 1236 571 1236 q 685 1213 658 1236 q 713 1153 713 1190 q 710 1132 713 1146 q 663 1057 700 1086 q 581 1028 626 1028 m 585 1090 q 626 1106 610 1090 q 642 1144 642 1122 q 611 1174 642 1174 q 572 1158 588 1174 q 556 1121 556 1143 q 563 1099 556 1107 q 585 1090 571 1090 z "},"Ã":{"ha":907,"x_min":-50,"x_max":797,"o":"m -24 0 q -43 8 -36 0 q -50 26 -50 15 q -46 43 -50 35 l 497 944 q 543 972 514 972 l 601 972 q 636 944 632 972 l 796 43 q 797 31 797 39 q 790 8 797 17 q 771 0 782 0 l 742 0 q 710 29 715 0 l 668 243 l 178 243 l 42 21 q 7 0 29 0 l -24 0 m 228 326 l 654 326 l 557 874 l 228 326 m 656 1035 q 616 1042 632 1035 q 576 1063 600 1049 q 553 1076 565 1069 q 531 1082 542 1082 q 504 1076 514 1082 q 485 1058 494 1069 q 472 1047 479 1051 q 457 1042 465 1042 l 429 1042 q 415 1049 419 1042 q 411 1064 410 1056 q 453 1138 417 1104 q 531 1172 489 1172 q 571 1165 554 1172 q 608 1144 588 1158 q 631 1131 619 1138 q 656 1125 643 1125 q 682 1131 674 1125 q 701 1149 690 1136 q 729 1167 714 1167 l 757 1167 q 772 1160 767 1167 q 775 1144 776 1154 q 733 1069 769 1104 q 656 1035 696 1035 z "},"Æ":{"ha":1310,"x_min":-40,"x_max":1339,"o":"m -12 0 q -40 25 -40 0 q -33 50 -40 39 l 506 946 q 547 972 522 972 l 1311 972 q 1332 964 1325 972 q 1336 940 1339 956 l 1332 919 q 1319 897 1329 906 q 1294 889 1308 889 l 810 889 l 733 535 l 1188 535 q 1208 526 1201 535 q 1213 503 1215 518 l 1208 482 q 1195 460 1206 468 q 1171 451 1185 451 l 717 451 l 638 83 l 1133 83 q 1154 75 1147 83 q 1158 51 1161 67 l 1154 31 q 1141 8 1151 17 q 1117 0 1131 0 l 564 0 q 543 8 550 0 q 539 31 536 17 l 585 243 l 186 243 l 50 21 q 15 0 38 0 l -12 0 m 236 326 l 601 326 l 719 879 l 568 879 l 236 326 z "},"Ǽ":{"ha":1310,"x_min":-40,"x_max":1338,"o":"m -12 0 q -40 25 -40 0 q -33 50 -40 39 l 506 946 q 547 972 522 972 l 1311 972 q 1332 964 1325 972 q 1336 940 1339 956 l 1332 919 q 1319 897 1329 906 q 1294 889 1308 889 l 810 889 l 733 535 l 1188 535 q 1208 526 1201 535 q 1213 503 1215 518 l 1208 482 q 1195 460 1206 468 q 1171 451 1185 451 l 717 451 l 638 83 l 1133 83 q 1154 75 1147 83 q 1158 51 1161 67 l 1154 31 q 1141 8 1151 17 q 1117 0 1131 0 l 564 0 q 543 8 550 0 q 539 31 536 17 l 585 243 l 186 243 l 50 21 q 15 0 38 0 l -12 0 m 236 326 l 601 326 l 719 879 l 568 879 l 236 326 m 840 1042 q 826 1047 831 1042 q 821 1058 821 1051 q 831 1079 821 1069 l 954 1197 q 980 1217 968 1211 q 1011 1222 992 1222 l 1075 1222 q 1092 1217 1086 1222 q 1097 1203 1097 1211 q 1085 1179 1097 1188 l 907 1056 q 885 1044 894 1047 q 861 1042 876 1042 l 840 1042 z "},"B":{"ha":913,"x_min":47,"x_max":875,"o":"m 75 0 q 54 8 61 0 q 50 31 47 17 l 243 940 q 256 963 246 954 q 281 972 267 972 l 643 972 q 814 916 753 972 q 875 774 875 860 q 869 724 875 746 q 804 585 850 635 q 703 513 758 535 q 774 438 747 483 q 800 332 800 392 q 794 275 800 301 q 683 78 768 156 q 449 0 599 0 l 75 0 m 529 550 q 696 596 628 550 q 782 724 764 642 q 788 772 788 747 q 622 889 788 889 l 321 889 l 249 550 l 529 550 m 449 83 q 617 138 546 83 q 707 275 689 192 q 713 331 713 301 q 532 467 713 467 l 231 467 l 149 83 l 449 83 z "},"C":{"ha":903,"x_min":74,"x_max":894,"o":"m 381 -14 q 149 62 225 -14 q 74 269 74 138 q 82 363 74 315 q 135 610 99 463 q 285 885 178 783 q 574 986 393 986 q 757 951 685 986 q 862 858 829 915 q 894 733 894 801 q 890 686 894 710 q 864 658 886 658 l 832 658 q 810 665 818 658 q 803 688 801 672 q 804 721 804 699 q 574 903 804 903 q 350 829 442 903 q 221 603 258 756 q 171 369 192 489 q 161 275 161 308 q 381 69 161 69 q 583 118 500 69 q 715 285 665 167 q 750 314 726 314 l 782 314 q 801 306 794 314 q 804 286 808 299 q 667 74 765 163 q 381 -14 568 -14 z "},"Ć":{"ha":903,"x_min":74,"x_max":894,"o":"m 381 -14 q 149 62 225 -14 q 74 269 74 138 q 82 363 74 315 q 135 610 99 463 q 285 885 178 783 q 574 986 393 986 q 757 951 685 986 q 862 858 829 915 q 894 733 894 801 q 890 686 894 710 q 864 658 886 658 l 832 658 q 810 665 818 658 q 803 688 801 672 q 804 721 804 699 q 574 903 804 903 q 350 829 442 903 q 221 603 258 756 q 171 369 192 489 q 161 275 161 308 q 381 69 161 69 q 583 118 500 69 q 715 285 665 167 q 750 314 726 314 l 782 314 q 801 306 794 314 q 804 286 808 299 q 667 74 765 163 q 381 -14 568 -14 m 571 1042 q 556 1047 561 1042 q 551 1058 551 1051 q 561 1079 551 1069 l 685 1197 q 710 1217 699 1211 q 742 1222 722 1222 l 806 1222 q 822 1217 817 1222 q 828 1203 828 1211 q 815 1179 828 1188 l 638 1056 q 616 1044 625 1047 q 592 1042 607 1042 l 571 1042 z "},"Č":{"ha":903,"x_min":74,"x_max":894,"o":"m 381 -14 q 149 62 225 -14 q 74 269 74 138 q 82 363 74 315 q 135 610 99 463 q 285 885 178 783 q 574 986 393 986 q 757 951 685 986 q 862 858 829 915 q 894 733 894 801 q 890 686 894 710 q 864 658 886 658 l 832 658 q 810 665 818 658 q 803 688 801 672 q 804 721 804 699 q 574 903 804 903 q 350 829 442 903 q 221 603 258 756 q 171 369 192 489 q 161 275 161 308 q 381 69 161 69 q 583 118 500 69 q 715 285 665 167 q 750 314 726 314 l 782 314 q 801 306 794 314 q 804 286 808 299 q 667 74 765 163 q 381 -14 568 -14 m 589 1042 q 567 1045 576 1042 q 549 1061 558 1049 l 447 1186 q 442 1201 442 1193 q 448 1216 442 1210 q 463 1222 454 1222 l 490 1222 q 514 1213 504 1222 l 604 1129 l 731 1213 q 740 1218 732 1214 q 757 1222 747 1222 l 804 1222 q 819 1208 819 1222 q 807 1188 819 1199 l 651 1061 q 626 1045 636 1049 q 603 1042 617 1042 l 589 1042 z "},"Ç":{"ha":904,"x_min":92,"x_max":913,"o":"m 325 -306 q 249 -287 281 -306 q 217 -249 217 -268 q 224 -235 217 -240 l 247 -217 q 261 -211 254 -211 q 278 -220 267 -211 q 302 -235 290 -229 q 336 -242 314 -242 q 382 -226 361 -242 q 408 -186 403 -211 q 410 -175 410 -182 q 396 -144 410 -156 q 360 -133 382 -133 q 319 -140 340 -133 q 292 -147 297 -147 q 275 -139 281 -147 l 258 -115 q 256 -108 256 -110 q 263 -89 256 -100 q 274 -74 271 -78 l 315 -8 q 147 78 201 8 q 92 260 92 149 q 101 363 92 313 q 154 610 122 490 q 309 884 197 782 q 601 986 421 986 q 781 950 711 986 q 882 856 851 914 q 913 732 913 799 q 908 686 913 710 q 897 666 907 674 q 874 658 886 658 l 846 658 q 821 688 821 658 q 761 854 821 806 q 583 903 701 903 q 239 603 314 903 q 190 369 210 476 q 182 279 182 319 q 407 69 182 69 q 605 118 525 69 q 736 285 685 167 q 772 314 747 314 l 800 314 q 820 306 813 314 q 824 286 828 299 q 750 145 804 214 q 604 31 696 76 q 389 -14 513 -14 l 343 -81 q 399 -69 363 -69 q 460 -92 438 -69 q 482 -154 482 -115 q 439 -260 482 -215 q 325 -306 396 -306 z "},"Ĉ":{"ha":903,"x_min":74,"x_max":894,"o":"m 381 -14 q 149 62 225 -14 q 74 269 74 138 q 82 363 74 315 q 135 610 99 463 q 285 885 178 783 q 574 986 393 986 q 757 951 685 986 q 862 858 829 915 q 894 733 894 801 q 890 686 894 710 q 864 658 886 658 l 832 658 q 810 665 818 658 q 803 688 801 672 q 804 721 804 699 q 574 903 804 903 q 350 829 442 903 q 221 603 258 756 q 171 369 192 489 q 161 275 161 308 q 381 69 161 69 q 583 118 500 69 q 715 285 665 167 q 750 314 726 314 l 782 314 q 801 306 794 314 q 804 286 808 299 q 667 74 765 163 q 381 -14 568 -14 m 417 1042 q 401 1056 401 1042 q 414 1076 401 1067 l 569 1203 q 595 1219 585 1215 q 618 1222 606 1222 l 632 1222 q 654 1219 646 1222 q 672 1203 663 1215 l 774 1078 q 779 1063 779 1071 q 773 1048 779 1054 q 758 1042 767 1042 l 731 1042 q 707 1051 717 1042 l 617 1135 l 490 1051 q 481 1046 489 1050 q 464 1042 474 1042 l 417 1042 z "},"Ċ":{"ha":903,"x_min":74,"x_max":894,"o":"m 381 -14 q 149 62 225 -14 q 74 269 74 138 q 82 363 74 315 q 135 610 99 463 q 285 885 178 783 q 574 986 393 986 q 757 951 685 986 q 862 858 829 915 q 894 733 894 801 q 890 686 894 710 q 864 658 886 658 l 832 658 q 810 665 818 658 q 803 688 801 672 q 804 721 804 699 q 574 903 804 903 q 350 829 442 903 q 221 603 258 756 q 171 369 192 489 q 161 275 161 308 q 381 69 161 69 q 583 118 500 69 q 715 285 665 167 q 750 314 726 314 l 782 314 q 801 306 794 314 q 804 286 808 299 q 667 74 765 163 q 381 -14 568 -14 m 558 1042 q 538 1050 544 1042 q 535 1072 532 1058 l 549 1139 q 562 1162 551 1153 q 586 1171 572 1171 l 653 1171 q 674 1162 667 1171 q 678 1139 681 1153 l 664 1072 q 650 1050 661 1058 q 625 1042 639 1042 l 558 1042 z "},"D":{"ha":940,"x_min":47,"x_max":893,"o":"m 75 0 q 54 8 61 0 q 50 31 47 17 l 243 940 q 256 963 246 954 q 281 972 267 972 l 563 972 q 808 901 724 972 q 893 697 893 831 q 883 597 893 647 q 836 376 857 468 q 754 162 806 243 q 615 40 703 81 q 392 0 528 0 l 75 0 m 388 83 q 569 113 499 83 q 682 208 639 143 q 750 383 725 272 q 794 590 771 475 q 806 693 806 650 q 746 841 806 793 q 553 889 686 889 l 321 889 l 149 83 l 388 83 z "},"Ð":{"ha":950,"x_min":35,"x_max":903,"o":"m 85 0 q 64 8 71 0 q 60 31 57 17 l 149 447 l 61 447 q 41 456 47 447 q 38 478 35 464 l 42 500 q 54 522 43 514 q 79 531 65 531 l 167 531 l 253 940 q 266 963 256 954 q 290 972 276 972 l 572 972 q 818 901 733 972 q 903 697 903 831 q 893 597 903 647 q 846 376 867 468 q 764 162 815 243 q 625 40 713 81 q 401 0 538 0 l 85 0 m 397 83 q 578 113 508 83 q 692 208 649 143 q 760 383 735 272 q 804 590 781 475 q 815 693 815 650 q 756 841 815 793 q 563 889 696 889 l 331 889 l 254 531 l 463 531 q 483 522 476 531 q 486 500 489 514 l 482 478 q 469 456 481 464 q 444 447 458 447 l 236 447 l 158 83 l 397 83 z "},"Ď":{"ha":940,"x_min":49,"x_max":893,"o":"m 75 0 q 54 8 61 0 q 50 31 47 17 l 243 940 q 256 963 246 954 q 281 972 267 972 l 563 972 q 808 901 724 972 q 893 697 893 831 q 883 597 893 647 q 836 376 857 468 q 754 162 806 243 q 615 40 703 81 q 392 0 528 0 l 75 0 m 388 83 q 569 113 499 83 q 682 208 639 143 q 750 383 725 272 q 794 590 771 475 q 806 693 806 650 q 746 841 806 793 q 553 889 686 889 l 321 889 l 149 83 l 388 83 m 544 1042 q 523 1045 532 1042 q 504 1061 514 1049 l 403 1186 q 397 1201 397 1193 q 403 1216 397 1210 q 418 1222 410 1222 l 446 1222 q 469 1213 460 1222 l 560 1129 l 686 1213 q 695 1218 688 1214 q 713 1222 703 1222 l 760 1222 q 775 1208 775 1222 q 763 1188 775 1199 l 607 1061 q 582 1045 592 1049 q 558 1042 572 1042 l 544 1042 z "},"Đ":{"ha":950,"x_min":35,"x_max":903,"o":"m 85 0 q 64 8 71 0 q 60 31 57 17 l 149 447 l 61 447 q 41 456 47 447 q 38 478 35 464 l 42 500 q 54 522 43 514 q 79 531 65 531 l 167 531 l 253 940 q 266 963 256 954 q 290 972 276 972 l 572 972 q 818 901 733 972 q 903 697 903 831 q 893 597 903 647 q 846 376 867 468 q 764 162 815 243 q 625 40 713 81 q 401 0 538 0 l 85 0 m 397 83 q 578 113 508 83 q 692 208 649 143 q 760 383 735 272 q 804 590 781 475 q 815 693 815 650 q 756 841 815 793 q 563 889 696 889 l 331 889 l 254 531 l 463 531 q 483 522 476 531 q 486 500 489 514 l 482 478 q 469 456 481 464 q 444 447 458 447 l 236 447 l 158 83 l 397 83 z "},"E":{"ha":821,"x_min":47,"x_max":850,"o":"m 75 0 q 54 8 61 0 q 50 31 47 17 l 243 940 q 256 963 246 954 q 281 972 267 972 l 822 972 q 843 964 836 972 q 847 940 850 956 l 843 919 q 830 897 840 906 q 806 889 819 889 l 321 889 l 244 535 l 699 535 q 719 526 713 535 q 724 503 726 518 l 719 482 q 706 460 717 468 q 682 451 696 451 l 228 451 l 149 83 l 644 83 q 665 75 658 83 q 669 51 672 67 l 665 31 q 652 8 663 17 q 628 0 642 0 l 75 0 z "},"É":{"ha":821,"x_min":49,"x_max":849,"o":"m 75 0 q 54 8 61 0 q 50 31 47 17 l 243 940 q 256 963 246 954 q 281 972 267 972 l 822 972 q 843 964 836 972 q 847 940 850 956 l 843 919 q 830 897 840 906 q 806 889 819 889 l 321 889 l 244 535 l 699 535 q 719 526 713 535 q 724 503 726 518 l 719 482 q 706 460 717 468 q 682 451 696 451 l 228 451 l 149 83 l 644 83 q 665 75 658 83 q 669 51 672 67 l 665 31 q 652 8 663 17 q 628 0 642 0 l 75 0 m 538 1042 q 523 1047 528 1042 q 518 1058 518 1051 q 528 1079 518 1069 l 651 1197 q 677 1217 665 1211 q 708 1222 689 1222 l 772 1222 q 789 1217 783 1222 q 794 1203 794 1211 q 782 1179 794 1188 l 604 1056 q 583 1044 592 1047 q 558 1042 574 1042 l 538 1042 z "},"Ĕ":{"ha":821,"x_min":49,"x_max":849,"o":"m 75 0 q 54 8 61 0 q 50 31 47 17 l 243 940 q 256 963 246 954 q 281 972 267 972 l 822 972 q 843 964 836 972 q 847 940 850 956 l 843 919 q 830 897 840 906 q 806 889 819 889 l 321 889 l 244 535 l 699 535 q 719 526 713 535 q 724 503 726 518 l 719 482 q 706 460 717 468 q 682 451 696 451 l 228 451 l 149 83 l 644 83 q 665 75 658 83 q 669 51 672 67 l 665 31 q 652 8 663 17 q 628 0 642 0 l 75 0 m 557 1028 q 453 1063 488 1028 q 418 1153 418 1099 q 422 1189 418 1171 q 433 1208 425 1200 q 454 1215 442 1215 l 475 1215 q 493 1208 488 1215 q 496 1189 499 1200 q 493 1163 493 1172 q 560 1097 493 1097 q 631 1124 604 1097 q 668 1189 657 1150 q 679 1208 671 1200 q 700 1215 688 1215 l 721 1215 q 739 1208 733 1215 q 742 1189 744 1200 q 557 1028 708 1028 z "},"Ě":{"ha":821,"x_min":49,"x_max":849,"o":"m 75 0 q 54 8 61 0 q 50 31 47 17 l 243 940 q 256 963 246 954 q 281 972 267 972 l 822 972 q 843 964 836 972 q 847 940 850 956 l 843 919 q 830 897 840 906 q 806 889 819 889 l 321 889 l 244 535 l 699 535 q 719 526 713 535 q 724 503 726 518 l 719 482 q 706 460 717 468 q 682 451 696 451 l 228 451 l 149 83 l 644 83 q 665 75 658 83 q 669 51 672 67 l 665 31 q 652 8 663 17 q 628 0 642 0 l 75 0 m 551 1042 q 530 1045 539 1042 q 511 1061 521 1049 l 410 1186 q 404 1201 404 1193 q 410 1216 404 1210 q 425 1222 417 1222 l 453 1222 q 476 1213 467 1222 l 567 1129 l 693 1213 q 702 1218 694 1214 q 719 1222 710 1222 l 767 1222 q 782 1208 782 1222 q 769 1188 782 1199 l 614 1061 q 589 1045 599 1049 q 565 1042 579 1042 l 551 1042 z "},"Ê":{"ha":821,"x_min":49,"x_max":849,"o":"m 75 0 q 54 8 61 0 q 50 31 47 17 l 243 940 q 256 963 246 954 q 281 972 267 972 l 822 972 q 843 964 836 972 q 847 940 850 956 l 843 919 q 830 897 840 906 q 806 889 819 889 l 321 889 l 244 535 l 699 535 q 719 526 713 535 q 724 503 726 518 l 719 482 q 706 460 717 468 q 682 451 696 451 l 228 451 l 149 83 l 644 83 q 665 75 658 83 q 669 51 672 67 l 665 31 q 652 8 663 17 q 628 0 642 0 l 75 0 m 381 1042 q 365 1056 365 1042 q 378 1076 365 1067 l 533 1203 q 559 1219 549 1215 q 582 1222 569 1222 l 596 1222 q 618 1219 610 1222 q 636 1203 626 1215 l 738 1078 q 743 1063 743 1071 q 737 1048 743 1054 q 722 1042 731 1042 l 694 1042 q 671 1051 681 1042 l 581 1135 l 454 1051 q 445 1046 453 1050 q 428 1042 438 1042 l 381 1042 z "},"Ë":{"ha":821,"x_min":49,"x_max":849,"o":"m 75 0 q 54 8 61 0 q 50 31 47 17 l 243 940 q 256 963 246 954 q 281 972 267 972 l 822 972 q 843 964 836 972 q 847 940 850 956 l 843 919 q 830 897 840 906 q 806 889 819 889 l 321 889 l 244 535 l 699 535 q 719 526 713 535 q 724 503 726 518 l 719 482 q 706 460 717 468 q 682 451 696 451 l 228 451 l 149 83 l 644 83 q 665 75 658 83 q 669 51 672 67 l 665 31 q 652 8 663 17 q 628 0 642 0 l 75 0 m 404 1042 q 384 1050 390 1042 q 381 1072 378 1058 l 392 1125 q 405 1148 394 1139 q 429 1157 415 1157 l 482 1157 q 503 1148 496 1157 q 507 1125 510 1139 l 496 1072 q 482 1050 493 1058 q 457 1042 471 1042 l 404 1042 m 658 1042 q 638 1050 644 1042 q 635 1072 632 1058 l 646 1125 q 659 1148 649 1139 q 683 1157 669 1157 l 736 1157 q 757 1148 750 1157 q 761 1125 764 1139 l 750 1072 q 736 1050 747 1058 q 711 1042 725 1042 l 658 1042 z "},"Ė":{"ha":821,"x_min":49,"x_max":849,"o":"m 75 0 q 54 8 61 0 q 50 31 47 17 l 243 940 q 256 963 246 954 q 281 972 267 972 l 822 972 q 843 964 836 972 q 847 940 850 956 l 843 919 q 830 897 840 906 q 806 889 819 889 l 321 889 l 244 535 l 699 535 q 719 526 713 535 q 724 503 726 518 l 719 482 q 706 460 717 468 q 682 451 696 451 l 228 451 l 149 83 l 644 83 q 665 75 658 83 q 669 51 672 67 l 665 31 q 652 8 663 17 q 628 0 642 0 l 75 0 m 525 1042 q 505 1050 511 1042 q 501 1072 499 1058 l 515 1139 q 528 1162 518 1153 q 553 1171 539 1171 l 619 1171 q 640 1162 633 1171 q 644 1139 647 1153 l 631 1072 q 617 1050 628 1058 q 592 1042 606 1042 l 525 1042 z "},"È":{"ha":821,"x_min":49,"x_max":849,"o":"m 75 0 q 54 8 61 0 q 50 31 47 17 l 243 940 q 256 963 246 954 q 281 972 267 972 l 822 972 q 843 964 836 972 q 847 940 850 956 l 843 919 q 830 897 840 906 q 806 889 819 889 l 321 889 l 244 535 l 699 535 q 719 526 713 535 q 724 503 726 518 l 719 482 q 706 460 717 468 q 682 451 696 451 l 228 451 l 149 83 l 644 83 q 665 75 658 83 q 669 51 672 67 l 665 31 q 652 8 663 17 q 628 0 642 0 l 75 0 m 578 1042 q 554 1044 563 1042 q 538 1056 546 1047 l 417 1175 q 410 1193 410 1182 q 419 1213 410 1204 q 442 1222 428 1222 l 506 1222 q 533 1217 525 1222 q 551 1197 540 1213 l 622 1082 q 625 1068 625 1074 q 617 1049 625 1057 q 599 1042 610 1042 l 578 1042 z "},"Ē":{"ha":821,"x_min":49,"x_max":849,"o":"m 75 0 q 54 8 61 0 q 50 31 47 17 l 243 940 q 256 963 246 954 q 281 972 267 972 l 822 972 q 843 964 836 972 q 847 940 850 956 l 843 919 q 830 897 840 906 q 806 889 819 889 l 321 889 l 244 535 l 699 535 q 719 526 713 535 q 724 503 726 518 l 719 482 q 706 460 717 468 q 682 451 696 451 l 228 451 l 149 83 l 644 83 q 665 75 658 83 q 669 51 672 67 l 665 31 q 652 8 663 17 q 628 0 642 0 l 75 0 m 431 1042 q 410 1050 417 1042 q 407 1072 404 1058 l 413 1103 q 425 1125 414 1117 q 450 1133 436 1133 l 726 1133 q 747 1125 740 1133 q 750 1103 753 1117 l 744 1072 q 732 1050 743 1058 q 707 1042 721 1042 l 431 1042 z "},"Ę":{"ha":821,"x_min":47,"x_max":850,"o":"m 538 -306 q 428 -269 467 -306 q 389 -167 389 -232 q 394 -114 389 -140 q 449 0 410 -46 l 75 0 q 54 8 61 0 q 50 31 47 17 l 243 940 q 256 963 246 954 q 281 972 267 972 l 822 972 q 843 964 836 972 q 847 940 850 956 l 843 919 q 830 897 840 906 q 806 889 819 889 l 321 889 l 244 535 l 699 535 q 719 526 713 535 q 724 503 726 518 l 719 482 q 706 460 717 468 q 682 451 696 451 l 228 451 l 149 83 l 644 83 q 665 75 658 83 q 669 51 672 67 l 665 31 q 652 8 663 17 q 628 0 642 0 l 599 0 q 521 -33 554 -3 q 478 -114 488 -64 q 474 -144 474 -131 q 497 -205 474 -183 q 560 -226 521 -226 l 581 -226 q 601 -235 594 -226 q 604 -257 607 -243 l 600 -275 q 588 -297 599 -289 q 564 -306 578 -306 l 538 -306 z "},"F":{"ha":796,"x_min":47,"x_max":844,"o":"m 75 0 q 54 8 61 0 q 50 31 47 17 l 243 940 q 256 963 246 954 q 281 972 267 972 l 817 972 q 838 964 831 972 q 842 940 844 956 l 838 919 q 824 897 835 906 q 800 889 814 889 l 321 889 l 240 515 l 692 515 q 713 507 706 515 q 717 483 719 499 l 713 463 q 699 440 710 449 q 675 432 689 432 l 224 432 l 138 31 q 124 8 135 17 q 100 0 114 0 l 75 0 z "},"G":{"ha":922,"x_min":92,"x_max":914,"o":"m 393 -14 q 168 60 244 -14 q 92 264 92 135 q 100 354 92 307 q 157 618 125 490 q 315 886 197 786 q 606 986 432 986 q 784 947 715 986 q 883 854 853 908 q 914 750 914 800 q 913 729 914 735 q 901 709 911 717 q 878 701 892 701 l 847 701 q 831 707 835 701 q 824 729 826 713 q 758 853 815 803 q 588 903 701 903 q 369 832 458 903 q 243 611 281 761 q 189 361 213 486 q 181 279 181 315 q 411 69 181 69 q 635 143 540 69 q 760 361 729 217 l 775 432 l 533 432 q 513 441 519 432 q 510 464 507 450 l 514 483 q 527 506 517 497 q 551 515 538 515 l 849 515 q 869 507 863 515 q 874 483 876 499 l 847 361 q 761 165 824 250 q 604 33 699 81 q 393 -14 510 -14 z "},"Ğ":{"ha":919,"x_min":92,"x_max":914,"o":"m 393 -14 q 168 60 244 -14 q 92 264 92 135 q 100 354 92 307 q 157 618 125 490 q 315 886 197 786 q 606 986 432 986 q 784 947 715 986 q 883 854 853 908 q 914 750 914 800 q 913 729 914 735 q 901 709 911 717 q 878 701 892 701 l 847 701 q 831 707 835 701 q 824 729 826 713 q 758 853 815 803 q 588 903 701 903 q 369 832 458 903 q 243 611 281 761 q 189 361 213 486 q 181 279 181 315 q 411 69 181 69 q 635 143 540 69 q 760 361 729 217 l 775 432 l 533 432 q 513 441 519 432 q 510 464 507 450 l 514 483 q 527 506 517 497 q 551 515 538 515 l 849 515 q 869 507 863 515 q 874 483 876 499 l 847 361 q 761 165 824 250 q 604 33 699 81 q 393 -14 510 -14 m 589 1028 q 485 1063 519 1028 q 450 1153 450 1099 q 454 1189 450 1171 q 465 1208 457 1200 q 486 1215 474 1215 l 507 1215 q 525 1208 519 1215 q 528 1189 531 1200 q 525 1163 525 1172 q 592 1097 525 1097 q 663 1124 636 1097 q 700 1189 689 1150 q 711 1208 703 1200 q 732 1215 719 1215 l 753 1215 q 771 1208 765 1215 q 774 1189 776 1200 q 589 1028 740 1028 z "},"Ĝ":{"ha":919,"x_min":92,"x_max":914,"o":"m 393 -14 q 168 60 244 -14 q 92 264 92 135 q 100 354 92 307 q 157 618 125 490 q 315 886 197 786 q 606 986 432 986 q 784 947 715 986 q 883 854 853 908 q 914 750 914 800 q 913 729 914 735 q 901 709 911 717 q 878 701 892 701 l 847 701 q 831 707 835 701 q 824 729 826 713 q 758 853 815 803 q 588 903 701 903 q 369 832 458 903 q 243 611 281 761 q 189 361 213 486 q 181 279 181 315 q 411 69 181 69 q 635 143 540 69 q 760 361 729 217 l 775 432 l 533 432 q 513 441 519 432 q 510 464 507 450 l 514 483 q 527 506 517 497 q 551 515 538 515 l 849 515 q 869 507 863 515 q 874 483 876 499 l 847 361 q 761 165 824 250 q 604 33 699 81 q 393 -14 510 -14 m 404 1042 q 389 1056 389 1042 q 401 1076 389 1067 l 557 1203 q 583 1219 572 1215 q 606 1222 593 1222 l 619 1222 q 642 1219 633 1222 q 660 1203 650 1215 l 761 1078 q 767 1063 767 1071 q 760 1048 767 1054 q 746 1042 754 1042 l 718 1042 q 694 1051 704 1042 l 604 1135 l 478 1051 q 469 1046 476 1050 q 451 1042 461 1042 l 404 1042 z "},"Ģ":{"ha":919,"x_min":92,"x_max":914,"o":"m 393 -14 q 168 60 244 -14 q 92 264 92 135 q 100 354 92 307 q 157 618 125 490 q 315 886 197 786 q 606 986 432 986 q 784 947 715 986 q 883 854 853 908 q 914 750 914 800 q 913 729 914 735 q 901 709 911 717 q 878 701 892 701 l 847 701 q 831 707 835 701 q 824 729 826 713 q 758 853 815 803 q 588 903 701 903 q 369 832 458 903 q 243 611 281 761 q 189 361 213 486 q 181 279 181 315 q 411 69 181 69 q 635 143 540 69 q 760 361 729 217 l 775 432 l 533 432 q 513 441 519 432 q 510 464 507 450 l 514 483 q 527 506 517 497 q 551 515 538 515 l 849 515 q 869 507 863 515 q 874 483 876 499 l 847 361 q 761 165 824 250 q 604 33 699 81 q 393 -14 510 -14 m 247 -292 q 231 -275 231 -292 q 233 -262 231 -271 l 290 -107 q 333 -69 304 -69 l 396 -69 q 410 -76 406 -69 q 411 -92 414 -83 q 401 -117 408 -104 l 314 -262 q 295 -285 304 -278 q 272 -292 286 -292 l 247 -292 z "},"Ġ":{"ha":919,"x_min":92,"x_max":914,"o":"m 393 -14 q 168 60 244 -14 q 92 264 92 135 q 100 354 92 307 q 157 618 125 490 q 315 886 197 786 q 606 986 432 986 q 784 947 715 986 q 883 854 853 908 q 914 750 914 800 q 913 729 914 735 q 901 709 911 717 q 878 701 892 701 l 847 701 q 831 707 835 701 q 824 729 826 713 q 758 853 815 803 q 588 903 701 903 q 369 832 458 903 q 243 611 281 761 q 189 361 213 486 q 181 279 181 315 q 411 69 181 69 q 635 143 540 69 q 760 361 729 217 l 775 432 l 533 432 q 513 441 519 432 q 510 464 507 450 l 514 483 q 527 506 517 497 q 551 515 538 515 l 849 515 q 869 507 863 515 q 874 483 876 499 l 847 361 q 761 165 824 250 q 604 33 699 81 q 393 -14 510 -14 m 554 1042 q 534 1050 540 1042 q 531 1072 528 1058 l 544 1139 q 558 1162 547 1153 q 582 1171 568 1171 l 649 1171 q 669 1162 663 1171 q 674 1139 676 1153 l 660 1072 q 646 1050 657 1058 q 621 1042 635 1042 l 554 1042 z "},"H":{"ha":974,"x_min":47,"x_max":957,"o":"m 75 0 q 54 8 61 0 q 50 31 47 17 l 243 940 q 256 963 246 954 q 281 972 267 972 l 306 972 q 326 964 319 972 q 331 940 333 956 l 244 535 l 781 535 l 867 940 q 880 963 869 954 q 904 972 890 972 l 929 972 q 950 964 943 972 q 954 940 957 956 l 761 31 q 748 8 758 17 q 724 0 738 0 l 699 0 q 678 8 685 0 q 674 31 671 17 l 764 451 l 228 451 l 138 31 q 124 8 135 17 q 100 0 114 0 l 75 0 z "},"Ħ":{"ha":986,"x_min":47,"x_max":1038,"o":"m 1010 793 q 1031 785 1024 793 q 1035 761 1038 776 l 1031 740 q 1017 718 1028 726 q 992 710 1006 710 l 906 710 l 761 31 q 748 8 758 17 q 724 0 738 0 l 699 0 q 678 8 685 0 q 674 31 671 17 l 764 451 l 228 451 l 138 31 q 124 8 135 17 q 100 0 114 0 l 75 0 q 54 8 61 0 q 50 31 47 17 l 194 710 l 121 710 q 101 718 107 710 q 97 740 94 726 l 101 761 q 115 784 104 775 q 139 793 125 793 l 213 793 l 243 940 q 256 963 246 954 q 281 972 267 972 l 306 972 q 326 964 319 972 q 331 940 333 956 l 299 793 l 835 793 l 867 940 q 880 963 869 954 q 904 972 890 972 l 929 972 q 950 964 943 972 q 954 940 957 956 l 924 793 l 1010 793 m 781 535 l 818 710 l 282 710 l 244 535 l 781 535 z "},"Ĥ":{"ha":974,"x_min":49,"x_max":956,"o":"m 75 0 q 54 8 61 0 q 50 31 47 17 l 243 940 q 256 963 246 954 q 281 972 267 972 l 306 972 q 326 964 319 972 q 331 940 333 956 l 244 535 l 781 535 l 867 940 q 880 963 869 954 q 904 972 890 972 l 929 972 q 950 964 943 972 q 954 940 957 956 l 761 31 q 748 8 758 17 q 724 0 738 0 l 699 0 q 678 8 685 0 q 674 31 671 17 l 764 451 l 228 451 l 138 31 q 124 8 135 17 q 100 0 114 0 l 75 0 m 422 1042 q 407 1056 407 1042 q 419 1076 407 1067 l 575 1203 q 601 1219 590 1215 q 624 1222 611 1222 l 638 1222 q 660 1219 651 1222 q 678 1203 668 1215 l 779 1078 q 785 1063 785 1071 q 778 1048 785 1054 q 764 1042 772 1042 l 736 1042 q 713 1051 722 1042 l 622 1135 l 496 1051 q 487 1046 494 1050 q 469 1042 479 1042 l 422 1042 z "},"I":{"ha":350,"x_min":46,"x_max":335,"o":"m 74 0 q 53 8 60 0 q 49 31 46 17 l 244 942 q 256 964 246 956 q 281 972 267 972 l 307 972 q 328 964 321 972 q 332 942 335 956 l 138 31 q 125 8 135 17 q 101 0 115 0 l 74 0 z "},"Ĳ":{"ha":819,"x_min":47,"x_max":811,"o":"m 75 0 q 54 8 61 0 q 50 31 47 17 l 244 942 q 256 964 246 956 q 281 972 267 972 l 307 972 q 328 964 321 972 q 332 942 335 956 l 138 31 q 125 8 135 17 q 101 0 115 0 l 75 0 m 269 -14 q 249 -6 256 -14 q 246 17 243 3 l 250 38 q 263 60 253 51 q 288 69 274 69 q 488 148 407 69 q 597 356 569 226 l 722 942 q 734 964 724 956 q 758 972 744 972 l 783 972 q 804 964 797 972 q 808 940 811 956 l 685 354 q 550 82 647 178 q 269 -14 453 -14 z "},"Í":{"ha":350,"x_min":47,"x_max":542,"o":"m 74 0 q 53 8 60 0 q 49 31 46 17 l 244 942 q 256 964 246 956 q 281 972 267 972 l 307 972 q 328 964 321 972 q 332 942 335 956 l 138 31 q 125 8 135 17 q 101 0 115 0 l 74 0 m 285 1042 q 270 1047 275 1042 q 265 1058 265 1051 q 275 1079 265 1069 l 399 1197 q 424 1217 413 1211 q 456 1222 436 1222 l 519 1222 q 536 1217 531 1222 q 542 1203 542 1211 q 529 1179 542 1188 l 351 1056 q 330 1044 339 1047 q 306 1042 321 1042 l 285 1042 z "},"Ĭ":{"ha":350,"x_min":47,"x_max":501,"o":"m 74 0 q 53 8 60 0 q 49 31 46 17 l 244 942 q 256 964 246 956 q 281 972 267 972 l 307 972 q 328 964 321 972 q 332 942 335 956 l 138 31 q 125 8 135 17 q 101 0 115 0 l 74 0 m 317 1028 q 213 1063 247 1028 q 178 1153 178 1099 q 182 1189 178 1171 q 193 1208 185 1200 q 214 1215 201 1215 l 235 1215 q 253 1208 247 1215 q 256 1189 258 1200 q 253 1163 253 1172 q 319 1097 253 1097 q 390 1124 364 1097 q 428 1189 417 1150 q 439 1208 431 1200 q 460 1215 447 1215 l 481 1215 q 499 1208 493 1215 q 501 1189 504 1200 q 317 1028 468 1028 z "},"Î":{"ha":350,"x_min":47,"x_max":492,"o":"m 74 0 q 53 8 60 0 q 49 31 46 17 l 244 942 q 256 964 246 956 q 281 972 267 972 l 307 972 q 328 964 321 972 q 332 942 335 956 l 138 31 q 125 8 135 17 q 101 0 115 0 l 74 0 m 129 1042 q 114 1056 114 1042 q 126 1076 114 1067 l 282 1203 q 308 1219 297 1215 q 331 1222 318 1222 l 344 1222 q 367 1219 358 1222 q 385 1203 375 1215 l 486 1078 q 492 1063 492 1071 q 485 1048 492 1054 q 471 1042 479 1042 l 443 1042 q 419 1051 429 1042 l 329 1135 l 203 1051 q 194 1046 201 1050 q 176 1042 186 1042 l 129 1042 z "},"Ï":{"ha":350,"x_min":47,"x_max":513,"o":"m 74 0 q 53 8 60 0 q 49 31 46 17 l 244 942 q 256 964 246 956 q 281 972 267 972 l 307 972 q 328 964 321 972 q 332 942 335 956 l 138 31 q 125 8 135 17 q 101 0 115 0 l 74 0 m 154 1042 q 134 1050 140 1042 q 131 1072 128 1058 l 142 1125 q 155 1148 144 1139 q 179 1157 165 1157 l 232 1157 q 253 1148 246 1157 q 257 1125 260 1139 l 246 1072 q 232 1050 243 1058 q 207 1042 221 1042 l 154 1042 m 408 1042 q 388 1050 394 1042 q 385 1072 382 1058 l 396 1125 q 409 1148 399 1139 q 433 1157 419 1157 l 486 1157 q 507 1148 500 1157 q 511 1125 514 1139 l 500 1072 q 486 1050 497 1058 q 461 1042 475 1042 l 408 1042 z "},"İ":{"ha":350,"x_min":47,"x_max":394,"o":"m 74 0 q 53 8 60 0 q 49 31 46 17 l 244 942 q 256 964 246 956 q 281 972 267 972 l 307 972 q 328 964 321 972 q 332 942 335 956 l 138 31 q 125 8 135 17 q 101 0 115 0 l 74 0 m 274 1042 q 253 1050 260 1042 q 250 1072 247 1058 l 264 1139 q 277 1162 267 1153 q 301 1171 288 1171 l 368 1171 q 389 1162 382 1171 q 393 1139 396 1153 l 379 1072 q 365 1050 376 1058 q 340 1042 354 1042 l 274 1042 z "},"Ì":{"ha":350,"x_min":47,"x_max":364,"o":"m 74 0 q 53 8 60 0 q 49 31 46 17 l 244 942 q 256 964 246 956 q 281 972 267 972 l 307 972 q 328 964 321 972 q 332 942 335 956 l 138 31 q 125 8 135 17 q 101 0 115 0 l 74 0 m 317 1042 q 293 1044 301 1042 q 276 1056 285 1047 l 156 1175 q 149 1193 149 1182 q 158 1213 149 1204 q 181 1222 167 1222 l 244 1222 q 272 1217 264 1222 q 290 1197 279 1213 l 361 1082 q 364 1068 364 1074 q 356 1049 364 1057 q 338 1042 349 1042 l 317 1042 z "},"Ī":{"ha":350,"x_min":47,"x_max":490,"o":"m 74 0 q 53 8 60 0 q 49 31 46 17 l 244 942 q 256 964 246 956 q 281 972 267 972 l 307 972 q 328 964 321 972 q 332 942 335 956 l 138 31 q 125 8 135 17 q 101 0 115 0 l 74 0 m 171 1042 q 151 1050 157 1042 q 147 1072 144 1058 l 153 1103 q 165 1125 154 1117 q 190 1133 176 1133 l 467 1133 q 487 1125 481 1133 q 490 1103 493 1117 l 485 1072 q 472 1050 483 1058 q 447 1042 461 1042 l 171 1042 z "},"Į":{"ha":374,"x_min":-94,"x_max":378,"o":"m 53 -306 q -56 -269 -18 -306 q -94 -168 -94 -233 q -89 -114 -94 -140 q -21 16 -72 -35 q 104 76 31 67 l 107 89 q 110 103 107 94 l 288 942 q 301 964 290 956 q 325 972 311 972 l 351 972 q 372 964 365 972 q 375 942 378 956 l 182 31 q 169 8 179 17 q 144 0 158 0 l 124 0 q 41 -31 76 0 q -6 -114 6 -61 q -10 -144 -10 -131 q 14 -205 -10 -183 q 76 -226 38 -226 l 97 -226 q 117 -235 111 -226 q 121 -257 124 -243 l 117 -275 q 103 -297 114 -289 q 79 -306 93 -306 l 53 -306 z "},"Ĩ":{"ha":350,"x_min":47,"x_max":500,"o":"m 74 0 q 53 8 60 0 q 49 31 46 17 l 244 942 q 256 964 246 956 q 281 972 267 972 l 307 972 q 328 964 321 972 q 332 942 335 956 l 138 31 q 125 8 135 17 q 101 0 115 0 l 74 0 m 381 1035 q 341 1042 357 1035 q 301 1063 325 1049 q 278 1076 290 1069 q 256 1082 267 1082 q 229 1076 239 1082 q 210 1058 219 1069 q 197 1047 204 1051 q 182 1042 190 1042 l 154 1042 q 140 1049 144 1042 q 136 1064 135 1056 q 178 1138 142 1104 q 256 1172 214 1172 q 296 1165 279 1172 q 333 1144 313 1158 q 356 1131 344 1138 q 381 1125 368 1125 q 407 1131 399 1125 q 426 1149 415 1136 q 454 1167 439 1167 l 482 1167 q 497 1160 492 1167 q 500 1144 501 1154 q 458 1069 494 1104 q 381 1035 421 1035 z "},"J":{"ha":853,"x_min":24,"x_max":844,"o":"m 314 -14 q 106 47 189 -14 q 24 225 24 107 q 26 269 24 239 q 58 300 32 300 l 89 300 q 110 292 103 300 q 114 271 117 283 q 111 232 111 243 q 165 109 111 149 q 314 69 218 69 q 523 146 446 69 q 629 356 600 222 l 743 889 l 232 889 q 211 897 218 889 q 207 919 204 906 l 213 942 q 224 964 214 956 q 249 972 235 972 l 817 972 q 838 964 831 972 q 842 940 844 956 l 718 354 q 585 83 681 179 q 314 -14 489 -14 z "},"Ĵ":{"ha":853,"x_min":24,"x_max":843,"o":"m 314 -14 q 106 47 189 -14 q 24 225 24 107 q 26 269 24 239 q 58 300 32 300 l 89 300 q 110 292 103 300 q 114 271 117 283 q 111 232 111 243 q 165 109 111 149 q 314 69 218 69 q 523 146 446 69 q 629 356 600 222 l 743 889 l 232 889 q 211 897 218 889 q 207 919 204 906 l 213 942 q 224 964 214 956 q 249 972 235 972 l 817 972 q 838 964 831 972 q 842 940 844 956 l 718 354 q 585 83 681 179 q 314 -14 489 -14 m 376 1042 q 361 1056 361 1042 q 374 1076 361 1067 l 529 1203 q 555 1219 544 1215 q 578 1222 565 1222 l 592 1222 q 614 1219 606 1222 q 632 1203 622 1215 l 733 1078 q 739 1063 739 1071 q 733 1048 739 1054 q 718 1042 726 1042 l 690 1042 q 667 1051 676 1042 l 576 1135 l 450 1051 q 441 1046 449 1050 q 424 1042 433 1042 l 376 1042 z "},"K":{"ha":781,"x_min":47,"x_max":825,"o":"m 75 0 q 54 8 61 0 q 50 31 47 17 l 243 940 q 255 964 246 956 q 278 972 264 972 l 306 972 q 326 964 319 972 q 331 940 333 956 l 258 593 l 717 951 q 772 972 743 972 l 797 972 q 817 963 810 972 q 825 943 825 954 q 817 925 825 932 l 282 507 l 676 47 q 685 26 685 38 q 676 8 685 15 q 657 0 668 0 l 632 0 q 586 21 603 0 l 225 442 l 138 31 q 103 0 131 0 l 75 0 z "},"Ķ":{"ha":781,"x_min":49,"x_max":825,"o":"m 75 0 q 54 8 61 0 q 50 31 47 17 l 243 940 q 255 964 246 956 q 278 972 264 972 l 306 972 q 326 964 319 972 q 331 940 333 956 l 258 593 l 717 951 q 772 972 743 972 l 797 972 q 817 963 810 972 q 825 943 825 954 q 817 925 825 932 l 282 507 l 676 47 q 685 26 685 38 q 676 8 685 15 q 657 0 668 0 l 632 0 q 586 21 603 0 l 225 442 l 138 31 q 103 0 131 0 l 75 0 m 219 -292 q 203 -275 203 -292 q 206 -262 203 -271 l 263 -107 q 306 -69 276 -69 l 368 -69 q 382 -76 378 -69 q 383 -92 386 -83 q 374 -117 381 -104 l 286 -262 q 267 -285 276 -278 q 244 -292 258 -292 l 219 -292 z "},"L":{"ha":750,"x_min":47,"x_max":656,"o":"m 75 0 q 54 8 61 0 q 50 31 47 17 l 244 942 q 256 964 246 956 q 281 972 267 972 l 307 972 q 328 964 321 972 q 332 942 335 956 l 149 83 l 628 83 q 649 75 642 83 q 653 51 656 67 l 649 31 q 635 8 646 17 q 611 0 625 0 l 75 0 z "},"Ĺ":{"ha":750,"x_min":49,"x_max":654,"o":"m 75 0 q 54 8 61 0 q 50 31 47 17 l 244 942 q 256 964 246 956 q 281 972 267 972 l 307 972 q 328 964 321 972 q 332 942 335 956 l 149 83 l 628 83 q 649 75 642 83 q 653 51 656 67 l 649 31 q 635 8 646 17 q 611 0 625 0 l 75 0 m 288 1042 q 273 1047 278 1042 q 268 1058 268 1051 q 278 1079 268 1069 l 401 1197 q 427 1217 415 1211 q 458 1222 439 1222 l 522 1222 q 539 1217 533 1222 q 544 1203 544 1211 q 532 1179 544 1188 l 354 1056 q 333 1044 342 1047 q 308 1042 324 1042 l 288 1042 z "},"Ľ":{"ha":750,"x_min":49,"x_max":654,"o":"m 453 764 q 436 781 436 764 q 439 793 436 785 l 496 949 q 539 986 510 986 l 601 986 q 615 979 611 986 q 617 964 619 972 q 607 939 614 951 l 519 793 q 501 771 510 778 q 478 764 492 764 l 453 764 m 75 0 q 54 8 61 0 q 50 31 47 17 l 244 942 q 256 964 246 956 q 281 972 267 972 l 307 972 q 328 964 321 972 q 332 942 335 956 l 149 83 l 628 83 q 649 75 642 83 q 653 51 656 67 l 649 31 q 635 8 646 17 q 611 0 625 0 l 75 0 z "},"Ļ":{"ha":750,"x_min":49,"x_max":654,"o":"m 75 0 q 54 8 61 0 q 50 31 47 17 l 244 942 q 256 964 246 956 q 281 972 267 972 l 307 972 q 328 964 321 972 q 332 942 335 956 l 149 83 l 628 83 q 649 75 642 83 q 653 51 656 67 l 649 31 q 635 8 646 17 q 611 0 625 0 l 75 0 m 224 -292 q 207 -275 207 -292 q 210 -262 207 -271 l 267 -107 q 310 -69 281 -69 l 372 -69 q 386 -76 382 -69 q 388 -92 390 -83 q 378 -117 385 -104 l 290 -262 q 272 -285 281 -278 q 249 -292 263 -292 l 224 -292 z "},"Ŀ":{"ha":750,"x_min":47,"x_max":656,"o":"m 75 0 q 54 8 61 0 q 50 31 47 17 l 244 942 q 256 964 246 956 q 281 972 267 972 l 307 972 q 328 964 321 972 q 332 942 335 956 l 149 83 l 628 83 q 649 75 642 83 q 653 51 656 67 l 649 31 q 635 8 646 17 q 611 0 625 0 l 75 0 m 446 435 q 425 443 432 435 q 421 465 418 451 l 436 532 q 449 555 439 546 q 472 564 458 564 l 539 564 q 560 555 553 564 q 565 532 568 546 l 550 465 q 537 443 547 451 q 513 435 526 435 l 446 435 z "},"Ł":{"ha":761,"x_min":10,"x_max":668,"o":"m 86 0 q 65 8 72 0 q 61 31 58 17 l 142 406 l 54 375 q 35 371 42 371 q 14 396 10 371 l 19 422 q 30 444 22 438 q 57 457 38 450 l 160 493 l 256 942 q 267 964 257 956 q 292 972 278 972 l 318 972 q 339 964 332 972 q 343 942 346 956 l 254 528 l 472 606 q 492 610 485 610 q 510 603 504 610 q 513 585 515 597 l 507 558 q 497 537 504 543 q 469 524 489 531 l 236 440 l 160 83 l 640 83 q 661 75 654 83 q 665 53 668 67 l 660 31 q 647 8 657 17 q 624 0 638 0 l 86 0 z "},"M":{"ha":1088,"x_min":47,"x_max":1071,"o":"m 76 0 q 54 8 61 0 q 50 31 47 17 l 243 940 q 256 963 246 954 q 282 972 267 972 l 318 972 q 337 966 331 972 q 344 954 343 960 l 529 340 l 976 954 q 1008 972 990 972 l 1043 972 q 1064 964 1057 972 q 1068 940 1071 956 l 875 31 q 862 8 872 17 q 838 0 851 0 l 811 0 q 790 8 797 0 q 786 31 783 17 l 942 761 l 578 261 q 529 233 557 233 l 500 233 q 475 240 483 233 q 463 261 467 247 l 301 797 l 139 31 q 126 8 136 17 q 103 0 117 0 l 76 0 z "},"N":{"ha":954,"x_min":47,"x_max":938,"o":"m 75 0 q 54 8 61 0 q 50 31 47 17 l 243 940 q 256 964 246 956 q 279 972 265 972 l 307 972 q 333 956 326 972 l 682 163 l 847 940 q 860 963 850 954 q 885 972 871 972 l 910 972 q 931 964 924 972 q 935 940 938 956 l 742 32 q 729 8 739 17 q 706 0 719 0 l 678 0 q 651 17 658 0 l 304 807 l 139 31 q 126 8 136 17 q 101 0 115 0 l 75 0 z "},"Ń":{"ha":954,"x_min":49,"x_max":936,"o":"m 75 0 q 54 8 61 0 q 50 31 47 17 l 243 940 q 256 964 246 956 q 279 972 265 972 l 307 972 q 333 956 326 972 l 682 163 l 847 940 q 860 963 850 954 q 885 972 871 972 l 910 972 q 931 964 924 972 q 935 940 938 956 l 742 32 q 729 8 739 17 q 706 0 719 0 l 678 0 q 651 17 658 0 l 304 807 l 139 31 q 126 8 136 17 q 101 0 115 0 l 75 0 m 567 1042 q 552 1047 557 1042 q 547 1058 547 1051 q 557 1079 547 1069 l 681 1197 q 706 1217 694 1211 q 738 1222 718 1222 l 801 1222 q 818 1217 813 1222 q 824 1203 824 1211 q 811 1179 824 1188 l 633 1056 q 612 1044 621 1047 q 588 1042 603 1042 l 567 1042 z "},"Ň":{"ha":954,"x_min":49,"x_max":936,"o":"m 75 0 q 54 8 61 0 q 50 31 47 17 l 243 940 q 256 964 246 956 q 279 972 265 972 l 307 972 q 333 956 326 972 l 682 163 l 847 940 q 860 963 850 954 q 885 972 871 972 l 910 972 q 931 964 924 972 q 935 940 938 956 l 742 32 q 729 8 739 17 q 706 0 719 0 l 678 0 q 651 17 658 0 l 304 807 l 139 31 q 126 8 136 17 q 101 0 115 0 l 75 0 m 596 1042 q 574 1045 583 1042 q 556 1061 565 1049 l 454 1186 q 449 1201 449 1193 q 455 1216 449 1210 q 469 1222 461 1222 l 497 1222 q 521 1213 511 1222 l 611 1129 l 738 1213 q 747 1218 739 1214 q 764 1222 754 1222 l 811 1222 q 826 1208 826 1222 q 814 1188 826 1199 l 658 1061 q 633 1045 643 1049 q 610 1042 624 1042 l 596 1042 z "},"Ņ":{"ha":954,"x_min":49,"x_max":936,"o":"m 75 0 q 54 8 61 0 q 50 31 47 17 l 243 940 q 256 964 246 956 q 279 972 265 972 l 307 972 q 333 956 326 972 l 682 163 l 847 940 q 860 963 850 954 q 885 972 871 972 l 910 972 q 931 964 924 972 q 935 940 938 956 l 742 32 q 729 8 739 17 q 706 0 719 0 l 678 0 q 651 17 658 0 l 304 807 l 139 31 q 126 8 136 17 q 101 0 115 0 l 75 0 m 274 -292 q 257 -275 257 -292 q 260 -262 257 -271 l 317 -107 q 360 -69 331 -69 l 422 -69 q 436 -76 432 -69 q 438 -92 440 -83 q 428 -117 435 -104 l 340 -262 q 322 -285 331 -278 q 299 -292 313 -292 l 274 -292 z "},"Ŋ":{"ha":950,"x_min":67,"x_max":954,"o":"m 469 -312 q 449 -304 456 -312 q 446 -282 443 -296 l 450 -260 q 463 -237 453 -246 q 488 -229 474 -229 l 493 -229 q 599 -191 565 -229 q 647 -79 632 -153 l 667 11 l 319 797 l 157 31 q 143 8 154 17 q 118 0 132 0 l 93 0 q 73 8 79 0 q 69 31 67 17 l 263 940 q 276 963 265 954 q 300 972 286 972 l 329 972 q 354 956 349 972 l 701 172 l 864 940 q 877 963 867 954 q 901 972 888 972 l 926 972 q 947 964 940 972 q 951 940 954 956 l 735 -79 q 653 -251 711 -190 q 475 -312 596 -312 l 469 -312 z "},"Ñ":{"ha":954,"x_min":49,"x_max":936,"o":"m 75 0 q 54 8 61 0 q 50 31 47 17 l 243 940 q 256 964 246 956 q 279 972 265 972 l 307 972 q 333 956 326 972 l 682 163 l 847 940 q 860 963 850 954 q 885 972 871 972 l 910 972 q 931 964 924 972 q 935 940 938 956 l 742 32 q 729 8 739 17 q 706 0 719 0 l 678 0 q 651 17 658 0 l 304 807 l 139 31 q 126 8 136 17 q 101 0 115 0 l 75 0 m 672 1035 q 633 1042 649 1035 q 593 1063 617 1049 q 570 1076 582 1069 q 547 1082 558 1082 q 521 1076 531 1082 q 501 1058 511 1069 q 489 1047 496 1051 q 474 1042 482 1042 l 446 1042 q 431 1049 436 1042 q 428 1064 426 1056 q 469 1138 433 1104 q 547 1172 506 1172 q 588 1165 571 1172 q 625 1144 604 1158 q 648 1131 636 1138 q 672 1125 660 1125 q 699 1131 690 1125 q 718 1149 707 1136 q 746 1167 731 1167 l 774 1167 q 788 1160 783 1167 q 792 1144 793 1154 q 749 1069 786 1104 q 672 1035 713 1035 z "},"O":{"ha":919,"x_min":74,"x_max":876,"o":"m 378 -14 q 154 56 235 -14 q 74 265 74 126 q 83 369 74 317 q 133 603 107 494 q 291 890 178 793 q 572 986 404 986 q 796 915 715 986 q 876 704 876 843 q 867 603 876 653 q 817 369 844 478 q 658 81 771 176 q 378 -14 544 -14 m 378 69 q 601 144 508 69 q 731 376 693 219 q 778 596 757 482 q 788 699 788 649 q 733 853 788 804 q 572 903 679 903 q 349 828 440 903 q 219 596 258 753 q 172 376 193 490 q 163 274 163 322 q 216 119 163 168 q 378 69 269 69 z "},"Ó":{"ha":919,"x_min":74,"x_max":876,"o":"m 378 -14 q 154 56 235 -14 q 74 265 74 126 q 83 369 74 317 q 133 603 107 494 q 291 890 178 793 q 572 986 404 986 q 796 915 715 986 q 876 704 876 843 q 867 603 876 653 q 817 369 844 478 q 658 81 771 176 q 378 -14 544 -14 m 378 69 q 601 144 508 69 q 731 376 693 219 q 778 596 757 482 q 788 699 788 649 q 733 853 788 804 q 572 903 679 903 q 349 828 440 903 q 219 596 258 753 q 172 376 193 490 q 163 274 163 322 q 216 119 163 168 q 378 69 269 69 m 550 1042 q 535 1047 540 1042 q 531 1058 531 1051 q 540 1079 531 1069 l 664 1197 q 690 1217 678 1211 q 721 1222 701 1222 l 785 1222 q 801 1217 796 1222 q 807 1203 807 1211 q 794 1179 807 1188 l 617 1056 q 595 1044 604 1047 q 571 1042 586 1042 l 550 1042 z "},"Ŏ":{"ha":919,"x_min":74,"x_max":876,"o":"m 378 -14 q 154 56 235 -14 q 74 265 74 126 q 83 369 74 317 q 133 603 107 494 q 291 890 178 793 q 572 986 404 986 q 796 915 715 986 q 876 704 876 843 q 867 603 876 653 q 817 369 844 478 q 658 81 771 176 q 378 -14 544 -14 m 378 69 q 601 144 508 69 q 731 376 693 219 q 778 596 757 482 q 788 699 788 649 q 733 853 788 804 q 572 903 679 903 q 349 828 440 903 q 219 596 258 753 q 172 376 193 490 q 163 274 163 322 q 216 119 163 168 q 378 69 269 69 m 589 1028 q 485 1063 519 1028 q 450 1153 450 1099 q 454 1189 450 1171 q 465 1208 457 1200 q 486 1215 474 1215 l 507 1215 q 525 1208 519 1215 q 528 1189 531 1200 q 525 1163 525 1172 q 592 1097 525 1097 q 663 1124 636 1097 q 700 1189 689 1150 q 711 1208 703 1200 q 732 1215 719 1215 l 753 1215 q 771 1208 765 1215 q 774 1189 776 1200 q 589 1028 740 1028 z "},"Ô":{"ha":919,"x_min":74,"x_max":876,"o":"m 378 -14 q 154 56 235 -14 q 74 265 74 126 q 83 369 74 317 q 133 603 107 494 q 291 890 178 793 q 572 986 404 986 q 796 915 715 986 q 876 704 876 843 q 867 603 876 653 q 817 369 844 478 q 658 81 771 176 q 378 -14 544 -14 m 378 69 q 601 144 508 69 q 731 376 693 219 q 778 596 757 482 q 788 699 788 649 q 733 853 788 804 q 572 903 679 903 q 349 828 440 903 q 219 596 258 753 q 172 376 193 490 q 163 274 163 322 q 216 119 163 168 q 378 69 269 69 m 411 1042 q 396 1056 396 1042 q 408 1076 396 1067 l 564 1203 q 590 1219 579 1215 q 613 1222 600 1222 l 626 1222 q 649 1219 640 1222 q 667 1203 657 1215 l 768 1078 q 774 1063 774 1071 q 767 1048 774 1054 q 753 1042 761 1042 l 725 1042 q 701 1051 711 1042 l 611 1135 l 485 1051 q 476 1046 483 1050 q 458 1042 468 1042 l 411 1042 z "},"Ö":{"ha":919,"x_min":74,"x_max":876,"o":"m 378 -14 q 154 56 235 -14 q 74 265 74 126 q 83 369 74 317 q 133 603 107 494 q 291 890 178 793 q 572 986 404 986 q 796 915 715 986 q 876 704 876 843 q 867 603 876 653 q 817 369 844 478 q 658 81 771 176 q 378 -14 544 -14 m 378 69 q 601 144 508 69 q 731 376 693 219 q 778 596 757 482 q 788 699 788 649 q 733 853 788 804 q 572 903 679 903 q 349 828 440 903 q 219 596 258 753 q 172 376 193 490 q 163 274 163 322 q 216 119 163 168 q 378 69 269 69 m 433 1042 q 413 1050 419 1042 q 410 1072 407 1058 l 421 1125 q 434 1148 424 1139 q 458 1157 444 1157 l 511 1157 q 532 1148 525 1157 q 536 1125 539 1139 l 525 1072 q 511 1050 522 1058 q 486 1042 500 1042 l 433 1042 m 688 1042 q 667 1050 674 1042 q 664 1072 661 1058 l 675 1125 q 688 1148 678 1139 q 713 1157 699 1157 l 765 1157 q 786 1148 779 1157 q 790 1125 793 1139 l 779 1072 q 765 1050 776 1058 q 740 1042 754 1042 l 688 1042 z "},"Ò":{"ha":919,"x_min":74,"x_max":876,"o":"m 378 -14 q 154 56 235 -14 q 74 265 74 126 q 83 369 74 317 q 133 603 107 494 q 291 890 178 793 q 572 986 404 986 q 796 915 715 986 q 876 704 876 843 q 867 603 876 653 q 817 369 844 478 q 658 81 771 176 q 378 -14 544 -14 m 378 69 q 601 144 508 69 q 731 376 693 219 q 778 596 757 482 q 788 699 788 649 q 733 853 788 804 q 572 903 679 903 q 349 828 440 903 q 219 596 258 753 q 172 376 193 490 q 163 274 163 322 q 216 119 163 168 q 378 69 269 69 m 589 1042 q 565 1044 574 1042 q 549 1056 557 1047 l 428 1175 q 421 1193 421 1182 q 430 1213 421 1204 q 453 1222 439 1222 l 517 1222 q 544 1217 536 1222 q 563 1197 551 1213 l 633 1082 q 636 1068 636 1074 q 628 1049 636 1057 q 610 1042 621 1042 l 589 1042 z "},"Ő":{"ha":919,"x_min":74,"x_max":876,"o":"m 378 -14 q 154 56 235 -14 q 74 265 74 126 q 83 369 74 317 q 133 603 107 494 q 291 890 178 793 q 572 986 404 986 q 796 915 715 986 q 876 704 876 843 q 867 603 876 653 q 817 369 844 478 q 658 81 771 176 q 378 -14 544 -14 m 378 69 q 601 144 508 69 q 731 376 693 219 q 778 596 757 482 q 788 699 788 649 q 733 853 788 804 q 572 903 679 903 q 349 828 440 903 q 219 596 258 753 q 172 376 193 490 q 163 274 163 322 q 216 119 163 168 q 378 69 269 69 m 464 1042 q 444 1057 444 1042 q 451 1075 444 1065 l 532 1196 q 589 1222 549 1222 l 644 1222 q 667 1203 667 1222 q 657 1181 667 1190 l 531 1061 q 485 1042 508 1042 l 464 1042 m 669 1042 q 650 1057 650 1042 q 657 1075 650 1065 l 738 1196 q 794 1222 754 1222 l 850 1222 q 872 1203 872 1222 q 863 1181 872 1190 l 736 1061 q 690 1042 714 1042 l 669 1042 z "},"Ō":{"ha":919,"x_min":74,"x_max":876,"o":"m 378 -14 q 154 56 235 -14 q 74 265 74 126 q 83 369 74 317 q 133 603 107 494 q 291 890 178 793 q 572 986 404 986 q 796 915 715 986 q 876 704 876 843 q 867 603 876 653 q 817 369 844 478 q 658 81 771 176 q 378 -14 544 -14 m 378 69 q 601 144 508 69 q 731 376 693 219 q 778 596 757 482 q 788 699 788 649 q 733 853 788 804 q 572 903 679 903 q 349 828 440 903 q 219 596 258 753 q 172 376 193 490 q 163 274 163 322 q 216 119 163 168 q 378 69 269 69 m 453 1042 q 433 1050 439 1042 q 429 1072 426 1058 l 435 1103 q 447 1125 436 1117 q 472 1133 458 1133 l 749 1133 q 769 1125 763 1133 q 772 1103 775 1117 l 767 1072 q 754 1050 765 1058 q 729 1042 743 1042 l 453 1042 z "},"Ø":{"ha":947,"x_min":11,"x_max":1011,"o":"m 404 -14 q 107 253 107 -14 q 110 308 107 269 l 53 289 q 35 285 42 285 q 17 291 22 285 q 14 310 11 297 l 19 336 q 30 358 22 351 q 57 371 38 364 l 124 394 q 168 603 139 479 q 332 889 214 792 q 617 986 450 986 q 835 917 757 986 q 913 711 913 847 q 911 678 913 689 l 967 697 q 986 701 978 701 q 1007 676 1011 701 l 1001 650 q 990 628 997 635 q 963 615 982 622 l 900 593 q 853 369 881 483 q 404 -14 761 -14 m 819 644 q 821 685 821 658 q 762 849 821 796 q 599 903 703 903 q 384 827 475 903 q 254 596 293 751 l 244 557 q 217 429 228 488 l 819 644 m 422 69 q 638 145 547 69 q 767 376 729 221 q 807 560 793 488 l 201 342 q 199 288 199 322 q 258 123 199 176 q 422 69 317 69 z "},"Ǿ":{"ha":944,"x_min":13,"x_max":1007,"o":"m 574 1042 q 559 1047 564 1042 q 554 1058 554 1051 q 564 1079 554 1069 l 688 1197 q 713 1217 701 1211 q 744 1222 725 1222 l 808 1222 q 825 1217 819 1222 q 831 1203 831 1211 q 818 1179 831 1188 l 640 1056 q 619 1044 628 1047 q 594 1042 610 1042 l 574 1042 m 404 -14 q 107 253 107 -14 q 110 308 107 269 l 53 289 q 35 285 42 285 q 17 291 22 285 q 14 310 11 297 l 19 336 q 30 358 22 351 q 57 371 38 364 l 124 394 q 168 603 139 479 q 332 889 214 792 q 617 986 450 986 q 835 917 757 986 q 913 711 913 847 q 911 678 913 689 l 967 697 q 986 701 978 701 q 1007 676 1011 701 l 1001 650 q 990 628 997 635 q 963 615 982 622 l 900 593 q 853 369 881 483 q 404 -14 761 -14 m 819 644 q 821 685 821 658 q 762 849 821 796 q 599 903 703 903 q 384 827 475 903 q 254 596 293 751 l 244 557 q 217 429 228 488 l 819 644 m 422 69 q 638 145 547 69 q 767 376 729 221 q 807 560 793 488 l 201 342 q 199 288 199 322 q 258 123 199 176 q 422 69 317 69 z "},"Õ":{"ha":919,"x_min":74,"x_max":876,"o":"m 378 -14 q 154 56 235 -14 q 74 265 74 126 q 83 369 74 317 q 133 603 107 494 q 291 890 178 793 q 572 986 404 986 q 796 915 715 986 q 876 704 876 843 q 867 603 876 653 q 817 369 844 478 q 658 81 771 176 q 378 -14 544 -14 m 378 69 q 601 144 508 69 q 731 376 693 219 q 778 596 757 482 q 788 699 788 649 q 733 853 788 804 q 572 903 679 903 q 349 828 440 903 q 219 596 258 753 q 172 376 193 490 q 163 274 163 322 q 216 119 163 168 q 378 69 269 69 m 671 1035 q 631 1042 647 1035 q 592 1063 615 1049 q 569 1076 581 1069 q 546 1082 557 1082 q 519 1076 529 1082 q 500 1058 510 1069 q 488 1047 494 1051 q 472 1042 481 1042 l 444 1042 q 430 1049 435 1042 q 426 1064 425 1056 q 468 1138 432 1104 q 546 1172 504 1172 q 586 1165 569 1172 q 624 1144 603 1158 q 647 1131 635 1138 q 671 1125 658 1125 q 697 1131 689 1125 q 717 1149 706 1136 q 744 1167 729 1167 l 772 1167 q 787 1160 782 1167 q 790 1144 792 1154 q 748 1069 785 1104 q 671 1035 711 1035 z "},"Œ":{"ha":1246,"x_min":78,"x_max":1276,"o":"m 408 0 q 163 71 247 0 q 78 275 78 142 q 88 375 78 325 q 135 596 114 504 q 217 810 165 729 q 356 932 268 892 q 579 972 443 972 l 1249 972 q 1269 964 1263 972 q 1274 940 1276 956 l 1269 919 q 1256 897 1267 906 q 1232 889 1246 889 l 803 889 l 726 535 l 1125 535 q 1146 526 1139 535 q 1150 503 1153 518 l 1146 482 q 1133 460 1143 468 q 1108 451 1122 451 l 710 451 l 631 83 l 1071 83 q 1092 75 1085 83 q 1096 51 1099 67 l 1092 31 q 1078 8 1089 17 q 1054 0 1068 0 l 408 0 m 543 83 l 715 889 l 583 889 q 402 859 472 889 q 289 765 332 829 q 221 589 246 700 q 176 382 200 497 q 165 279 165 322 q 225 131 165 179 q 418 83 285 83 l 543 83 z "},"P":{"ha":874,"x_min":47,"x_max":885,"o":"m 75 0 q 54 8 61 0 q 50 31 47 17 l 243 940 q 256 963 246 954 q 281 972 267 972 l 611 972 q 814 918 743 972 q 885 761 885 864 q 876 685 885 726 q 750 471 846 544 q 504 397 654 397 l 215 397 l 138 31 q 124 8 135 17 q 100 0 114 0 l 75 0 m 497 481 q 690 534 613 481 q 789 685 768 588 q 799 760 799 733 q 754 858 799 826 q 601 889 710 889 l 321 889 l 233 481 l 497 481 z "},"Þ":{"ha":879,"x_min":47,"x_max":843,"o":"m 75 0 q 54 8 61 0 q 50 31 47 17 l 244 942 q 256 964 246 956 q 281 972 267 972 l 307 972 q 328 964 321 972 q 332 942 335 956 l 296 774 l 569 774 q 772 719 701 774 q 843 563 843 665 q 835 486 843 528 q 708 272 804 346 q 463 199 613 199 l 174 199 l 138 31 q 124 8 135 17 q 100 0 114 0 l 75 0 m 456 282 q 649 335 571 282 q 747 486 726 389 q 757 561 757 535 q 713 659 757 628 q 560 690 668 690 l 278 690 l 192 282 l 456 282 z "},"Q":{"ha":919,"x_min":92,"x_max":897,"o":"m 672 -90 q 652 -83 660 -90 q 640 -67 644 -75 q 635 -58 636 -60 l 592 26 q 389 -14 500 -14 q 92 253 92 -14 q 104 369 92 306 q 153 603 125 486 q 317 889 199 792 q 601 986 435 986 q 819 917 742 986 q 897 711 897 847 q 886 603 897 665 q 838 369 867 486 q 674 78 789 171 l 736 -47 q 738 -62 739 -53 q 724 -82 735 -74 q 703 -90 714 -90 l 672 -90 m 407 69 q 623 145 532 69 q 751 376 714 221 q 797 596 779 488 q 807 686 807 654 q 747 849 807 796 q 583 903 688 903 q 369 827 460 903 q 239 596 278 751 q 193 376 213 483 q 185 286 185 326 q 243 123 185 176 q 407 69 301 69 z "},"R":{"ha":889,"x_min":67,"x_max":892,"o":"m 93 0 q 73 8 79 0 q 69 31 67 17 l 263 940 q 276 963 265 954 q 300 972 286 972 l 624 972 q 822 920 751 972 q 892 767 892 868 q 883 692 892 732 q 791 515 860 582 q 617 424 722 447 l 760 43 q 760 28 761 36 q 748 8 758 17 q 726 0 738 0 l 710 0 q 681 9 689 0 q 665 38 672 18 l 524 411 l 238 411 l 157 31 q 143 8 154 17 q 118 0 132 0 l 93 0 m 515 494 q 796 692 754 494 q 803 747 803 724 q 599 889 803 889 l 339 889 l 256 494 l 515 494 z "},"Ŕ":{"ha":890,"x_min":68,"x_max":892,"o":"m 93 0 q 73 8 79 0 q 69 31 67 17 l 263 940 q 276 963 265 954 q 300 972 286 972 l 624 972 q 822 920 751 972 q 892 767 892 868 q 883 692 892 732 q 791 515 860 582 q 617 424 722 447 l 760 43 q 760 28 761 36 q 748 8 758 17 q 726 0 738 0 l 710 0 q 681 9 689 0 q 665 38 672 18 l 524 411 l 238 411 l 157 31 q 143 8 154 17 q 118 0 132 0 l 93 0 m 515 494 q 796 692 754 494 q 803 747 803 724 q 599 889 803 889 l 339 889 l 256 494 l 515 494 m 500 1042 q 485 1047 490 1042 q 481 1058 481 1051 q 490 1079 481 1069 l 614 1197 q 640 1217 628 1211 q 671 1222 651 1222 l 735 1222 q 751 1217 746 1222 q 757 1203 757 1211 q 744 1179 757 1188 l 567 1056 q 545 1044 554 1047 q 521 1042 536 1042 l 500 1042 z "},"Ř":{"ha":890,"x_min":68,"x_max":892,"o":"m 93 0 q 73 8 79 0 q 69 31 67 17 l 263 940 q 276 963 265 954 q 300 972 286 972 l 624 972 q 822 920 751 972 q 892 767 892 868 q 883 692 892 732 q 791 515 860 582 q 617 424 722 447 l 760 43 q 760 28 761 36 q 748 8 758 17 q 726 0 738 0 l 710 0 q 681 9 689 0 q 665 38 672 18 l 524 411 l 238 411 l 157 31 q 143 8 154 17 q 118 0 132 0 l 93 0 m 515 494 q 796 692 754 494 q 803 747 803 724 q 599 889 803 889 l 339 889 l 256 494 l 515 494 m 521 1042 q 499 1045 508 1042 q 481 1061 490 1049 l 379 1186 q 374 1201 374 1193 q 380 1216 374 1210 q 394 1222 386 1222 l 422 1222 q 446 1213 436 1222 l 536 1129 l 663 1213 q 672 1218 664 1214 q 689 1222 679 1222 l 736 1222 q 751 1208 751 1222 q 739 1188 751 1199 l 583 1061 q 558 1045 568 1049 q 535 1042 549 1042 l 521 1042 z "},"Ŗ":{"ha":890,"x_min":68,"x_max":892,"o":"m 93 0 q 73 8 79 0 q 69 31 67 17 l 263 940 q 276 963 265 954 q 300 972 286 972 l 624 972 q 822 920 751 972 q 892 767 892 868 q 883 692 892 732 q 791 515 860 582 q 617 424 722 447 l 760 43 q 760 28 761 36 q 748 8 758 17 q 726 0 738 0 l 710 0 q 681 9 689 0 q 665 38 672 18 l 524 411 l 238 411 l 157 31 q 143 8 154 17 q 118 0 132 0 l 93 0 m 515 494 q 796 692 754 494 q 803 747 803 724 q 599 889 803 889 l 339 889 l 256 494 l 515 494 m 250 -292 q 233 -275 233 -292 q 236 -262 233 -271 l 293 -107 q 336 -69 307 -69 l 399 -69 q 413 -76 408 -69 q 414 -92 417 -83 q 404 -117 411 -104 l 317 -262 q 298 -285 307 -278 q 275 -292 289 -292 l 250 -292 z "},"S":{"ha":836,"x_min":26,"x_max":814,"o":"m 339 -14 q 167 16 238 -14 q 62 97 97 46 q 26 211 26 149 q 28 236 26 228 q 37 256 29 249 q 57 264 44 264 l 90 264 q 115 236 115 264 q 135 156 113 194 q 208 94 157 118 q 339 69 260 69 q 550 118 471 69 q 647 251 629 167 q 651 283 651 268 q 623 353 651 325 q 543 404 594 382 q 389 463 492 426 q 213 553 267 504 q 158 682 158 603 q 165 747 158 718 q 283 921 189 856 q 526 986 376 986 q 685 955 621 986 q 782 875 750 924 q 814 774 814 826 q 811 743 814 763 q 782 715 806 715 l 749 715 q 731 722 739 715 q 724 743 722 728 q 674 858 731 813 q 526 903 618 903 q 342 860 418 903 q 249 736 267 818 q 244 700 244 715 q 270 630 244 658 q 344 578 296 601 q 486 524 393 556 q 679 428 619 478 q 739 299 739 379 q 732 240 739 275 q 603 51 706 115 q 339 -14 501 -14 z "},"Ś":{"ha":836,"x_min":26,"x_max":814,"o":"m 339 -14 q 167 16 238 -14 q 62 97 97 46 q 26 211 26 149 q 28 236 26 228 q 37 256 29 249 q 57 264 44 264 l 90 264 q 115 236 115 264 q 135 156 113 194 q 208 94 157 118 q 339 69 260 69 q 550 118 471 69 q 647 251 629 167 q 651 283 651 268 q 623 353 651 325 q 543 404 594 382 q 389 463 492 426 q 213 553 267 504 q 158 682 158 603 q 165 747 158 718 q 283 921 189 856 q 526 986 376 986 q 685 955 621 986 q 782 875 750 924 q 814 774 814 826 q 811 743 814 763 q 782 715 806 715 l 749 715 q 731 722 739 715 q 724 743 722 728 q 674 858 731 813 q 526 903 618 903 q 342 860 418 903 q 249 736 267 818 q 244 700 244 715 q 270 630 244 658 q 344 578 296 601 q 486 524 393 556 q 679 428 619 478 q 739 299 739 379 q 732 240 739 275 q 603 51 706 115 q 339 -14 501 -14 m 513 1042 q 498 1047 503 1042 q 493 1058 493 1051 q 503 1079 493 1069 l 626 1197 q 652 1217 640 1211 q 683 1222 664 1222 l 747 1222 q 764 1217 758 1222 q 769 1203 769 1211 q 757 1179 769 1188 l 579 1056 q 558 1044 567 1047 q 533 1042 549 1042 l 513 1042 z "},"Š":{"ha":836,"x_min":26,"x_max":814,"o":"m 339 -14 q 167 16 238 -14 q 62 97 97 46 q 26 211 26 149 q 28 236 26 228 q 37 256 29 249 q 57 264 44 264 l 90 264 q 115 236 115 264 q 135 156 113 194 q 208 94 157 118 q 339 69 260 69 q 550 118 471 69 q 647 251 629 167 q 651 283 651 268 q 623 353 651 325 q 543 404 594 382 q 389 463 492 426 q 213 553 267 504 q 158 682 158 603 q 165 747 158 718 q 283 921 189 856 q 526 986 376 986 q 685 955 621 986 q 782 875 750 924 q 814 774 814 826 q 811 743 814 763 q 782 715 806 715 l 749 715 q 731 722 739 715 q 724 743 722 728 q 674 858 731 813 q 526 903 618 903 q 342 860 418 903 q 249 736 267 818 q 244 700 244 715 q 270 630 244 658 q 344 578 296 601 q 486 524 393 556 q 679 428 619 478 q 739 299 739 379 q 732 240 739 275 q 603 51 706 115 q 339 -14 501 -14 m 531 1042 q 509 1045 518 1042 q 490 1061 500 1049 l 389 1186 q 383 1201 383 1193 q 390 1216 383 1210 q 404 1222 396 1222 l 432 1222 q 456 1213 446 1222 l 546 1129 l 672 1213 q 681 1218 674 1214 q 699 1222 689 1222 l 746 1222 q 761 1208 761 1222 q 749 1188 761 1199 l 593 1061 q 568 1045 578 1049 q 544 1042 558 1042 l 531 1042 z "},"Ş":{"ha":840,"x_min":46,"x_max":836,"o":"m 288 -306 q 211 -287 243 -306 q 179 -249 179 -268 q 186 -235 179 -240 l 210 -217 q 224 -211 217 -211 q 241 -220 229 -211 q 265 -235 253 -229 q 299 -242 276 -242 q 344 -226 324 -242 q 371 -186 365 -211 q 372 -175 372 -182 q 358 -144 372 -156 q 322 -133 344 -133 q 281 -140 303 -133 q 254 -147 260 -147 q 238 -139 243 -147 l 221 -115 q 218 -108 218 -110 q 226 -89 218 -100 q 236 -74 233 -78 l 278 -8 q 106 64 165 6 q 46 200 46 122 q 49 236 46 224 q 62 256 51 247 q 85 264 72 264 l 113 264 q 131 256 125 264 q 136 236 138 249 q 156 156 133 194 q 231 94 178 118 q 369 69 285 69 q 576 117 501 69 q 669 251 651 165 q 672 282 672 263 q 644 353 672 324 q 565 405 617 382 q 411 463 513 428 q 231 551 285 506 q 176 672 176 596 q 183 736 176 707 q 248 864 199 807 q 377 953 297 921 q 557 986 457 986 q 714 956 651 986 q 806 876 776 925 q 836 774 836 828 q 833 743 836 763 q 822 724 831 732 q 799 715 813 715 l 771 715 q 753 722 761 715 q 746 743 744 728 q 696 858 753 813 q 539 903 639 903 q 360 860 432 903 q 271 736 288 818 q 267 700 267 715 q 292 630 267 658 q 366 578 317 601 q 507 524 415 556 q 653 464 600 492 q 735 399 707 436 q 764 308 764 361 q 757 251 764 286 q 622 56 731 126 q 351 -14 514 -14 l 306 -81 q 361 -69 325 -69 q 422 -92 400 -69 q 444 -154 444 -115 q 401 -260 444 -215 q 288 -306 358 -306 z "},"Ŝ":{"ha":836,"x_min":26,"x_max":814,"o":"m 339 -14 q 167 16 238 -14 q 62 97 97 46 q 26 211 26 149 q 28 236 26 228 q 37 256 29 249 q 57 264 44 264 l 90 264 q 115 236 115 264 q 135 156 113 194 q 208 94 157 118 q 339 69 260 69 q 550 118 471 69 q 647 251 629 167 q 651 283 651 268 q 623 353 651 325 q 543 404 594 382 q 389 463 492 426 q 213 553 267 504 q 158 682 158 603 q 165 747 158 718 q 283 921 189 856 q 526 986 376 986 q 685 955 621 986 q 782 875 750 924 q 814 774 814 826 q 811 743 814 763 q 782 715 806 715 l 749 715 q 731 722 739 715 q 724 743 722 728 q 674 858 731 813 q 526 903 618 903 q 342 860 418 903 q 249 736 267 818 q 244 700 244 715 q 270 630 244 658 q 344 578 296 601 q 486 524 393 556 q 679 428 619 478 q 739 299 739 379 q 732 240 739 275 q 603 51 706 115 q 339 -14 501 -14 m 363 1042 q 347 1056 347 1042 q 360 1076 347 1067 l 515 1203 q 541 1219 531 1215 q 564 1222 551 1222 l 578 1222 q 600 1219 592 1222 q 618 1203 608 1215 l 719 1078 q 725 1063 725 1071 q 719 1048 725 1054 q 704 1042 713 1042 l 676 1042 q 653 1051 663 1042 l 563 1135 l 436 1051 q 427 1046 435 1050 q 410 1042 419 1042 l 363 1042 z "},"Ș":{"ha":836,"x_min":26,"x_max":814,"o":"m 339 -14 q 167 16 238 -14 q 62 97 97 46 q 26 211 26 149 q 28 236 26 228 q 37 256 29 249 q 57 264 44 264 l 90 264 q 115 236 115 264 q 135 156 113 194 q 208 94 157 118 q 339 69 260 69 q 550 118 471 69 q 647 251 629 167 q 651 283 651 268 q 623 353 651 325 q 543 404 594 382 q 389 463 492 426 q 213 553 267 504 q 158 682 158 603 q 165 747 158 718 q 283 921 189 856 q 526 986 376 986 q 685 955 621 986 q 782 875 750 924 q 814 774 814 826 q 811 743 814 763 q 782 715 806 715 l 749 715 q 731 722 739 715 q 724 743 722 728 q 674 858 731 813 q 526 903 618 903 q 342 860 418 903 q 249 736 267 818 q 244 700 244 715 q 270 630 244 658 q 344 578 296 601 q 486 524 393 556 q 679 428 619 478 q 739 299 739 379 q 732 240 739 275 q 603 51 706 115 q 339 -14 501 -14 m 193 -292 q 176 -275 176 -292 q 179 -262 176 -271 l 236 -107 q 279 -69 250 -69 l 342 -69 q 356 -76 351 -69 q 357 -92 360 -83 q 347 -117 354 -104 l 260 -262 q 241 -285 250 -278 q 218 -292 232 -292 l 193 -292 z "},"T":{"ha":765,"x_min":138,"x_max":846,"o":"m 282 0 q 261 8 268 0 q 257 31 254 17 l 440 889 l 165 889 q 144 897 151 889 q 140 919 138 906 l 144 940 q 158 963 147 954 q 182 972 168 972 l 818 972 q 839 964 832 972 q 843 940 846 956 l 839 919 q 826 897 836 906 q 801 889 815 889 l 528 889 l 344 31 q 331 8 342 17 q 307 0 321 0 l 282 0 z "},"Ŧ":{"ha":783,"x_min":146,"x_max":854,"o":"m 290 0 q 269 8 276 0 q 265 31 263 17 l 363 486 l 199 486 q 178 494 185 486 q 175 517 172 503 l 179 538 q 192 560 182 551 q 217 569 203 569 l 381 569 l 449 889 l 174 889 q 153 897 160 889 q 149 919 146 906 l 153 940 q 166 963 156 954 q 190 972 176 972 l 826 972 q 847 964 840 972 q 851 940 854 956 l 847 919 q 834 897 844 906 q 810 889 824 889 l 536 889 l 468 569 l 631 569 q 651 561 644 569 q 656 538 658 553 l 651 517 q 638 494 649 503 q 613 486 626 486 l 450 486 l 353 31 q 340 8 350 17 q 315 0 329 0 l 290 0 z "},"Ť":{"ha":765,"x_min":139,"x_max":844,"o":"m 282 0 q 261 8 268 0 q 257 31 254 17 l 440 889 l 165 889 q 144 897 151 889 q 140 919 138 906 l 144 940 q 158 963 147 954 q 182 972 168 972 l 818 972 q 839 964 832 972 q 843 940 846 956 l 839 919 q 826 897 836 906 q 801 889 815 889 l 528 889 l 344 31 q 331 8 342 17 q 307 0 321 0 l 282 0 m 507 1042 q 485 1045 494 1042 q 467 1061 476 1049 l 365 1186 q 360 1201 360 1193 q 366 1216 360 1210 q 381 1222 372 1222 l 408 1222 q 432 1213 422 1222 l 522 1129 l 649 1213 q 658 1218 650 1214 q 675 1222 665 1222 l 722 1222 q 738 1208 738 1222 q 725 1188 738 1199 l 569 1061 q 544 1045 554 1049 q 521 1042 535 1042 l 507 1042 z "},"Ț":{"ha":765,"x_min":139,"x_max":844,"o":"m 282 0 q 261 8 268 0 q 257 31 254 17 l 440 889 l 165 889 q 144 897 151 889 q 140 919 138 906 l 144 940 q 158 963 147 954 q 182 972 168 972 l 818 972 q 839 964 832 972 q 843 940 846 956 l 839 919 q 826 897 836 906 q 801 889 815 889 l 528 889 l 344 31 q 331 8 342 17 q 307 0 321 0 l 282 0 m 163 -292 q 146 -275 146 -292 q 149 -262 146 -271 l 206 -107 q 249 -69 219 -69 l 311 -69 q 325 -76 321 -69 q 326 -92 329 -83 q 317 -117 324 -104 l 229 -262 q 210 -285 219 -278 q 188 -292 201 -292 l 163 -292 z "},"U":{"ha":960,"x_min":100,"x_max":953,"o":"m 397 -14 q 175 49 250 -14 q 100 243 100 113 q 115 376 100 308 l 235 940 q 248 963 238 954 q 272 972 258 972 l 297 972 q 318 964 311 972 q 322 940 325 956 l 201 372 q 186 251 186 300 q 237 113 186 157 q 397 69 288 69 q 742 372 676 69 l 863 940 q 876 963 865 954 q 901 972 886 972 l 926 972 q 947 963 940 972 q 950 940 953 954 l 831 376 q 683 81 788 175 q 397 -14 578 -14 z "},"Ú":{"ha":960,"x_min":100,"x_max":951,"o":"m 397 -14 q 175 49 250 -14 q 100 243 100 113 q 115 376 100 308 l 235 940 q 248 963 238 954 q 272 972 258 972 l 297 972 q 318 964 311 972 q 322 940 325 956 l 201 372 q 186 251 186 300 q 237 113 186 157 q 397 69 288 69 q 742 372 676 69 l 863 940 q 876 963 865 954 q 901 972 886 972 l 926 972 q 947 963 940 972 q 950 940 953 954 l 831 376 q 683 81 788 175 q 397 -14 578 -14 m 574 1042 q 559 1047 564 1042 q 554 1058 554 1051 q 564 1079 554 1069 l 688 1197 q 713 1217 701 1211 q 744 1222 725 1222 l 808 1222 q 825 1217 819 1222 q 831 1203 831 1211 q 818 1179 831 1188 l 640 1056 q 619 1044 628 1047 q 594 1042 610 1042 l 574 1042 z "},"Ŭ":{"ha":960,"x_min":100,"x_max":951,"o":"m 397 -14 q 175 49 250 -14 q 100 243 100 113 q 115 376 100 308 l 235 940 q 248 963 238 954 q 272 972 258 972 l 297 972 q 318 964 311 972 q 322 940 325 956 l 201 372 q 186 251 186 300 q 237 113 186 157 q 397 69 288 69 q 742 372 676 69 l 863 940 q 876 963 865 954 q 901 972 886 972 l 926 972 q 947 963 940 972 q 950 940 953 954 l 831 376 q 683 81 788 175 q 397 -14 578 -14 m 599 1028 q 494 1063 529 1028 q 460 1153 460 1099 q 464 1189 460 1171 q 475 1208 467 1200 q 496 1215 483 1215 l 517 1215 q 535 1208 529 1215 q 538 1189 540 1200 q 535 1163 535 1172 q 601 1097 535 1097 q 672 1124 646 1097 q 710 1189 699 1150 q 721 1208 713 1200 q 742 1215 729 1215 l 763 1215 q 781 1208 775 1215 q 783 1189 786 1200 q 599 1028 750 1028 z "},"Û":{"ha":960,"x_min":100,"x_max":951,"o":"m 397 -14 q 175 49 250 -14 q 100 243 100 113 q 115 376 100 308 l 235 940 q 248 963 238 954 q 272 972 258 972 l 297 972 q 318 964 311 972 q 322 940 325 956 l 201 372 q 186 251 186 300 q 237 113 186 157 q 397 69 288 69 q 742 372 676 69 l 863 940 q 876 963 865 954 q 901 972 886 972 l 926 972 q 947 963 940 972 q 950 940 953 954 l 831 376 q 683 81 788 175 q 397 -14 578 -14 m 419 1042 q 404 1056 404 1042 q 417 1076 404 1067 l 572 1203 q 598 1219 588 1215 q 621 1222 608 1222 l 635 1222 q 657 1219 649 1222 q 675 1203 665 1215 l 776 1078 q 782 1063 782 1071 q 776 1048 782 1054 q 761 1042 769 1042 l 733 1042 q 710 1051 719 1042 l 619 1135 l 493 1051 q 484 1046 492 1050 q 467 1042 476 1042 l 419 1042 z "},"Ü":{"ha":960,"x_min":100,"x_max":951,"o":"m 397 -14 q 175 49 250 -14 q 100 243 100 113 q 115 376 100 308 l 235 940 q 248 963 238 954 q 272 972 258 972 l 297 972 q 318 964 311 972 q 322 940 325 956 l 201 372 q 186 251 186 300 q 237 113 186 157 q 397 69 288 69 q 742 372 676 69 l 863 940 q 876 963 865 954 q 901 972 886 972 l 926 972 q 947 963 940 972 q 950 940 953 954 l 831 376 q 683 81 788 175 q 397 -14 578 -14 m 444 1042 q 424 1050 431 1042 q 421 1072 418 1058 l 432 1125 q 445 1148 435 1139 q 469 1157 456 1157 l 522 1157 q 543 1148 536 1157 q 547 1125 550 1139 l 536 1072 q 522 1050 533 1058 q 497 1042 511 1042 l 444 1042 m 699 1042 q 678 1050 685 1042 q 675 1072 672 1058 l 686 1125 q 699 1148 689 1139 q 724 1157 710 1157 l 776 1157 q 797 1148 790 1157 q 801 1125 804 1139 l 790 1072 q 776 1050 788 1058 q 751 1042 765 1042 l 699 1042 z "},"Ù":{"ha":960,"x_min":100,"x_max":951,"o":"m 397 -14 q 175 49 250 -14 q 100 243 100 113 q 115 376 100 308 l 235 940 q 248 963 238 954 q 272 972 258 972 l 297 972 q 318 964 311 972 q 322 940 325 956 l 201 372 q 186 251 186 300 q 237 113 186 157 q 397 69 288 69 q 742 372 676 69 l 863 940 q 876 963 865 954 q 901 972 886 972 l 926 972 q 947 963 940 972 q 950 940 953 954 l 831 376 q 683 81 788 175 q 397 -14 578 -14 m 603 1042 q 579 1044 588 1042 q 563 1056 571 1047 l 442 1175 q 435 1193 435 1182 q 444 1213 435 1204 q 467 1222 453 1222 l 531 1222 q 558 1217 550 1222 q 576 1197 565 1213 l 647 1082 q 650 1068 650 1074 q 642 1049 650 1057 q 624 1042 635 1042 l 603 1042 z "},"Ű":{"ha":960,"x_min":100,"x_max":951,"o":"m 397 -14 q 175 49 250 -14 q 100 243 100 113 q 115 376 100 308 l 235 940 q 248 963 238 954 q 272 972 258 972 l 297 972 q 318 964 311 972 q 322 940 325 956 l 201 372 q 186 251 186 300 q 237 113 186 157 q 397 69 288 69 q 742 372 676 69 l 863 940 q 876 963 865 954 q 901 972 886 972 l 926 972 q 947 963 940 972 q 950 940 953 954 l 831 376 q 683 81 788 175 q 397 -14 578 -14 m 467 1042 q 447 1057 447 1042 q 454 1075 447 1065 l 535 1196 q 592 1222 551 1222 l 647 1222 q 669 1203 669 1222 q 660 1181 669 1190 l 533 1061 q 488 1042 511 1042 l 467 1042 m 672 1042 q 653 1057 653 1042 q 660 1075 653 1065 l 740 1196 q 797 1222 757 1222 l 853 1222 q 875 1203 875 1222 q 865 1181 875 1190 l 739 1061 q 693 1042 717 1042 l 672 1042 z "},"Ū":{"ha":960,"x_min":100,"x_max":951,"o":"m 397 -14 q 175 49 250 -14 q 100 243 100 113 q 115 376 100 308 l 235 940 q 248 963 238 954 q 272 972 258 972 l 297 972 q 318 964 311 972 q 322 940 325 956 l 201 372 q 186 251 186 300 q 237 113 186 157 q 397 69 288 69 q 742 372 676 69 l 863 940 q 876 963 865 954 q 901 972 886 972 l 926 972 q 947 963 940 972 q 950 940 953 954 l 831 376 q 683 81 788 175 q 397 -14 578 -14 m 468 1042 q 448 1050 454 1042 q 444 1072 442 1058 l 450 1103 q 463 1125 451 1117 q 488 1133 474 1133 l 764 1133 q 784 1125 778 1133 q 788 1103 790 1117 l 782 1072 q 769 1050 781 1058 q 744 1042 758 1042 l 468 1042 z "},"Ų":{"ha":961,"x_min":100,"x_max":953,"o":"m 433 -306 q 317 -263 364 -306 q 269 -150 269 -221 q 318 -8 269 -69 q 154 69 208 7 q 100 243 100 131 q 115 376 100 308 l 235 940 q 248 963 238 954 q 272 972 258 972 l 297 972 q 318 964 311 972 q 322 940 325 956 l 201 372 q 186 251 186 300 q 237 113 186 157 q 397 69 288 69 q 742 372 676 69 l 863 940 q 876 963 865 954 q 901 972 886 972 l 926 972 q 947 963 940 972 q 950 940 953 954 l 831 376 q 701 92 799 185 q 465 -10 604 -1 q 397 -40 428 -12 q 356 -114 365 -68 q 353 -140 353 -133 q 377 -203 353 -179 q 433 -226 401 -226 l 458 -226 q 478 -235 472 -226 q 482 -257 485 -243 l 475 -282 q 464 -301 471 -296 q 442 -306 457 -306 l 433 -306 z "},"Ů":{"ha":960,"x_min":100,"x_max":951,"o":"m 397 -14 q 175 49 250 -14 q 100 243 100 113 q 115 376 100 308 l 235 940 q 248 963 238 954 q 272 972 258 972 l 297 972 q 318 964 311 972 q 322 940 325 956 l 201 372 q 186 251 186 300 q 237 113 186 157 q 397 69 288 69 q 742 372 676 69 l 863 940 q 876 963 865 954 q 901 972 886 972 l 926 972 q 947 963 940 972 q 950 940 953 954 l 831 376 q 683 81 788 175 q 397 -14 578 -14 m 603 1028 q 535 1051 563 1028 q 507 1111 507 1075 q 510 1132 507 1118 q 556 1207 519 1178 q 639 1236 593 1236 q 708 1213 681 1236 q 735 1153 735 1190 q 732 1132 735 1146 q 685 1057 722 1086 q 603 1028 649 1028 m 607 1090 q 648 1106 632 1090 q 664 1144 664 1122 q 633 1174 664 1174 q 594 1158 610 1174 q 578 1121 578 1143 q 585 1099 578 1107 q 607 1090 593 1090 z "},"Ũ":{"ha":960,"x_min":100,"x_max":951,"o":"m 397 -14 q 175 49 250 -14 q 100 243 100 113 q 115 376 100 308 l 235 940 q 248 963 238 954 q 272 972 258 972 l 297 972 q 318 964 311 972 q 322 940 325 956 l 201 372 q 186 251 186 300 q 237 113 186 157 q 397 69 288 69 q 742 372 676 69 l 863 940 q 876 963 865 954 q 901 972 886 972 l 926 972 q 947 963 940 972 q 950 940 953 954 l 831 376 q 683 81 788 175 q 397 -14 578 -14 m 683 1035 q 644 1042 660 1035 q 604 1063 628 1049 q 581 1076 593 1069 q 558 1082 569 1082 q 532 1076 542 1082 q 513 1058 522 1069 q 500 1047 507 1051 q 485 1042 493 1042 l 457 1042 q 442 1049 447 1042 q 439 1064 438 1056 q 481 1138 444 1104 q 558 1172 517 1172 q 599 1165 582 1172 q 636 1144 615 1158 q 659 1131 647 1138 q 683 1125 671 1125 q 710 1131 701 1125 q 729 1149 718 1136 q 757 1167 742 1167 l 785 1167 q 799 1160 794 1167 q 803 1144 804 1154 q 760 1069 797 1104 q 683 1035 724 1035 z "},"V":{"ha":888,"x_min":163,"x_max":949,"o":"m 335 0 q 294 33 299 0 l 163 939 l 163 944 q 170 965 163 958 q 190 972 178 972 l 221 972 q 247 951 244 972 l 371 101 l 856 951 q 885 972 867 972 l 926 972 q 943 965 938 972 q 949 949 949 958 q 943 928 949 938 l 432 33 q 408 8 421 17 q 378 0 396 0 l 335 0 z "},"W":{"ha":1078,"x_min":171,"x_max":1135,"o":"m 203 0 q 178 8 186 0 q 171 33 171 15 l 171 944 q 179 965 171 957 q 200 972 188 972 l 226 972 q 247 964 239 972 q 254 944 254 956 l 254 175 l 542 725 q 592 757 558 757 l 621 757 q 657 725 654 757 l 715 161 l 1046 951 q 1081 972 1054 972 l 1111 972 q 1135 954 1135 972 q 1131 936 1135 947 l 753 33 q 734 8 744 15 q 707 0 724 0 l 678 0 q 642 33 644 0 l 582 617 l 278 33 q 228 0 260 0 l 203 0 z "},"Ẃ":{"ha":1078,"x_min":171,"x_max":1135,"o":"m 203 0 q 178 8 186 0 q 171 33 171 15 l 171 944 q 179 965 171 957 q 200 972 188 972 l 226 972 q 247 964 239 972 q 254 944 254 956 l 254 175 l 542 725 q 592 757 558 757 l 621 757 q 657 725 654 757 l 715 161 l 1046 951 q 1081 972 1054 972 l 1111 972 q 1135 954 1135 972 q 1131 936 1135 947 l 753 33 q 734 8 744 15 q 707 0 724 0 l 678 0 q 642 33 644 0 l 582 617 l 278 33 q 228 0 260 0 l 203 0 m 629 1042 q 615 1047 619 1042 q 610 1058 610 1051 q 619 1079 610 1069 l 743 1197 q 769 1217 757 1211 q 800 1222 781 1222 l 864 1222 q 881 1217 875 1222 q 886 1203 886 1211 q 874 1179 886 1188 l 696 1056 q 674 1044 683 1047 q 650 1042 665 1042 l 629 1042 z "},"Ŵ":{"ha":1090,"x_min":171,"x_max":1135,"o":"m 203 0 q 178 8 186 0 q 171 33 171 15 l 171 944 q 179 965 171 957 q 200 972 188 972 l 226 972 q 247 964 239 972 q 254 944 254 956 l 254 175 l 542 725 q 592 757 558 757 l 621 757 q 657 725 654 757 l 715 161 l 1046 951 q 1081 972 1054 972 l 1111 972 q 1135 954 1135 972 q 1131 936 1135 947 l 753 33 q 734 8 744 15 q 707 0 724 0 l 678 0 q 642 33 644 0 l 582 617 l 278 33 q 228 0 260 0 l 203 0 m 474 1042 q 458 1056 458 1042 q 471 1076 458 1067 l 626 1203 q 652 1219 642 1215 q 675 1222 663 1222 l 689 1222 q 711 1219 703 1222 q 729 1203 719 1215 l 831 1078 q 836 1063 836 1071 q 830 1048 836 1054 q 815 1042 824 1042 l 788 1042 q 764 1051 774 1042 l 674 1135 l 547 1051 q 538 1046 546 1050 q 521 1042 531 1042 l 474 1042 z "},"Ẅ":{"ha":1090,"x_min":171,"x_max":1135,"o":"m 203 0 q 178 8 186 0 q 171 33 171 15 l 171 944 q 179 965 171 957 q 200 972 188 972 l 226 972 q 247 964 239 972 q 254 944 254 956 l 254 175 l 542 725 q 592 757 558 757 l 621 757 q 657 725 654 757 l 715 161 l 1046 951 q 1081 972 1054 972 l 1111 972 q 1135 954 1135 972 q 1131 936 1135 947 l 753 33 q 734 8 744 15 q 707 0 724 0 l 678 0 q 642 33 644 0 l 582 617 l 278 33 q 228 0 260 0 l 203 0 m 500 1042 q 480 1050 486 1042 q 476 1072 474 1058 l 488 1125 q 501 1148 490 1139 q 525 1157 511 1157 l 578 1157 q 599 1148 592 1157 q 603 1125 606 1139 l 592 1072 q 578 1050 589 1058 q 553 1042 567 1042 l 500 1042 m 754 1042 q 734 1050 740 1042 q 731 1072 728 1058 l 742 1125 q 755 1148 744 1139 q 779 1157 765 1157 l 832 1157 q 853 1148 846 1157 q 857 1125 860 1139 l 846 1072 q 832 1050 843 1058 q 807 1042 821 1042 l 754 1042 z "},"Ẁ":{"ha":1090,"x_min":171,"x_max":1135,"o":"m 203 0 q 178 8 186 0 q 171 33 171 15 l 171 944 q 179 965 171 957 q 200 972 188 972 l 226 972 q 247 964 239 972 q 254 944 254 956 l 254 175 l 542 725 q 592 757 558 757 l 621 757 q 657 725 654 757 l 715 161 l 1046 951 q 1081 972 1054 972 l 1111 972 q 1135 954 1135 972 q 1131 936 1135 947 l 753 33 q 734 8 744 15 q 707 0 724 0 l 678 0 q 642 33 644 0 l 582 617 l 278 33 q 228 0 260 0 l 203 0 m 657 1042 q 633 1044 642 1042 q 617 1056 625 1047 l 496 1175 q 489 1193 489 1182 q 498 1213 489 1204 q 521 1222 507 1222 l 585 1222 q 612 1217 604 1222 q 631 1197 619 1213 l 701 1082 q 704 1068 704 1074 q 697 1049 704 1057 q 678 1042 689 1042 l 657 1042 z "},"X":{"ha":847,"x_min":-42,"x_max":908,"o":"m -14 0 q -33 8 -25 0 q -42 28 -42 17 q -35 46 -42 39 l 389 500 l 172 929 q 168 944 168 938 q 176 964 168 956 q 196 972 185 972 l 218 972 q 245 967 238 972 q 257 951 253 961 l 454 563 l 810 951 q 817 959 811 953 q 832 969 822 965 q 857 972 842 972 l 881 972 q 900 964 892 972 q 908 944 908 956 q 901 926 908 933 l 494 482 l 721 40 q 724 28 724 32 q 715 8 724 17 q 696 0 707 0 l 674 0 q 647 6 656 0 q 635 21 639 11 l 431 419 l 57 21 q 50 13 56 19 q 35 3 44 7 q 11 0 25 0 l -14 0 z "},"Y":{"ha":874,"x_min":158,"x_max":940,"o":"m 336 0 q 315 8 322 0 q 311 31 308 17 l 382 371 l 161 926 q 158 938 158 935 q 168 962 158 951 q 193 972 178 972 l 217 972 q 244 951 236 972 l 438 465 l 836 951 q 872 972 853 972 l 915 972 q 940 954 940 972 q 928 926 940 942 l 471 371 l 397 31 q 384 8 394 17 q 360 0 374 0 l 336 0 z "},"Ý":{"ha":874,"x_min":158,"x_max":940,"o":"m 336 0 q 315 8 322 0 q 311 31 308 17 l 382 371 l 161 926 q 158 938 158 935 q 168 962 158 951 q 193 972 178 972 l 217 972 q 244 951 236 972 l 438 465 l 836 951 q 872 972 853 972 l 915 972 q 940 954 940 972 q 928 926 940 942 l 471 371 l 397 31 q 384 8 394 17 q 360 0 374 0 l 336 0 m 510 1042 q 495 1047 500 1042 q 490 1058 490 1051 q 500 1079 490 1069 l 624 1197 q 649 1217 638 1211 q 681 1222 661 1222 l 744 1222 q 761 1217 756 1222 q 767 1203 767 1211 q 754 1179 767 1188 l 576 1056 q 555 1044 564 1047 q 531 1042 546 1042 l 510 1042 z "},"Ŷ":{"ha":874,"x_min":158,"x_max":940,"o":"m 336 0 q 315 8 322 0 q 311 31 308 17 l 382 371 l 161 926 q 158 938 158 935 q 168 962 158 951 q 193 972 178 972 l 217 972 q 244 951 236 972 l 438 465 l 836 951 q 872 972 853 972 l 915 972 q 940 954 940 972 q 928 926 940 942 l 471 371 l 397 31 q 384 8 394 17 q 360 0 374 0 l 336 0 m 363 1042 q 347 1056 347 1042 q 360 1076 347 1067 l 515 1203 q 541 1219 531 1215 q 564 1222 551 1222 l 578 1222 q 600 1219 592 1222 q 618 1203 608 1215 l 719 1078 q 725 1063 725 1071 q 719 1048 725 1054 q 704 1042 713 1042 l 676 1042 q 653 1051 663 1042 l 563 1135 l 436 1051 q 427 1046 435 1050 q 410 1042 419 1042 l 363 1042 z "},"Ÿ":{"ha":874,"x_min":158,"x_max":940,"o":"m 336 0 q 315 8 322 0 q 311 31 308 17 l 382 371 l 161 926 q 158 938 158 935 q 168 962 158 951 q 193 972 178 972 l 217 972 q 244 951 236 972 l 438 465 l 836 951 q 872 972 853 972 l 915 972 q 940 954 940 972 q 928 926 940 942 l 471 371 l 397 31 q 384 8 394 17 q 360 0 374 0 l 336 0 m 390 1042 q 370 1050 376 1042 q 367 1072 364 1058 l 378 1125 q 391 1148 381 1139 q 415 1157 401 1157 l 468 1157 q 489 1148 482 1157 q 493 1125 496 1139 l 482 1072 q 468 1050 479 1058 q 443 1042 457 1042 l 390 1042 m 644 1042 q 624 1050 631 1042 q 621 1072 618 1058 l 632 1125 q 645 1148 635 1139 q 669 1157 656 1157 l 722 1157 q 743 1148 736 1157 q 747 1125 750 1139 l 736 1072 q 722 1050 733 1058 q 697 1042 711 1042 l 644 1042 z "},"Ỳ":{"ha":874,"x_min":158,"x_max":940,"o":"m 336 0 q 315 8 322 0 q 311 31 308 17 l 382 371 l 161 926 q 158 938 158 935 q 168 962 158 951 q 193 972 178 972 l 217 972 q 244 951 236 972 l 438 465 l 836 951 q 872 972 853 972 l 915 972 q 940 954 940 972 q 928 926 940 942 l 471 371 l 397 31 q 384 8 394 17 q 360 0 374 0 l 336 0 m 560 1042 q 536 1044 544 1042 q 519 1056 528 1047 l 399 1175 q 392 1193 392 1182 q 401 1213 392 1204 q 424 1222 410 1222 l 488 1222 q 515 1217 507 1222 q 533 1197 522 1213 l 604 1082 q 607 1068 607 1074 q 599 1049 607 1057 q 581 1042 592 1042 l 560 1042 z "},"Z":{"ha":797,"x_min":-28,"x_max":844,"o":"m 0 0 q -21 9 -14 0 q -25 32 -28 18 l -18 60 q -6 89 -14 78 q 13 111 1 100 l 715 889 l 201 889 q 181 897 188 889 q 176 919 174 906 l 181 940 q 194 963 183 954 q 218 972 204 972 l 817 972 q 838 964 831 972 q 842 940 844 956 l 836 913 q 826 888 833 897 q 807 863 819 878 l 103 83 l 642 83 q 663 75 656 83 q 667 51 669 67 l 663 31 q 649 8 660 17 q 625 0 639 0 l 0 0 z "},"Ź":{"ha":797,"x_min":-26,"x_max":843,"o":"m 0 0 q -21 9 -14 0 q -25 32 -28 18 l -18 60 q -6 89 -14 78 q 13 111 1 100 l 715 889 l 201 889 q 181 897 188 889 q 176 919 174 906 l 181 940 q 194 963 183 954 q 218 972 204 972 l 817 972 q 838 964 831 972 q 842 940 844 956 l 836 913 q 826 888 833 897 q 807 863 819 878 l 103 83 l 642 83 q 663 75 656 83 q 667 51 669 67 l 663 31 q 649 8 660 17 q 625 0 639 0 l 0 0 m 507 1042 q 492 1047 497 1042 q 488 1058 488 1051 q 497 1079 488 1069 l 621 1197 q 647 1217 635 1211 q 678 1222 658 1222 l 742 1222 q 758 1217 753 1222 q 764 1203 764 1211 q 751 1179 764 1188 l 574 1056 q 552 1044 561 1047 q 528 1042 543 1042 l 507 1042 z "},"Ž":{"ha":797,"x_min":-26,"x_max":843,"o":"m 0 0 q -21 9 -14 0 q -25 32 -28 18 l -18 60 q -6 89 -14 78 q 13 111 1 100 l 715 889 l 201 889 q 181 897 188 889 q 176 919 174 906 l 181 940 q 194 963 183 954 q 218 972 204 972 l 817 972 q 838 964 831 972 q 842 940 844 956 l 836 913 q 826 888 833 897 q 807 863 819 878 l 103 83 l 642 83 q 663 75 656 83 q 667 51 669 67 l 663 31 q 649 8 660 17 q 625 0 639 0 l 0 0 m 531 1042 q 509 1045 518 1042 q 490 1061 500 1049 l 389 1186 q 383 1201 383 1193 q 390 1216 383 1210 q 404 1222 396 1222 l 432 1222 q 456 1213 446 1222 l 546 1129 l 672 1213 q 681 1218 674 1214 q 699 1222 689 1222 l 746 1222 q 761 1208 761 1222 q 749 1188 761 1199 l 593 1061 q 568 1045 578 1049 q 544 1042 558 1042 l 531 1042 z "},"Ż":{"ha":797,"x_min":-26,"x_max":843,"o":"m 0 0 q -21 9 -14 0 q -25 32 -28 18 l -18 60 q -6 89 -14 78 q 13 111 1 100 l 715 889 l 201 889 q 181 897 188 889 q 176 919 174 906 l 181 940 q 194 963 183 954 q 218 972 204 972 l 817 972 q 838 964 831 972 q 842 940 844 956 l 836 913 q 826 888 833 897 q 807 863 819 878 l 103 83 l 642 83 q 663 75 656 83 q 667 51 669 67 l 663 31 q 649 8 660 17 q 625 0 639 0 l 0 0 m 496 1042 q 476 1050 482 1042 q 472 1072 469 1058 l 486 1139 q 499 1162 489 1153 q 524 1171 510 1171 l 590 1171 q 611 1162 604 1171 q 615 1139 618 1153 l 601 1072 q 588 1050 599 1058 q 563 1042 576 1042 l 496 1042 z "},"a":{"ha":790,"x_min":50,"x_max":739,"o":"m 288 -14 q 106 58 163 -14 q 50 240 50 129 q 57 322 50 276 q 74 400 61 350 q 431 736 161 736 q 563 707 515 736 q 638 626 610 678 l 651 692 q 664 714 654 706 q 688 722 674 722 l 711 722 q 732 714 725 722 q 736 692 739 706 l 596 31 q 583 8 593 17 q 560 0 574 0 l 536 0 q 515 8 522 0 q 511 31 508 17 l 525 96 q 422 13 474 40 q 288 -14 371 -14 m 288 67 q 422 103 363 67 q 518 194 481 139 q 571 311 556 250 q 594 419 581 350 q 600 481 600 446 q 560 606 600 557 q 431 656 519 656 q 259 584 325 656 q 160 400 193 513 q 143 322 150 367 q 136 235 136 271 q 288 67 136 67 z "},"á":{"ha":790,"x_min":50,"x_max":738,"o":"m 288 -14 q 106 58 163 -14 q 50 240 50 129 q 57 322 50 276 q 74 400 61 350 q 431 736 161 736 q 563 707 515 736 q 638 626 610 678 l 651 692 q 664 714 654 706 q 688 722 674 722 l 711 722 q 732 714 725 722 q 736 692 739 706 l 596 31 q 583 8 593 17 q 560 0 574 0 l 536 0 q 515 8 522 0 q 511 31 508 17 l 525 96 q 422 13 474 40 q 288 -14 371 -14 m 288 67 q 422 103 363 67 q 518 194 481 139 q 571 311 556 250 q 594 419 581 350 q 600 481 600 446 q 560 606 600 557 q 431 656 519 656 q 259 584 325 656 q 160 400 193 513 q 143 322 150 367 q 136 235 136 271 q 288 67 136 67 m 432 826 q 417 833 422 826 q 415 849 413 839 q 426 867 418 858 l 547 982 q 574 1002 563 997 q 604 1007 585 1007 l 661 1007 q 676 1001 671 1007 q 682 986 682 994 q 671 964 682 971 l 493 840 q 472 829 481 832 q 447 826 463 826 l 432 826 z "},"ă":{"ha":790,"x_min":50,"x_max":738,"o":"m 288 -14 q 106 58 163 -14 q 50 240 50 129 q 57 322 50 276 q 74 400 61 350 q 431 736 161 736 q 563 707 515 736 q 638 626 610 678 l 651 692 q 664 714 654 706 q 688 722 674 722 l 711 722 q 732 714 725 722 q 736 692 739 706 l 596 31 q 583 8 593 17 q 560 0 574 0 l 536 0 q 515 8 522 0 q 511 31 508 17 l 525 96 q 422 13 474 40 q 288 -14 371 -14 m 288 67 q 422 103 363 67 q 518 194 481 139 q 571 311 556 250 q 594 419 581 350 q 600 481 600 446 q 560 606 600 557 q 431 656 519 656 q 259 584 325 656 q 160 400 193 513 q 143 322 150 367 q 136 235 136 271 q 288 67 136 67 m 465 821 q 365 855 397 821 q 333 942 333 889 q 338 982 333 961 q 349 1001 340 993 q 369 1008 357 1008 l 390 1008 q 408 1001 403 1008 q 411 982 414 993 q 407 947 407 965 q 468 890 407 890 q 569 982 543 890 q 581 1001 572 993 q 601 1008 589 1008 l 622 1008 q 640 1001 635 1008 q 643 982 646 993 q 588 865 628 910 q 465 821 549 821 z "},"â":{"ha":790,"x_min":50,"x_max":738,"o":"m 288 -14 q 106 58 163 -14 q 50 240 50 129 q 57 322 50 276 q 74 400 61 350 q 431 736 161 736 q 563 707 515 736 q 638 626 610 678 l 651 692 q 664 714 654 706 q 688 722 674 722 l 711 722 q 732 714 725 722 q 736 692 739 706 l 596 31 q 583 8 593 17 q 560 0 574 0 l 536 0 q 515 8 522 0 q 511 31 508 17 l 525 96 q 422 13 474 40 q 288 -14 371 -14 m 288 67 q 422 103 363 67 q 518 194 481 139 q 571 311 556 250 q 594 419 581 350 q 600 481 600 446 q 560 606 600 557 q 431 656 519 656 q 259 584 325 656 q 160 400 193 513 q 143 322 150 367 q 136 235 136 271 q 288 67 136 67 m 283 826 q 268 840 268 826 q 281 861 268 851 l 436 988 q 462 1003 451 1000 q 485 1007 472 1007 l 499 1007 q 520 1003 511 1007 q 539 988 529 1000 l 640 863 q 646 847 646 856 q 640 833 646 839 q 625 826 633 826 l 597 826 q 574 836 583 826 l 483 919 l 357 836 q 348 831 356 835 q 331 826 340 826 l 283 826 z "},"ä":{"ha":790,"x_min":50,"x_max":738,"o":"m 288 -14 q 106 58 163 -14 q 50 240 50 129 q 57 322 50 276 q 74 400 61 350 q 431 736 161 736 q 563 707 515 736 q 638 626 610 678 l 651 692 q 664 714 654 706 q 688 722 674 722 l 711 722 q 732 714 725 722 q 736 692 739 706 l 596 31 q 583 8 593 17 q 560 0 574 0 l 536 0 q 515 8 522 0 q 511 31 508 17 l 525 96 q 422 13 474 40 q 288 -14 371 -14 m 288 67 q 422 103 363 67 q 518 194 481 139 q 571 311 556 250 q 594 419 581 350 q 600 481 600 446 q 560 606 600 557 q 431 656 519 656 q 259 584 325 656 q 160 400 193 513 q 143 322 150 367 q 136 235 136 271 q 288 67 136 67 m 338 871 q 317 879 324 871 q 313 901 310 888 l 325 954 q 338 977 328 968 q 361 986 347 986 l 414 986 q 435 977 428 986 q 440 954 443 968 l 428 901 q 415 879 425 888 q 390 871 404 871 l 338 871 m 550 871 q 529 879 536 871 q 525 901 522 888 l 538 954 q 550 977 540 968 q 574 986 560 986 l 626 986 q 648 977 640 986 q 653 954 656 968 l 640 901 q 627 879 638 888 q 603 871 617 871 l 550 871 z "},"à":{"ha":790,"x_min":50,"x_max":738,"o":"m 288 -14 q 106 58 163 -14 q 50 240 50 129 q 57 322 50 276 q 74 400 61 350 q 431 736 161 736 q 563 707 515 736 q 638 626 610 678 l 651 692 q 664 714 654 706 q 688 722 674 722 l 711 722 q 732 714 725 722 q 736 692 739 706 l 596 31 q 583 8 593 17 q 560 0 574 0 l 536 0 q 515 8 522 0 q 511 31 508 17 l 525 96 q 422 13 474 40 q 288 -14 371 -14 m 288 67 q 422 103 363 67 q 518 194 481 139 q 571 311 556 250 q 594 419 581 350 q 600 481 600 446 q 560 606 600 557 q 431 656 519 656 q 259 584 325 656 q 160 400 193 513 q 143 322 150 367 q 136 235 136 271 q 288 67 136 67 m 471 826 q 447 829 456 826 q 431 840 439 832 l 310 960 q 303 978 303 967 q 312 998 303 989 q 332 1007 321 1007 l 392 1007 q 420 1002 411 1007 q 438 982 429 997 l 507 869 q 511 847 514 858 q 501 833 508 839 q 485 826 494 826 l 471 826 z "},"ā":{"ha":790,"x_min":50,"x_max":738,"o":"m 288 -14 q 106 58 163 -14 q 50 240 50 129 q 57 322 50 276 q 74 400 61 350 q 431 736 161 736 q 563 707 515 736 q 638 626 610 678 l 651 692 q 664 714 654 706 q 688 722 674 722 l 711 722 q 732 714 725 722 q 736 692 739 706 l 596 31 q 583 8 593 17 q 560 0 574 0 l 536 0 q 515 8 522 0 q 511 31 508 17 l 525 96 q 422 13 474 40 q 288 -14 371 -14 m 288 67 q 422 103 363 67 q 518 194 481 139 q 571 311 556 250 q 594 419 581 350 q 600 481 600 446 q 560 606 600 557 q 431 656 519 656 q 259 584 325 656 q 160 400 193 513 q 143 322 150 367 q 136 235 136 271 q 288 67 136 67 m 339 864 q 318 872 325 864 q 314 894 311 881 l 318 914 q 331 936 321 928 q 356 944 342 944 l 632 944 q 652 936 646 944 q 656 914 658 928 l 651 894 q 640 872 650 881 q 615 864 629 864 l 339 864 z "},"ą":{"ha":744,"x_min":28,"x_max":682,"o":"m 461 -306 q 373 -272 407 -306 q 339 -178 339 -239 q 344 -125 339 -151 q 403 -18 358 -64 q 496 49 447 28 l 496 53 l 506 96 q 236 -14 408 -14 q 87 35 146 -14 q 28 157 28 83 q 32 193 28 175 q 138 343 51 285 q 354 418 225 401 l 581 449 l 590 497 q 596 540 596 528 q 556 626 596 596 q 436 656 517 656 q 313 628 364 656 q 242 561 263 600 q 224 538 233 544 q 203 532 215 532 l 183 532 q 163 541 171 532 q 158 563 156 550 q 202 634 165 593 q 303 706 239 675 q 453 736 368 736 q 629 686 576 736 q 682 557 682 636 q 675 493 682 528 l 576 31 q 550 1 572 13 l 547 0 q 466 -51 494 -22 q 428 -125 438 -79 q 424 -162 424 -146 q 485 -226 424 -226 l 492 -226 q 512 -235 506 -226 q 515 -257 518 -243 l 511 -275 q 498 -297 508 -289 q 474 -306 488 -306 l 461 -306 m 267 67 q 448 133 368 67 q 554 325 528 200 l 564 372 l 379 347 q 183 285 250 329 q 115 174 115 240 q 159 94 115 122 q 267 67 203 67 z "},"å":{"ha":790,"x_min":50,"x_max":738,"o":"m 288 -14 q 106 58 163 -14 q 50 240 50 129 q 57 322 50 276 q 74 400 61 350 q 431 736 161 736 q 563 707 515 736 q 638 626 610 678 l 651 692 q 664 714 654 706 q 688 722 674 722 l 711 722 q 732 714 725 722 q 736 692 739 706 l 596 31 q 583 8 593 17 q 560 0 574 0 l 536 0 q 515 8 522 0 q 511 31 508 17 l 525 96 q 422 13 474 40 q 288 -14 371 -14 m 288 67 q 422 103 363 67 q 518 194 481 139 q 571 311 556 250 q 594 419 581 350 q 600 481 600 446 q 560 606 600 557 q 431 656 519 656 q 259 584 325 656 q 160 400 193 513 q 143 322 150 367 q 136 235 136 271 q 288 67 136 67 m 471 819 q 403 843 431 819 q 375 903 375 867 q 378 924 375 910 q 424 999 388 969 q 507 1028 461 1028 q 576 1005 549 1028 q 603 944 603 982 q 600 924 603 938 q 553 849 590 878 q 471 819 517 819 m 475 882 q 516 898 500 882 q 532 936 532 914 q 501 965 532 965 q 462 950 478 965 q 446 913 446 935 q 453 890 446 899 q 475 882 461 882 z "},"ã":{"ha":790,"x_min":50,"x_max":738,"o":"m 288 -14 q 106 58 163 -14 q 50 240 50 129 q 57 322 50 276 q 74 400 61 350 q 431 736 161 736 q 563 707 515 736 q 638 626 610 678 l 651 692 q 664 714 654 706 q 688 722 674 722 l 711 722 q 732 714 725 722 q 736 692 739 706 l 596 31 q 583 8 593 17 q 560 0 574 0 l 536 0 q 515 8 522 0 q 511 31 508 17 l 525 96 q 422 13 474 40 q 288 -14 371 -14 m 288 67 q 422 103 363 67 q 518 194 481 139 q 571 311 556 250 q 594 419 581 350 q 600 481 600 446 q 560 606 600 557 q 431 656 519 656 q 259 584 325 656 q 160 400 193 513 q 143 322 150 367 q 136 235 136 271 q 288 67 136 67 m 547 819 q 509 826 524 819 q 474 847 494 833 q 453 860 464 854 q 431 867 442 867 q 413 862 421 867 q 400 852 404 857 q 393 846 396 847 q 376 831 383 836 q 360 826 369 826 l 332 826 q 317 833 322 826 q 314 849 313 840 q 354 919 319 889 q 431 950 389 950 q 469 943 454 950 q 504 922 483 936 q 515 915 507 921 q 531 906 524 908 q 547 903 539 903 q 565 908 558 903 q 583 924 572 913 q 600 940 593 935 q 617 944 607 944 l 644 944 q 659 938 654 944 q 663 922 664 931 q 623 851 657 882 q 547 819 589 819 z "},"æ":{"ha":1224,"x_min":29,"x_max":1179,"o":"m 238 -14 q 85 33 142 -14 q 29 153 29 79 q 33 193 29 172 q 140 345 53 285 q 357 422 228 406 l 583 453 l 592 497 q 597 540 597 528 q 558 626 597 596 q 438 656 518 656 q 314 628 365 656 q 242 561 263 600 q 224 538 233 544 q 203 532 215 532 l 183 532 q 163 541 171 532 q 158 563 156 550 q 202 634 165 593 q 304 706 239 675 q 454 736 369 736 q 606 703 553 736 q 675 614 660 669 q 792 703 725 671 q 943 736 860 736 q 1126 670 1074 736 q 1179 501 1179 604 q 1165 378 1179 440 l 1161 357 q 1147 335 1158 343 q 1122 326 1136 326 l 642 326 l 639 313 q 632 244 632 271 q 681 110 632 154 q 799 67 729 67 q 913 89 857 67 q 1011 157 969 111 q 1035 178 1026 174 q 1058 182 1043 182 l 1075 182 q 1094 174 1088 182 q 1099 154 1100 167 q 1051 89 1093 129 q 938 17 1008 49 q 782 -14 868 -14 q 554 139 597 -14 q 238 -14 443 -14 m 1086 404 l 1088 410 q 1096 486 1096 450 q 1053 610 1096 564 q 926 656 1011 656 q 765 592 840 656 q 660 410 689 529 l 658 404 l 1086 404 m 268 67 q 449 133 369 67 q 556 325 529 200 l 565 372 l 381 347 q 184 285 251 329 q 117 174 117 240 q 160 94 117 122 q 268 67 204 67 z "},"ǽ":{"ha":1224,"x_min":29,"x_max":1179,"o":"m 238 -14 q 85 33 142 -14 q 29 153 29 79 q 33 193 29 172 q 140 345 53 285 q 357 422 228 406 l 583 453 l 592 497 q 597 540 597 528 q 558 626 597 596 q 438 656 518 656 q 314 628 365 656 q 242 561 263 600 q 224 538 233 544 q 203 532 215 532 l 183 532 q 163 541 171 532 q 158 563 156 550 q 202 634 165 593 q 304 706 239 675 q 454 736 369 736 q 606 703 553 736 q 675 614 660 669 q 792 703 725 671 q 943 736 860 736 q 1126 670 1074 736 q 1179 501 1179 604 q 1165 378 1179 440 l 1161 357 q 1147 335 1158 343 q 1122 326 1136 326 l 642 326 l 639 313 q 632 244 632 271 q 681 110 632 154 q 799 67 729 67 q 913 89 857 67 q 1011 157 969 111 q 1035 178 1026 174 q 1058 182 1043 182 l 1075 182 q 1094 174 1088 182 q 1099 154 1100 167 q 1051 89 1093 129 q 938 17 1008 49 q 782 -14 868 -14 q 554 139 597 -14 q 238 -14 443 -14 m 1086 404 l 1088 410 q 1096 486 1096 450 q 1053 610 1096 564 q 926 656 1011 656 q 765 592 840 656 q 660 410 689 529 l 658 404 l 1086 404 m 268 67 q 449 133 369 67 q 556 325 529 200 l 565 372 l 381 347 q 184 285 251 329 q 117 174 117 240 q 160 94 117 122 q 268 67 204 67 m 683 826 q 669 833 674 826 q 667 849 664 839 q 678 867 669 858 l 799 982 q 825 1002 814 997 q 856 1007 836 1007 l 913 1007 q 928 1001 922 1007 q 933 986 933 994 q 922 964 933 971 l 744 840 q 723 829 732 832 q 699 826 714 826 l 683 826 z "},"b":{"ha":806,"x_min":31,"x_max":733,"o":"m 346 -14 q 211 16 264 -14 q 132 96 158 46 l 118 31 q 105 8 115 17 q 81 0 94 0 l 57 0 q 37 8 43 0 q 33 31 31 17 l 229 956 q 242 978 232 969 q 267 986 253 986 l 290 986 q 310 978 304 986 q 314 956 317 969 l 244 626 q 351 708 294 679 q 488 736 408 736 q 675 665 617 736 q 733 482 733 594 q 728 407 733 440 q 708 315 722 372 q 585 81 674 175 q 346 -14 496 -14 m 346 67 q 524 138 456 67 q 625 322 592 210 q 642 400 635 356 q 650 488 650 461 q 613 610 650 565 q 488 656 576 656 q 353 621 414 656 q 253 532 293 586 q 200 419 214 478 q 178 311 185 360 q 172 249 172 283 q 213 118 172 169 q 346 67 254 67 z "},"c":{"ha":743,"x_min":49,"x_max":696,"o":"m 303 -14 q 117 51 185 -14 q 49 229 49 115 q 56 306 49 272 q 79 417 72 389 q 209 653 117 569 q 446 736 301 736 q 635 676 575 736 q 696 532 696 615 q 694 508 696 517 q 685 486 693 494 q 665 478 678 478 l 639 478 q 617 484 624 478 q 611 507 610 490 q 571 619 614 583 q 446 656 528 656 q 269 594 344 656 q 163 410 193 533 q 142 313 156 382 q 135 235 135 276 q 303 67 135 67 q 546 208 474 67 q 563 232 556 226 q 583 238 569 238 l 608 238 q 627 229 621 238 q 629 207 633 221 q 572 101 613 151 q 463 19 532 51 q 303 -14 394 -14 z "},"ć":{"ha":743,"x_min":49,"x_max":696,"o":"m 303 -14 q 117 51 185 -14 q 49 229 49 115 q 56 306 49 272 q 79 417 72 389 q 209 653 117 569 q 446 736 301 736 q 635 676 575 736 q 696 532 696 615 q 694 508 696 517 q 685 486 693 494 q 665 478 678 478 l 639 478 q 617 484 624 478 q 611 507 610 490 q 571 619 614 583 q 446 656 528 656 q 269 594 344 656 q 163 410 193 533 q 142 313 156 382 q 135 235 135 276 q 303 67 135 67 q 546 208 474 67 q 563 232 556 226 q 583 238 569 238 l 608 238 q 627 229 621 238 q 629 207 633 221 q 572 101 613 151 q 463 19 532 51 q 303 -14 394 -14 m 435 826 q 420 833 425 826 q 418 849 415 839 q 429 867 421 858 l 550 982 q 576 1002 565 997 q 607 1007 588 1007 l 664 1007 q 679 1001 674 1007 q 685 986 685 994 q 674 964 685 971 l 496 840 q 474 829 483 832 q 450 826 465 826 l 435 826 z "},"č":{"ha":743,"x_min":49,"x_max":696,"o":"m 303 -14 q 117 51 185 -14 q 49 229 49 115 q 56 306 49 272 q 79 417 72 389 q 209 653 117 569 q 446 736 301 736 q 635 676 575 736 q 696 532 696 615 q 694 508 696 517 q 685 486 693 494 q 665 478 678 478 l 639 478 q 617 484 624 478 q 611 507 610 490 q 571 619 614 583 q 446 656 528 656 q 269 594 344 656 q 163 410 193 533 q 142 313 156 382 q 135 235 135 276 q 303 67 135 67 q 546 208 474 67 q 563 232 556 226 q 583 238 569 238 l 608 238 q 627 229 621 238 q 629 207 633 221 q 572 101 613 151 q 463 19 532 51 q 303 -14 394 -14 m 463 826 q 440 830 449 826 q 422 846 432 833 l 321 971 q 314 988 314 981 q 321 1001 314 996 q 336 1007 328 1007 l 364 1007 q 388 997 378 1007 l 478 914 l 604 997 q 613 1003 606 999 q 631 1007 621 1007 l 678 1007 q 693 993 693 1007 q 681 972 693 983 l 525 846 q 500 830 510 833 q 476 826 490 826 l 463 826 z "},"ç":{"ha":743,"x_min":49,"x_max":696,"o":"m 163 410 q 142 313 156 382 q 135 235 135 276 q 303 67 135 67 q 546 208 474 67 q 563 232 556 226 q 583 238 569 238 l 608 238 q 627 229 621 238 q 629 207 633 221 q 573 103 614 153 q 464 19 532 53 q 304 -14 396 -14 l 257 -79 q 313 -69 275 -69 q 371 -95 347 -69 q 394 -160 394 -121 q 392 -187 394 -178 q 345 -273 381 -240 q 251 -306 310 -306 q 169 -286 206 -306 q 132 -247 132 -267 q 139 -235 132 -242 l 161 -217 q 172 -211 167 -211 q 189 -220 178 -211 q 214 -235 200 -229 q 251 -242 228 -242 q 301 -223 279 -242 q 324 -175 324 -204 q 310 -144 324 -156 q 274 -133 296 -133 q 233 -140 254 -133 q 206 -147 211 -147 q 189 -139 194 -147 l 172 -115 q 171 -108 171 -112 q 188 -74 171 -100 l 231 -7 q 97 72 144 11 q 49 228 49 133 q 56 306 49 271 q 79 417 72 389 q 209 653 117 569 q 446 736 301 736 q 635 676 575 736 q 696 532 696 615 q 694 508 696 517 q 685 486 693 494 q 665 478 678 478 l 639 478 q 617 484 624 478 q 611 507 610 490 q 571 619 614 583 q 446 656 528 656 q 269 594 344 656 q 163 410 193 533 z "},"ĉ":{"ha":743,"x_min":49,"x_max":696,"o":"m 303 -14 q 117 51 185 -14 q 49 229 49 115 q 56 306 49 272 q 79 417 72 389 q 209 653 117 569 q 446 736 301 736 q 635 676 575 736 q 696 532 696 615 q 694 508 696 517 q 685 486 693 494 q 665 478 678 478 l 639 478 q 617 484 624 478 q 611 507 610 490 q 571 619 614 583 q 446 656 528 656 q 269 594 344 656 q 163 410 193 533 q 142 313 156 382 q 135 235 135 276 q 303 67 135 67 q 546 208 474 67 q 563 232 556 226 q 583 238 569 238 l 608 238 q 627 229 621 238 q 629 207 633 221 q 572 101 613 151 q 463 19 532 51 q 303 -14 394 -14 m 283 840 q 268 854 268 840 q 281 875 268 865 l 436 1001 q 462 1017 451 1014 q 485 1021 472 1021 l 499 1021 q 520 1017 511 1021 q 539 1001 529 1014 l 640 876 q 646 861 646 869 q 640 847 646 853 q 625 840 633 840 l 597 840 q 574 850 583 840 l 483 933 l 357 850 q 348 844 356 849 q 331 840 340 840 l 283 840 z "},"ċ":{"ha":743,"x_min":49,"x_max":696,"o":"m 303 -14 q 117 51 185 -14 q 49 229 49 115 q 56 306 49 272 q 79 417 72 389 q 209 653 117 569 q 446 736 301 736 q 635 676 575 736 q 696 532 696 615 q 694 508 696 517 q 685 486 693 494 q 665 478 678 478 l 639 478 q 617 484 624 478 q 611 507 610 490 q 571 619 614 583 q 446 656 528 656 q 269 594 344 656 q 163 410 193 533 q 142 313 156 382 q 135 235 135 276 q 303 67 135 67 q 546 208 474 67 q 563 232 556 226 q 583 238 569 238 l 608 238 q 627 229 621 238 q 629 207 633 221 q 572 101 613 151 q 463 19 532 51 q 303 -14 394 -14 m 435 857 q 414 865 421 857 q 410 888 407 874 l 425 954 q 438 977 428 968 q 461 986 447 986 l 528 986 q 549 977 542 986 q 554 954 557 968 l 539 888 q 526 865 536 874 q 501 857 515 857 l 435 857 z "},"d":{"ha":804,"x_min":50,"x_max":808,"o":"m 293 -14 q 108 59 165 -14 q 50 246 50 132 q 56 322 50 289 q 72 400 60 350 q 197 640 110 544 q 436 736 283 736 q 650 626 593 736 l 721 956 q 733 978 724 969 q 757 986 743 986 l 781 986 q 801 978 794 986 q 806 956 808 969 l 608 31 q 596 8 606 17 q 572 0 586 0 l 549 0 q 528 8 535 0 q 524 31 521 17 l 538 96 q 433 14 488 42 q 293 -14 378 -14 m 293 67 q 429 103 368 67 q 529 195 490 139 q 583 311 568 251 q 607 419 593 350 q 613 475 613 456 q 569 604 613 553 q 436 656 526 656 q 261 583 331 656 q 158 400 192 511 q 142 322 149 367 q 135 243 135 276 q 293 67 135 67 z "},"ð":{"ha":764,"x_min":64,"x_max":796,"o":"m 308 -14 q 126 51 189 -14 q 64 225 64 115 q 75 321 64 268 q 205 560 106 468 q 450 653 304 653 q 622 599 560 653 q 568 768 610 694 l 424 717 q 404 713 411 713 q 383 738 379 713 l 389 764 q 399 785 392 779 q 426 799 407 792 l 521 832 q 444 914 492 867 q 428 940 428 929 q 438 963 428 954 q 461 972 447 972 l 489 972 q 535 954 517 972 q 611 864 579 907 l 751 914 q 771 918 761 918 q 792 893 796 918 l 786 867 q 776 845 783 851 q 749 832 768 839 l 654 799 q 711 554 711 697 q 685 322 711 454 q 683 318 683 321 q 553 78 653 171 q 308 -14 453 -14 m 325 67 q 501 137 429 67 q 599 317 574 207 l 600 322 q 608 394 608 360 q 564 524 608 475 q 433 572 519 572 q 256 502 328 572 q 161 322 185 432 l 158 314 q 151 247 151 275 q 195 115 151 164 q 325 67 239 67 z "},"ď":{"ha":850,"x_min":50,"x_max":1021,"o":"m 293 -14 q 108 59 165 -14 q 50 246 50 132 q 56 322 50 289 q 72 400 60 350 q 197 640 110 544 q 436 736 283 736 q 650 626 593 736 l 721 956 q 733 978 724 969 q 757 986 743 986 l 781 986 q 801 978 794 986 q 806 956 808 969 l 608 31 q 596 8 606 17 q 572 0 586 0 l 549 0 q 528 8 535 0 q 524 31 521 17 l 538 96 q 433 14 488 42 q 293 -14 378 -14 m 293 67 q 429 103 368 67 q 529 195 490 139 q 583 311 568 251 q 607 419 593 350 q 613 475 613 456 q 569 604 613 553 q 436 656 526 656 q 261 583 331 656 q 158 400 192 511 q 142 322 149 367 q 135 243 135 276 q 293 67 135 67 m 856 764 q 839 781 839 764 l 842 793 l 899 949 q 942 986 910 986 l 1004 986 q 1018 979 1014 986 q 1019 964 1022 972 q 1008 939 1017 951 l 922 793 q 903 770 911 776 q 881 764 894 764 l 856 764 z "},"đ":{"ha":806,"x_min":49,"x_max":899,"o":"m 283 -14 q 101 53 154 -14 q 49 222 49 119 q 58 322 49 269 q 75 400 65 367 q 194 635 107 533 q 443 736 281 736 q 653 626 596 736 l 689 793 l 608 793 q 588 801 594 793 q 585 824 582 810 l 589 843 q 601 865 590 857 q 625 874 611 874 l 706 874 l 724 956 q 736 978 726 969 q 760 986 746 986 l 783 986 q 804 978 797 986 q 808 956 811 969 l 790 874 l 871 874 q 892 865 885 874 q 896 843 899 857 l 892 824 q 878 801 889 810 q 854 793 868 793 l 774 793 l 611 31 q 599 8 608 17 q 575 0 589 0 l 551 0 q 531 8 538 0 q 526 31 524 17 l 540 96 q 283 -14 438 -14 m 310 67 q 491 140 419 67 q 586 311 563 213 q 610 419 596 350 q 615 472 615 456 q 571 603 615 550 q 435 656 526 656 q 253 584 321 656 q 160 400 186 513 q 143 322 150 367 q 135 244 135 283 q 176 115 135 164 q 310 67 218 67 z "},"e":{"ha":756,"x_min":69,"x_max":713,"o":"m 310 -14 q 132 54 194 -14 q 69 239 69 122 q 74 306 69 271 q 97 417 81 347 q 238 649 139 561 q 469 736 336 736 q 650 672 588 736 q 713 490 713 607 q 700 378 713 439 l 696 357 q 682 335 693 343 q 657 326 671 326 l 163 326 l 160 313 q 156 260 156 286 q 200 122 156 176 q 326 67 244 67 q 458 97 403 67 q 539 157 513 128 q 563 178 556 174 q 586 182 569 182 l 608 182 q 626 176 619 182 q 633 161 633 171 q 588 92 633 135 q 469 18 543 50 q 310 -14 394 -14 m 621 404 l 622 410 q 629 476 629 449 q 583 606 629 557 q 453 656 538 656 q 277 586 351 656 q 181 410 203 517 l 179 404 l 621 404 z "},"é":{"ha":756,"x_min":69,"x_max":713,"o":"m 310 -14 q 132 54 194 -14 q 69 239 69 122 q 74 306 69 271 q 97 417 81 347 q 238 649 139 561 q 469 736 336 736 q 650 672 588 736 q 713 490 713 607 q 700 378 713 439 l 696 357 q 682 335 693 343 q 657 326 671 326 l 163 326 l 160 313 q 156 260 156 286 q 200 122 156 176 q 326 67 244 67 q 458 97 403 67 q 539 157 513 128 q 563 178 556 174 q 586 182 569 182 l 608 182 q 626 176 619 182 q 633 161 633 171 q 588 92 633 135 q 469 18 543 50 q 310 -14 394 -14 m 621 404 l 622 410 q 629 476 629 449 q 583 606 629 557 q 453 656 538 656 q 277 586 351 656 q 181 410 203 517 l 179 404 l 621 404 m 439 826 q 424 833 429 826 q 422 849 419 839 q 433 867 425 858 l 554 982 q 581 1002 569 997 q 611 1007 592 1007 l 668 1007 q 683 1001 678 1007 q 689 986 689 994 q 678 964 689 971 l 500 840 q 478 829 488 832 q 454 826 469 826 l 439 826 z "},"ĕ":{"ha":756,"x_min":69,"x_max":713,"o":"m 310 -14 q 132 54 194 -14 q 69 239 69 122 q 74 306 69 271 q 97 417 81 347 q 238 649 139 561 q 469 736 336 736 q 650 672 588 736 q 713 490 713 607 q 700 378 713 439 l 696 357 q 682 335 693 343 q 657 326 671 326 l 163 326 l 160 313 q 156 260 156 286 q 200 122 156 176 q 326 67 244 67 q 458 97 403 67 q 539 157 513 128 q 563 178 556 174 q 586 182 569 182 l 608 182 q 626 176 619 182 q 633 161 633 171 q 588 92 633 135 q 469 18 543 50 q 310 -14 394 -14 m 621 404 l 622 410 q 629 476 629 449 q 583 606 629 557 q 453 656 538 656 q 277 586 351 656 q 181 410 203 517 l 179 404 l 621 404 m 467 819 q 367 853 399 819 q 335 940 335 888 q 339 981 335 960 q 350 999 342 992 q 371 1007 358 1007 l 392 1007 q 410 999 404 1007 q 413 981 415 992 q 408 946 408 964 q 469 889 408 889 q 571 981 544 889 q 582 999 574 992 q 603 1007 590 1007 l 624 1007 q 642 999 636 1007 q 644 981 647 992 q 590 864 629 908 q 467 819 550 819 z "},"ě":{"ha":756,"x_min":69,"x_max":713,"o":"m 310 -14 q 132 54 194 -14 q 69 239 69 122 q 74 306 69 271 q 97 417 81 347 q 238 649 139 561 q 469 736 336 736 q 650 672 588 736 q 713 490 713 607 q 700 378 713 439 l 696 357 q 682 335 693 343 q 657 326 671 326 l 163 326 l 160 313 q 156 260 156 286 q 200 122 156 176 q 326 67 244 67 q 458 97 403 67 q 539 157 513 128 q 563 178 556 174 q 586 182 569 182 l 608 182 q 626 176 619 182 q 633 161 633 171 q 588 92 633 135 q 469 18 543 50 q 310 -14 394 -14 m 621 404 l 622 410 q 629 476 629 449 q 583 606 629 557 q 453 656 538 656 q 277 586 351 656 q 181 410 203 517 l 179 404 l 621 404 m 463 826 q 440 830 449 826 q 422 846 432 833 l 321 971 q 314 988 314 981 q 321 1001 314 996 q 336 1007 328 1007 l 364 1007 q 388 997 378 1007 l 478 914 l 604 997 q 613 1003 606 999 q 631 1007 621 1007 l 678 1007 q 693 993 693 1007 q 681 972 693 983 l 525 846 q 500 830 510 833 q 476 826 490 826 l 463 826 z "},"ê":{"ha":756,"x_min":69,"x_max":713,"o":"m 310 -14 q 132 54 194 -14 q 69 239 69 122 q 74 306 69 271 q 97 417 81 347 q 238 649 139 561 q 469 736 336 736 q 650 672 588 736 q 713 490 713 607 q 700 378 713 439 l 696 357 q 682 335 693 343 q 657 326 671 326 l 163 326 l 160 313 q 156 260 156 286 q 200 122 156 176 q 326 67 244 67 q 458 97 403 67 q 539 157 513 128 q 563 178 556 174 q 586 182 569 182 l 608 182 q 626 176 619 182 q 633 161 633 171 q 588 92 633 135 q 469 18 543 50 q 310 -14 394 -14 m 621 404 l 622 410 q 629 476 629 449 q 583 606 629 557 q 453 656 538 656 q 277 586 351 656 q 181 410 203 517 l 179 404 l 621 404 m 282 826 q 267 840 267 826 q 279 861 267 851 l 435 988 q 460 1003 450 1000 q 483 1007 471 1007 l 497 1007 q 519 1003 510 1007 q 538 988 528 1000 l 639 863 q 644 847 644 856 q 638 833 644 839 q 624 826 632 826 l 596 826 q 572 836 582 826 l 482 919 l 356 836 q 347 831 354 835 q 329 826 339 826 l 282 826 z "},"ë":{"ha":756,"x_min":69,"x_max":713,"o":"m 310 -14 q 132 54 194 -14 q 69 239 69 122 q 74 306 69 271 q 97 417 81 347 q 238 649 139 561 q 469 736 336 736 q 650 672 588 736 q 713 490 713 607 q 700 378 713 439 l 696 357 q 682 335 693 343 q 657 326 671 326 l 163 326 l 160 313 q 156 260 156 286 q 200 122 156 176 q 326 67 244 67 q 458 97 403 67 q 539 157 513 128 q 563 178 556 174 q 586 182 569 182 l 608 182 q 626 176 619 182 q 633 161 633 171 q 588 92 633 135 q 469 18 543 50 q 310 -14 394 -14 m 621 404 l 622 410 q 629 476 629 449 q 583 606 629 557 q 453 656 538 656 q 277 586 351 656 q 181 410 203 517 l 179 404 l 621 404 m 344 871 q 324 879 331 871 q 319 901 317 888 l 332 954 q 344 977 335 968 q 368 986 354 986 l 421 986 q 442 977 435 986 q 447 954 450 968 l 435 901 q 422 879 432 888 q 397 871 411 871 l 344 871 m 557 871 q 536 879 543 871 q 532 901 529 888 l 544 954 q 557 977 547 968 q 581 986 567 986 l 633 986 q 655 977 647 986 q 660 954 663 968 l 647 901 q 634 879 644 888 q 610 871 624 871 l 557 871 z "},"ė":{"ha":756,"x_min":69,"x_max":713,"o":"m 310 -14 q 132 54 194 -14 q 69 239 69 122 q 74 306 69 271 q 97 417 81 347 q 238 649 139 561 q 469 736 336 736 q 650 672 588 736 q 713 490 713 607 q 700 378 713 439 l 696 357 q 682 335 693 343 q 657 326 671 326 l 163 326 l 160 313 q 156 260 156 286 q 200 122 156 176 q 326 67 244 67 q 458 97 403 67 q 539 157 513 128 q 563 178 556 174 q 586 182 569 182 l 608 182 q 626 176 619 182 q 633 161 633 171 q 588 92 633 135 q 469 18 543 50 q 310 -14 394 -14 m 621 404 l 622 410 q 629 476 629 449 q 583 606 629 557 q 453 656 538 656 q 277 586 351 656 q 181 410 203 517 l 179 404 l 621 404 m 440 857 q 419 865 426 857 q 415 888 413 874 l 431 954 q 443 977 433 968 q 467 986 453 986 l 533 986 q 555 977 547 986 q 560 954 563 968 l 544 888 q 531 865 542 874 q 507 857 521 857 l 440 857 z "},"è":{"ha":756,"x_min":69,"x_max":713,"o":"m 310 -14 q 132 54 194 -14 q 69 239 69 122 q 74 306 69 271 q 97 417 81 347 q 238 649 139 561 q 469 736 336 736 q 650 672 588 736 q 713 490 713 607 q 700 378 713 439 l 696 357 q 682 335 693 343 q 657 326 671 326 l 163 326 l 160 313 q 156 260 156 286 q 200 122 156 176 q 326 67 244 67 q 458 97 403 67 q 539 157 513 128 q 563 178 556 174 q 586 182 569 182 l 608 182 q 626 176 619 182 q 633 161 633 171 q 588 92 633 135 q 469 18 543 50 q 310 -14 394 -14 m 621 404 l 622 410 q 629 476 629 449 q 583 606 629 557 q 453 656 538 656 q 277 586 351 656 q 181 410 203 517 l 179 404 l 621 404 m 472 826 q 449 829 457 826 q 432 840 440 832 l 311 960 q 304 978 304 967 q 313 998 304 989 q 333 1007 322 1007 l 393 1007 q 422 1002 413 1007 q 439 982 431 997 l 508 869 q 513 847 515 858 q 503 833 510 839 q 486 826 496 826 l 472 826 z "},"ē":{"ha":756,"x_min":69,"x_max":713,"o":"m 310 -14 q 132 54 194 -14 q 69 239 69 122 q 74 306 69 271 q 97 417 81 347 q 238 649 139 561 q 469 736 336 736 q 650 672 588 736 q 713 490 713 607 q 700 378 713 439 l 696 357 q 682 335 693 343 q 657 326 671 326 l 163 326 l 160 313 q 156 260 156 286 q 200 122 156 176 q 326 67 244 67 q 458 97 403 67 q 539 157 513 128 q 563 178 556 174 q 586 182 569 182 l 608 182 q 626 176 619 182 q 633 161 633 171 q 588 92 633 135 q 469 18 543 50 q 310 -14 394 -14 m 621 404 l 622 410 q 629 476 629 449 q 583 606 629 557 q 453 656 538 656 q 277 586 351 656 q 181 410 203 517 l 179 404 l 621 404 m 340 864 q 319 872 326 864 q 315 894 313 881 l 319 914 q 333 936 322 928 q 357 944 343 944 l 633 944 q 653 936 647 944 q 657 914 660 928 l 653 894 q 641 872 651 881 q 617 864 631 864 l 340 864 z "},"ę":{"ha":760,"x_min":69,"x_max":714,"o":"m 319 -306 q 210 -269 249 -306 q 172 -168 172 -233 q 178 -114 172 -140 q 228 -3 192 -46 q 110 82 150 19 q 69 238 69 144 q 75 306 69 258 q 99 417 81 347 q 239 649 140 561 q 471 736 338 736 q 651 672 589 736 q 714 490 714 607 q 701 378 714 439 l 697 357 q 683 335 694 343 q 658 326 672 326 l 164 326 l 161 313 q 157 260 157 286 q 201 122 157 176 q 328 67 246 67 q 459 97 404 67 q 540 157 514 128 q 564 178 557 174 q 588 182 571 182 l 610 182 q 629 174 622 182 q 633 154 636 167 q 591 96 626 129 q 499 33 556 63 q 375 -8 442 4 q 300 -42 329 -17 q 261 -114 271 -67 q 257 -144 257 -131 q 281 -205 257 -183 q 343 -226 304 -226 l 364 -226 q 384 -235 378 -226 q 388 -257 390 -243 l 383 -275 q 370 -297 381 -289 q 346 -306 360 -306 l 319 -306 m 621 404 l 622 410 q 629 476 629 449 q 583 606 629 557 q 453 656 538 656 q 277 586 351 656 q 181 410 203 517 l 179 404 l 621 404 z "},"f":{"ha":494,"x_min":75,"x_max":617,"o":"m 121 0 q 100 8 107 0 q 96 31 93 17 l 226 642 l 103 642 q 82 650 89 642 q 78 672 75 658 l 82 692 q 95 714 85 706 q 119 722 106 722 l 243 722 l 260 801 q 344 965 281 901 q 510 1028 407 1028 l 590 1028 q 610 1019 604 1028 q 614 997 617 1011 l 610 978 q 597 956 607 964 q 572 947 586 947 l 510 947 q 399 909 439 947 q 343 794 360 871 l 328 722 l 511 722 q 531 714 525 722 q 535 692 538 706 l 531 672 q 519 650 529 658 q 494 642 508 642 l 311 642 l 181 31 q 168 8 178 17 q 144 0 158 0 l 121 0 z "},"g":{"ha":804,"x_min":-22,"x_max":751,"o":"m 231 -306 q 78 -275 135 -306 q 0 -202 22 -244 q -22 -121 -22 -160 q -21 -101 -22 -107 q -10 -78 -18 -87 q 10 -69 -3 -69 l 36 -69 q 55 -76 49 -69 q 63 -99 61 -82 q 99 -186 64 -147 q 231 -225 135 -225 q 518 0 472 -225 l 538 96 q 431 15 489 43 q 294 -14 374 -14 q 107 57 165 -14 q 49 239 49 128 q 56 322 49 276 q 72 400 60 350 q 198 640 111 544 q 436 736 285 736 q 570 706 517 736 q 650 626 624 676 l 664 690 q 677 713 667 704 q 701 722 688 722 l 724 722 q 744 713 738 722 q 749 690 751 704 l 606 14 q 547 -156 585 -87 q 434 -265 510 -224 q 231 -306 358 -306 m 294 67 q 428 103 368 67 q 528 195 489 139 q 583 311 568 251 q 604 411 597 369 q 610 472 610 450 q 569 603 610 551 q 436 656 528 656 q 259 583 331 656 q 157 400 188 510 q 140 322 144 350 q 132 238 132 264 q 294 67 132 67 z "},"ğ":{"ha":804,"x_min":-22,"x_max":750,"o":"m 231 -306 q 78 -275 135 -306 q 0 -202 22 -244 q -22 -121 -22 -160 q -21 -101 -22 -107 q -10 -78 -18 -87 q 10 -69 -3 -69 l 36 -69 q 55 -76 49 -69 q 63 -99 61 -82 q 99 -186 64 -147 q 231 -225 135 -225 q 518 0 472 -225 l 538 96 q 431 15 489 43 q 294 -14 374 -14 q 107 57 165 -14 q 49 239 49 128 q 56 322 49 276 q 72 400 60 350 q 198 640 111 544 q 436 736 285 736 q 570 706 517 736 q 650 626 624 676 l 664 690 q 677 713 667 704 q 701 722 688 722 l 724 722 q 744 713 738 722 q 749 690 751 704 l 606 14 q 547 -156 585 -87 q 434 -265 510 -224 q 231 -306 358 -306 m 294 67 q 428 103 368 67 q 528 195 489 139 q 583 311 568 251 q 604 411 597 369 q 610 472 610 450 q 569 603 610 551 q 436 656 528 656 q 259 583 331 656 q 157 400 188 510 q 140 322 144 350 q 132 238 132 264 q 294 67 132 67 m 497 819 q 397 853 429 819 q 365 940 365 888 q 369 981 365 960 q 381 999 372 992 q 401 1007 389 1007 l 422 1007 q 440 999 435 1007 q 443 981 446 992 q 439 946 439 964 q 500 889 439 889 q 601 981 575 889 q 613 999 604 992 q 633 1007 621 1007 l 654 1007 q 672 999 667 1007 q 675 981 678 992 q 620 864 660 908 q 497 819 581 819 z "},"ĝ":{"ha":804,"x_min":-22,"x_max":750,"o":"m 231 -306 q 78 -275 135 -306 q 0 -202 22 -244 q -22 -121 -22 -160 q -21 -101 -22 -107 q -10 -78 -18 -87 q 10 -69 -3 -69 l 36 -69 q 55 -76 49 -69 q 63 -99 61 -82 q 99 -186 64 -147 q 231 -225 135 -225 q 518 0 472 -225 l 538 96 q 431 15 489 43 q 294 -14 374 -14 q 107 57 165 -14 q 49 239 49 128 q 56 322 49 276 q 72 400 60 350 q 198 640 111 544 q 436 736 285 736 q 570 706 517 736 q 650 626 624 676 l 664 690 q 677 713 667 704 q 701 722 688 722 l 724 722 q 744 713 738 722 q 749 690 751 704 l 606 14 q 547 -156 585 -87 q 434 -265 510 -224 q 231 -306 358 -306 m 294 67 q 428 103 368 67 q 528 195 489 139 q 583 311 568 251 q 604 411 597 369 q 610 472 610 450 q 569 603 610 551 q 436 656 528 656 q 259 583 331 656 q 157 400 188 510 q 140 322 144 350 q 132 238 132 264 q 294 67 132 67 m 310 826 q 294 840 294 826 q 307 861 294 851 l 463 988 q 488 1003 478 1000 q 511 1007 499 1007 l 525 1007 q 547 1003 538 1007 q 565 988 556 1000 l 667 863 q 672 847 672 856 q 666 833 672 839 q 651 826 660 826 l 624 826 q 600 836 610 826 l 510 919 l 383 836 q 374 831 382 835 q 357 826 367 826 l 310 826 z "},"ģ":{"ha":804,"x_min":-22,"x_max":751,"o":"m 676 1049 q 693 1032 693 1049 l 690 1019 l 633 864 q 590 826 622 826 l 528 826 q 514 833 518 826 q 513 849 510 840 q 524 874 515 861 l 610 1019 q 629 1042 621 1036 q 651 1049 638 1049 l 676 1049 m 231 -306 q 78 -275 135 -306 q 0 -202 22 -244 q -22 -121 -22 -160 q -21 -101 -22 -107 q -10 -78 -18 -87 q 10 -69 -3 -69 l 36 -69 q 55 -76 49 -69 q 63 -99 61 -82 q 99 -186 64 -147 q 231 -225 135 -225 q 518 0 472 -225 l 538 96 q 431 15 489 43 q 294 -14 374 -14 q 107 57 165 -14 q 49 239 49 128 q 56 322 49 276 q 72 400 60 350 q 198 640 111 544 q 436 736 285 736 q 570 706 517 736 q 650 626 624 676 l 664 690 q 677 713 667 704 q 701 722 688 722 l 724 722 q 744 713 738 722 q 749 690 751 704 l 606 14 q 547 -156 585 -87 q 434 -265 510 -224 q 231 -306 358 -306 m 294 67 q 428 103 368 67 q 528 195 489 139 q 583 311 568 251 q 604 411 597 369 q 610 472 610 450 q 569 603 610 551 q 436 656 528 656 q 259 583 331 656 q 157 400 188 510 q 140 322 144 350 q 132 238 132 264 q 294 67 132 67 z "},"ġ":{"ha":804,"x_min":-22,"x_max":750,"o":"m 231 -306 q 78 -275 135 -306 q 0 -202 22 -244 q -22 -121 -22 -160 q -21 -101 -22 -107 q -10 -78 -18 -87 q 10 -69 -3 -69 l 36 -69 q 55 -76 49 -69 q 63 -99 61 -82 q 99 -186 64 -147 q 231 -225 135 -225 q 518 0 472 -225 l 538 96 q 431 15 489 43 q 294 -14 374 -14 q 107 57 165 -14 q 49 239 49 128 q 56 322 49 276 q 72 400 60 350 q 198 640 111 544 q 436 736 285 736 q 570 706 517 736 q 650 626 624 676 l 664 690 q 677 713 667 704 q 701 722 688 722 l 724 722 q 744 713 738 722 q 749 690 751 704 l 606 14 q 547 -156 585 -87 q 434 -265 510 -224 q 231 -306 358 -306 m 294 67 q 428 103 368 67 q 528 195 489 139 q 583 311 568 251 q 604 411 597 369 q 610 472 610 450 q 569 603 610 551 q 436 656 528 656 q 259 583 331 656 q 157 400 188 510 q 140 322 144 350 q 132 238 132 264 q 294 67 132 67 m 464 857 q 443 865 450 857 q 439 888 436 874 l 454 954 q 467 977 457 968 q 490 986 476 986 l 557 986 q 578 977 571 986 q 583 954 586 968 l 568 888 q 555 865 565 874 q 531 857 544 857 l 464 857 z "},"h":{"ha":821,"x_min":29,"x_max":728,"o":"m 57 0 q 36 8 43 0 q 32 31 29 17 l 229 956 q 242 978 232 969 q 265 986 251 986 l 289 986 q 310 978 303 986 q 314 956 317 969 l 243 626 q 347 708 290 679 q 485 736 403 736 q 666 674 604 736 q 728 508 728 613 q 718 425 728 476 l 633 31 q 621 8 631 17 q 597 0 611 0 l 574 0 q 553 8 560 0 q 549 31 546 17 l 631 418 q 642 506 642 469 q 485 656 642 656 q 303 591 383 656 q 199 418 222 526 l 117 31 q 104 8 114 17 q 81 0 94 0 l 57 0 z "},"ħ":{"ha":821,"x_min":29,"x_max":729,"o":"m 57 0 q 36 8 43 0 q 32 31 29 17 l 194 793 l 114 793 q 94 801 100 793 q 90 824 88 810 l 94 843 q 106 865 96 857 q 131 874 117 874 l 211 874 l 229 956 q 242 978 232 969 q 265 986 251 986 l 289 986 q 310 978 303 986 q 314 956 317 969 l 296 874 l 376 874 q 397 865 390 874 q 401 843 404 857 l 397 824 q 384 801 394 810 q 360 793 374 793 l 279 793 l 243 626 q 346 706 289 676 q 485 736 403 736 q 669 678 610 736 q 729 521 729 621 q 718 425 729 478 l 633 31 q 621 8 631 17 q 597 0 611 0 l 574 0 q 553 8 560 0 q 549 31 546 17 l 631 418 q 643 515 643 472 q 606 620 643 585 q 485 656 568 656 q 303 591 383 656 q 199 418 222 526 l 117 31 q 104 8 114 17 q 81 0 94 0 l 57 0 z "},"ĥ":{"ha":821,"x_min":31,"x_max":728,"o":"m 57 0 q 36 8 43 0 q 32 31 29 17 l 229 956 q 242 978 232 969 q 265 986 251 986 l 289 986 q 310 978 303 986 q 314 956 317 969 l 243 626 q 347 708 290 679 q 485 736 403 736 q 666 674 604 736 q 728 508 728 613 q 718 425 728 476 l 633 31 q 621 8 631 17 q 597 0 611 0 l 574 0 q 553 8 560 0 q 549 31 546 17 l 631 418 q 642 506 642 469 q 485 656 642 656 q 303 591 383 656 q 199 418 222 526 l 117 31 q 104 8 114 17 q 81 0 94 0 l 57 0 m 329 1042 q 314 1056 314 1042 q 326 1076 314 1067 l 482 1203 q 508 1219 497 1215 q 531 1222 518 1222 l 544 1222 q 566 1219 557 1222 q 585 1203 575 1215 l 686 1078 q 692 1063 692 1071 q 685 1048 692 1054 q 671 1042 679 1042 l 643 1042 q 619 1051 629 1042 l 529 1135 l 403 1051 q 394 1046 401 1050 q 376 1042 386 1042 l 329 1042 z "},"i":{"ha":311,"x_min":29,"x_max":332,"o":"m 226 871 q 206 879 213 871 q 201 901 199 888 l 214 954 q 226 977 217 968 q 250 986 236 986 l 303 986 q 324 977 317 986 q 329 954 332 968 l 317 901 q 304 879 315 888 q 279 871 293 871 l 226 871 m 57 0 q 36 8 43 0 q 32 31 29 17 l 172 692 q 185 714 175 706 q 210 722 196 722 l 233 722 q 253 714 247 722 q 257 692 260 706 l 117 31 q 104 8 114 17 q 81 0 94 0 l 57 0 z "},"ı":{"ha":311,"x_min":29,"x_max":260,"o":"m 57 0 q 36 8 43 0 q 32 31 29 17 l 172 692 q 185 714 175 706 q 210 722 196 722 l 233 722 q 253 714 247 722 q 257 692 260 706 l 117 31 q 104 8 114 17 q 81 0 94 0 l 57 0 z "},"í":{"ha":311,"x_min":31,"x_max":469,"o":"m 57 0 q 36 8 43 0 q 32 31 29 17 l 172 692 q 185 714 175 706 q 210 722 196 722 l 233 722 q 253 714 247 722 q 257 692 260 706 l 117 31 q 104 8 114 17 q 81 0 94 0 l 57 0 m 219 826 q 205 833 210 826 q 203 849 200 839 q 214 867 206 858 l 335 982 q 361 1002 350 997 q 392 1007 372 1007 l 449 1007 q 464 1001 458 1007 q 469 986 469 994 q 458 964 469 971 l 281 840 q 259 829 268 832 q 235 826 250 826 l 219 826 z "},"ĭ":{"ha":311,"x_min":31,"x_max":428,"o":"m 57 0 q 36 8 43 0 q 32 31 29 17 l 172 692 q 185 714 175 706 q 210 722 196 722 l 233 722 q 253 714 247 722 q 257 692 260 706 l 117 31 q 104 8 114 17 q 81 0 94 0 l 57 0 m 250 819 q 150 853 182 819 q 118 940 118 888 q 122 981 118 960 q 133 999 125 992 q 154 1007 142 1007 l 175 1007 q 193 999 188 1007 q 196 981 199 992 q 192 946 192 964 q 253 889 192 889 q 354 981 328 889 q 365 999 357 992 q 386 1007 374 1007 l 407 1007 q 425 999 419 1007 q 428 981 431 992 q 373 864 413 908 q 250 819 333 819 z "},"î":{"ha":311,"x_min":31,"x_max":428,"o":"m 57 0 q 36 8 43 0 q 32 31 29 17 l 172 692 q 185 714 175 706 q 210 722 196 722 l 233 722 q 253 714 247 722 q 257 692 260 706 l 117 31 q 104 8 114 17 q 81 0 94 0 l 57 0 m 65 826 q 50 840 50 826 q 63 861 50 851 l 218 988 q 244 1003 233 1000 q 267 1007 254 1007 l 281 1007 q 302 1003 293 1007 q 321 988 311 1000 l 422 863 q 428 847 428 856 q 422 833 428 839 q 407 826 415 826 l 379 826 q 356 836 365 826 l 265 919 l 139 836 q 130 831 138 835 q 113 826 122 826 l 65 826 z "},"ï":{"ha":311,"x_min":31,"x_max":436,"o":"m 57 0 q 36 8 43 0 q 32 31 29 17 l 172 692 q 185 714 175 706 q 210 722 196 722 l 233 722 q 253 714 247 722 q 257 692 260 706 l 117 31 q 104 8 114 17 q 81 0 94 0 l 57 0 m 119 871 q 99 879 106 871 q 94 901 92 888 l 107 954 q 119 977 110 968 q 143 986 129 986 l 196 986 q 217 977 210 986 q 222 954 225 968 l 210 901 q 197 879 207 888 q 172 871 186 871 l 119 871 m 332 871 q 311 879 318 871 q 307 901 304 888 l 319 954 q 332 977 322 968 q 356 986 342 986 l 408 986 q 430 977 422 986 q 435 954 438 968 l 422 901 q 409 879 419 888 q 385 871 399 871 l 332 871 z "},"ì":{"ha":311,"x_min":31,"x_max":283,"o":"m 57 0 q 36 8 43 0 q 32 31 29 17 l 172 692 q 185 714 175 706 q 210 722 196 722 l 233 722 q 253 714 247 722 q 257 692 260 706 l 117 31 q 104 8 114 17 q 81 0 94 0 l 57 0 m 243 826 q 219 829 228 826 q 203 840 211 832 l 82 960 q 75 978 75 967 q 84 998 75 989 q 104 1007 93 1007 l 164 1007 q 192 1002 183 1007 q 210 982 201 997 l 279 869 q 283 847 286 858 q 274 833 281 839 q 257 826 267 826 l 243 826 z "},"ĳ":{"ha":636,"x_min":31,"x_max":653,"o":"m 226 871 q 206 879 213 871 q 201 901 199 888 l 214 954 q 226 977 217 968 q 250 986 236 986 l 303 986 q 324 977 317 986 q 329 954 332 968 l 317 901 q 304 879 315 888 q 279 871 293 871 l 226 871 m 57 0 q 36 8 43 0 q 32 31 29 17 l 172 692 q 185 714 175 706 q 210 722 196 722 l 233 722 q 253 714 247 722 q 257 692 260 706 l 117 31 q 104 8 114 17 q 81 0 94 0 l 57 0 m 550 871 q 529 879 536 871 q 525 901 522 888 l 538 954 q 550 977 540 968 q 574 986 560 986 l 626 986 q 648 977 640 986 q 653 954 656 968 l 640 901 q 628 879 639 888 q 603 871 617 871 l 550 871 m 164 -264 q 144 -256 150 -264 q 140 -233 138 -247 l 144 -214 q 157 -192 147 -200 q 181 -183 167 -183 l 193 -183 q 343 -31 311 -183 l 496 692 q 509 714 499 706 q 533 722 519 722 l 557 722 q 577 714 571 722 q 581 692 583 706 l 428 -31 q 349 -203 404 -142 q 176 -264 293 -264 l 164 -264 z "},"ī":{"ha":311,"x_min":31,"x_max":432,"o":"m 57 0 q 36 8 43 0 q 32 31 29 17 l 172 692 q 185 714 175 706 q 210 722 196 722 l 233 722 q 253 714 247 722 q 257 692 260 706 l 117 31 q 104 8 114 17 q 81 0 94 0 l 57 0 m 114 864 q 93 872 100 864 q 89 894 86 881 l 93 914 q 106 936 96 928 q 131 944 117 944 l 407 944 q 427 936 421 944 q 431 914 433 928 l 426 894 q 415 872 425 881 q 390 864 404 864 l 114 864 z "},"į":{"ha":339,"x_min":-97,"x_max":379,"o":"m 274 871 q 253 879 260 871 q 250 901 247 888 l 261 954 q 274 977 264 968 q 299 986 285 986 l 351 986 q 372 977 365 986 q 376 954 379 968 l 365 901 q 351 879 363 888 q 326 871 340 871 l 274 871 m 50 -306 q -59 -269 -21 -306 q -97 -168 -97 -233 q -92 -114 -97 -140 q -27 13 -75 -37 q 90 75 21 63 l 92 81 q 93 89 92 86 l 221 692 q 234 714 224 706 q 258 722 244 722 l 282 722 q 302 714 296 722 q 306 692 308 706 l 165 31 q 152 8 163 17 q 128 0 142 0 l 121 0 q 38 -31 74 0 q -8 -114 3 -61 q -12 -144 -12 -131 q 11 -205 -12 -183 q 74 -226 35 -226 l 94 -226 q 115 -235 108 -226 q 118 -257 121 -243 l 114 -275 q 101 -297 111 -289 q 76 -306 90 -306 l 50 -306 z "},"ĩ":{"ha":311,"x_min":31,"x_max":429,"o":"m 57 0 q 36 8 43 0 q 32 31 29 17 l 172 692 q 185 714 175 706 q 210 722 196 722 l 233 722 q 253 714 247 722 q 257 692 260 706 l 117 31 q 104 8 114 17 q 81 0 94 0 l 57 0 m 314 819 q 276 826 290 819 q 240 847 261 833 q 219 860 231 854 q 197 867 208 867 q 179 862 188 867 q 167 852 171 857 q 160 846 163 847 q 143 831 150 836 q 126 826 136 826 l 99 826 q 84 833 89 826 q 81 849 79 840 q 121 919 86 889 q 197 950 156 950 q 235 943 221 950 q 271 922 250 936 q 282 915 274 921 q 298 906 290 908 q 314 903 306 903 q 332 908 325 903 q 350 924 339 913 q 367 940 360 935 q 383 944 374 944 l 411 944 q 426 938 421 944 q 429 922 431 932 q 390 851 424 882 q 314 819 356 819 z "},"j":{"ha":325,"x_min":-174,"x_max":344,"o":"m 239 871 q 218 879 225 871 q 214 901 211 888 l 226 954 q 239 977 229 968 q 263 986 249 986 l 315 986 q 337 977 329 986 q 342 954 344 968 l 329 901 q 317 879 328 888 q 292 871 306 871 l 239 871 m -147 -264 q -167 -256 -161 -264 q -171 -233 -174 -247 l -167 -214 q -154 -192 -164 -200 q -131 -183 -144 -183 l -118 -183 q 32 -31 0 -183 l 185 692 q 198 714 188 706 q 222 722 208 722 l 246 722 q 266 714 260 722 q 269 692 272 706 l 117 -31 q 38 -203 93 -142 q -135 -264 -18 -264 l -147 -264 z "},"ȷ":{"ha":368,"x_min":-131,"x_max":315,"o":"m -106 -264 q -124 -256 -118 -264 q -128 -233 -131 -247 l -124 -214 q -112 -192 -121 -200 q -89 -183 -103 -183 l -83 -183 q 26 -144 -7 -183 q 75 -31 58 -106 l 218 642 l 101 642 q 81 650 88 642 q 76 672 74 658 l 81 692 q 94 714 83 706 q 118 722 104 722 l 289 722 q 309 714 303 722 q 313 692 315 706 l 160 -31 q 77 -202 136 -140 q -100 -264 18 -264 l -106 -264 z "},"ĵ":{"ha":368,"x_min":-129,"x_max":414,"o":"m -106 -264 q -124 -256 -118 -264 q -128 -233 -131 -247 l -124 -214 q -112 -192 -121 -200 q -89 -183 -103 -183 l -83 -183 q 26 -144 -7 -183 q 75 -31 58 -106 l 218 642 l 101 642 q 81 650 88 642 q 76 672 74 658 l 81 692 q 94 714 83 706 q 118 722 104 722 l 289 722 q 309 714 303 722 q 313 692 315 706 l 160 -31 q 77 -202 136 -140 q -100 -264 18 -264 l -106 -264 m 51 826 q 36 840 36 826 q 49 861 36 851 l 204 988 q 230 1003 219 1000 q 253 1007 240 1007 l 267 1007 q 288 1003 279 1007 q 307 988 297 1000 l 408 863 q 414 847 414 856 q 408 833 414 839 q 393 826 401 826 l 365 826 q 342 836 351 826 l 251 919 l 125 836 q 116 831 124 835 q 99 826 108 826 l 51 826 z "},"k":{"ha":674,"x_min":29,"x_max":681,"o":"m 57 0 q 36 8 43 0 q 32 31 29 17 l 229 956 q 242 978 232 969 q 265 986 251 986 l 289 986 q 310 978 303 986 q 314 956 317 969 l 211 474 l 557 699 q 592 718 582 714 q 621 722 601 722 l 658 722 q 674 716 668 722 q 681 701 681 710 q 657 667 681 682 l 249 400 l 568 47 q 576 28 576 39 q 569 8 576 17 q 549 0 561 0 l 526 0 q 501 5 510 0 q 487 15 492 10 q 481 21 482 19 l 185 344 l 117 31 q 104 8 114 17 q 81 0 94 0 l 57 0 z "},"ķ":{"ha":674,"x_min":31,"x_max":681,"o":"m 57 0 q 36 8 43 0 q 32 31 29 17 l 229 956 q 242 978 232 969 q 265 986 251 986 l 289 986 q 310 978 303 986 q 314 956 317 969 l 211 474 l 557 699 q 592 718 582 714 q 621 722 601 722 l 658 722 q 674 716 668 722 q 681 701 681 710 q 657 667 681 682 l 249 400 l 568 47 q 576 28 576 39 q 569 8 576 17 q 549 0 561 0 l 526 0 q 501 5 510 0 q 487 15 492 10 q 481 21 482 19 l 185 344 l 117 31 q 104 8 114 17 q 81 0 94 0 l 57 0 m 89 -292 q 72 -275 72 -292 l 75 -262 l 132 -107 q 175 -69 143 -69 l 238 -69 q 251 -76 247 -69 q 253 -92 256 -83 q 242 -117 250 -104 l 156 -262 q 136 -285 144 -279 q 114 -292 128 -292 l 89 -292 z "},"ĸ":{"ha":678,"x_min":49,"x_max":708,"o":"m 75 0 q 55 8 61 0 q 51 31 49 17 l 192 692 q 205 714 194 706 q 229 722 215 722 l 253 722 q 273 714 267 722 q 276 692 279 706 l 221 428 l 599 699 q 633 718 624 714 q 663 722 643 722 l 685 722 q 703 715 697 722 q 706 694 708 707 q 682 667 703 679 l 256 361 l 581 56 q 592 28 596 40 q 581 8 590 15 q 558 0 571 0 l 533 0 q 506 4 514 0 q 481 24 497 8 l 192 294 l 136 31 q 123 8 133 17 q 99 0 113 0 l 75 0 z "},"l":{"ha":313,"x_min":29,"x_max":317,"o":"m 57 0 q 36 8 43 0 q 32 31 29 17 l 229 956 q 242 978 232 969 q 265 986 251 986 l 289 986 q 310 978 303 986 q 314 956 317 969 l 117 31 q 104 8 114 17 q 81 0 94 0 l 57 0 z "},"ĺ":{"ha":313,"x_min":31,"x_max":521,"o":"m 57 0 q 36 8 43 0 q 32 31 29 17 l 229 956 q 242 978 232 969 q 265 986 251 986 l 289 986 q 310 978 303 986 q 314 956 317 969 l 117 31 q 104 8 114 17 q 81 0 94 0 l 57 0 m 271 1042 q 256 1048 261 1042 q 254 1064 251 1054 q 265 1082 257 1074 l 386 1197 q 413 1217 401 1213 q 443 1222 424 1222 l 500 1222 q 515 1216 510 1222 q 521 1201 521 1210 q 510 1179 521 1186 l 332 1056 q 310 1044 319 1047 q 286 1042 301 1042 l 271 1042 z "},"ľ":{"ha":313,"x_min":-74,"x_max":315,"o":"m 57 0 q 36 8 43 0 q 32 31 29 17 l 229 956 q 242 978 232 969 q 265 986 251 986 l 289 986 q 310 978 303 986 q 314 956 317 969 l 117 31 q 104 8 114 17 q 81 0 94 0 l 57 0 m -57 -292 q -74 -275 -74 -292 l -71 -262 l -14 -107 q 29 -69 -3 -69 l 92 -69 q 106 -76 101 -69 q 107 -92 110 -83 q 96 -117 104 -104 l 10 -262 q -10 -285 -1 -279 q -32 -292 -18 -292 l -57 -292 z "},"ļ":{"ha":313,"x_min":-74,"x_max":315,"o":"m 57 0 q 36 8 43 0 q 32 31 29 17 l 229 956 q 242 978 232 969 q 265 986 251 986 l 289 986 q 310 978 303 986 q 314 956 317 969 l 117 31 q 104 8 114 17 q 81 0 94 0 l 57 0 m -57 -292 q -74 -275 -74 -292 l -71 -262 l -14 -107 q 29 -69 -3 -69 l 92 -69 q 106 -76 101 -69 q 107 -92 110 -83 q 96 -117 104 -104 l 10 -262 q -10 -285 -1 -279 q -32 -292 -18 -292 l -57 -292 z "},"ŀ":{"ha":356,"x_min":29,"x_max":425,"o":"m 57 0 q 36 8 43 0 q 32 31 29 17 l 229 956 q 242 978 232 969 q 265 986 251 986 l 289 986 q 310 978 303 986 q 314 956 317 969 l 117 31 q 104 8 114 17 q 81 0 94 0 l 57 0 m 303 435 q 282 443 289 435 q 278 465 275 451 l 293 532 q 306 555 296 546 q 329 564 315 564 l 396 564 q 417 555 410 564 q 422 532 425 546 l 407 465 q 394 443 404 451 q 369 435 383 435 l 303 435 z "},"ł":{"ha":343,"x_min":57,"x_max":367,"o":"m 93 0 q 73 8 79 0 q 69 31 67 17 l 157 442 l 100 422 q 81 418 88 418 q 63 424 68 418 q 60 443 57 431 l 65 469 q 76 491 68 485 q 103 504 83 497 l 175 529 l 265 956 q 278 978 268 969 q 303 986 289 986 l 326 986 q 347 978 340 986 q 350 956 353 969 l 267 561 l 324 582 q 343 586 336 586 q 361 580 356 586 q 364 561 367 574 l 358 535 q 348 513 356 519 q 321 500 340 507 l 249 474 l 154 31 q 141 8 151 17 q 117 0 131 0 l 93 0 z "},"m":{"ha":1221,"x_min":29,"x_max":1129,"o":"m 57 0 q 36 8 43 0 q 32 31 29 17 l 172 692 q 185 714 175 706 q 210 722 196 722 l 233 722 q 253 714 247 722 q 257 692 260 706 l 247 643 q 340 714 294 692 q 451 736 386 736 q 586 702 531 736 q 660 606 642 668 q 910 736 758 736 q 1068 679 1007 736 q 1129 518 1129 622 q 1119 435 1129 478 l 1033 31 q 1021 8 1031 17 q 997 0 1011 0 l 974 0 q 953 8 960 0 q 949 31 946 17 l 1032 421 q 1043 517 1043 471 q 907 656 1043 656 q 757 600 829 656 q 658 421 685 544 l 575 31 q 563 8 572 17 q 539 0 553 0 l 515 0 q 494 8 501 0 q 490 31 488 17 l 574 421 q 585 513 585 476 q 548 622 585 589 q 449 656 511 656 q 299 600 371 656 q 200 422 226 544 l 117 31 q 104 8 114 17 q 81 0 94 0 l 57 0 z "},"n":{"ha":819,"x_min":29,"x_max":728,"o":"m 57 0 q 36 8 43 0 q 32 31 29 17 l 172 692 q 185 714 175 706 q 210 722 196 722 l 233 722 q 253 714 247 722 q 257 692 260 706 l 243 626 q 351 707 289 678 q 488 736 413 736 q 669 678 611 736 q 728 519 728 621 q 717 425 728 478 l 632 31 q 619 8 629 17 q 596 0 610 0 l 572 0 q 551 8 558 0 q 547 31 544 17 l 629 418 q 643 522 643 485 q 607 623 643 590 q 488 656 571 656 q 300 592 378 656 q 199 418 222 529 l 117 31 q 104 8 114 17 q 81 0 94 0 l 57 0 z "},"ń":{"ha":819,"x_min":31,"x_max":728,"o":"m 57 0 q 36 8 43 0 q 32 31 29 17 l 172 692 q 185 714 175 706 q 210 722 196 722 l 233 722 q 253 714 247 722 q 257 692 260 706 l 243 626 q 351 707 289 678 q 488 736 413 736 q 669 678 611 736 q 728 519 728 621 q 717 425 728 478 l 632 31 q 619 8 629 17 q 596 0 610 0 l 572 0 q 551 8 558 0 q 547 31 544 17 l 629 418 q 643 522 643 485 q 607 623 643 590 q 488 656 571 656 q 300 592 378 656 q 199 418 222 529 l 117 31 q 104 8 114 17 q 81 0 94 0 l 57 0 m 464 826 q 449 833 454 826 q 447 849 444 839 q 458 867 450 858 l 579 982 q 606 1002 594 997 q 636 1007 617 1007 l 693 1007 q 708 1001 703 1007 q 714 986 714 994 q 703 964 714 971 l 525 840 q 503 829 513 832 q 479 826 494 826 l 464 826 z "},"ŉ":{"ha":819,"x_min":31,"x_max":728,"o":"m 57 0 q 36 8 43 0 q 32 31 29 17 l 172 692 q 185 714 175 706 q 210 722 196 722 l 233 722 q 253 714 247 722 q 257 692 260 706 l 243 626 q 351 707 289 678 q 488 736 413 736 q 669 678 611 736 q 728 519 728 621 q 717 425 728 478 l 632 31 q 619 8 629 17 q 596 0 610 0 l 572 0 q 551 8 558 0 q 547 31 544 17 l 629 418 q 643 522 643 485 q 607 623 643 590 q 488 656 571 656 q 300 592 378 656 q 199 418 222 529 l 117 31 q 104 8 114 17 q 81 0 94 0 l 57 0 m 403 808 q 386 825 386 808 l 389 838 l 446 993 q 489 1031 457 1031 l 551 1031 q 565 1024 561 1031 q 567 1008 569 1017 q 556 983 564 996 l 469 838 q 450 815 458 821 q 428 808 442 808 l 403 808 z "},"ň":{"ha":819,"x_min":31,"x_max":728,"o":"m 57 0 q 36 8 43 0 q 32 31 29 17 l 172 692 q 185 714 175 706 q 210 722 196 722 l 233 722 q 253 714 247 722 q 257 692 260 706 l 243 626 q 351 707 289 678 q 488 736 413 736 q 669 678 611 736 q 728 519 728 621 q 717 425 728 478 l 632 31 q 619 8 629 17 q 596 0 610 0 l 572 0 q 551 8 558 0 q 547 31 544 17 l 629 418 q 643 522 643 485 q 607 623 643 590 q 488 656 571 656 q 300 592 378 656 q 199 418 222 529 l 117 31 q 104 8 114 17 q 81 0 94 0 l 57 0 m 490 826 q 468 830 476 826 q 450 846 460 833 l 349 971 q 342 988 342 981 q 349 1001 342 996 q 364 1007 356 1007 l 392 1007 q 415 997 406 1007 l 506 914 l 632 997 q 641 1003 633 999 q 658 1007 649 1007 l 706 1007 q 721 993 721 1007 q 708 972 721 983 l 553 846 q 528 830 538 833 q 504 826 518 826 l 490 826 z "},"ņ":{"ha":819,"x_min":31,"x_max":728,"o":"m 57 0 q 36 8 43 0 q 32 31 29 17 l 172 692 q 185 714 175 706 q 210 722 196 722 l 233 722 q 253 714 247 722 q 257 692 260 706 l 243 626 q 351 707 289 678 q 488 736 413 736 q 669 678 611 736 q 728 519 728 621 q 717 425 728 478 l 632 31 q 619 8 629 17 q 596 0 610 0 l 572 0 q 551 8 558 0 q 547 31 544 17 l 629 418 q 643 522 643 485 q 607 623 643 590 q 488 656 571 656 q 300 592 378 656 q 199 418 222 529 l 117 31 q 104 8 114 17 q 81 0 94 0 l 57 0 m 129 -292 q 113 -275 113 -292 l 115 -262 l 172 -107 q 215 -69 183 -69 l 278 -69 q 292 -76 288 -69 q 293 -92 296 -83 q 282 -117 290 -104 l 196 -262 q 176 -285 185 -279 q 154 -292 168 -292 l 129 -292 z "},"ŋ":{"ha":819,"x_min":29,"x_max":728,"o":"m 344 -312 q 324 -304 331 -312 q 319 -282 317 -296 l 324 -262 q 337 -240 326 -249 q 361 -232 347 -232 l 367 -232 q 475 -192 442 -232 q 524 -79 508 -153 l 629 418 q 643 522 643 485 q 607 623 643 590 q 488 656 571 656 q 300 592 378 656 q 199 418 222 529 l 117 31 q 104 8 114 17 q 81 0 94 0 l 57 0 q 36 8 43 0 q 32 31 29 17 l 172 692 q 185 714 175 706 q 210 722 196 722 l 233 722 q 253 714 247 722 q 257 692 260 706 l 243 626 q 351 707 289 678 q 488 736 413 736 q 669 678 611 736 q 728 519 728 621 q 717 425 728 478 l 608 -79 q 567 -205 592 -156 q 492 -283 543 -254 q 350 -312 440 -312 l 344 -312 z "},"ñ":{"ha":819,"x_min":31,"x_max":728,"o":"m 57 0 q 36 8 43 0 q 32 31 29 17 l 172 692 q 185 714 175 706 q 210 722 196 722 l 233 722 q 253 714 247 722 q 257 692 260 706 l 243 626 q 351 707 289 678 q 488 736 413 736 q 669 678 611 736 q 728 519 728 621 q 717 425 728 478 l 632 31 q 619 8 629 17 q 596 0 610 0 l 572 0 q 551 8 558 0 q 547 31 544 17 l 629 418 q 643 522 643 485 q 607 623 643 590 q 488 656 571 656 q 300 592 378 656 q 199 418 222 529 l 117 31 q 104 8 114 17 q 81 0 94 0 l 57 0 m 561 819 q 523 826 538 819 q 488 847 508 833 q 467 860 478 854 q 444 867 456 867 q 426 862 435 867 q 414 852 418 857 q 407 846 410 847 q 390 831 397 836 q 374 826 383 826 l 346 826 q 331 833 336 826 q 328 849 326 840 q 368 919 333 889 q 444 950 403 950 q 483 943 468 950 q 518 922 497 936 q 529 915 521 921 q 545 906 538 908 q 561 903 553 903 q 579 908 572 903 q 597 924 586 913 q 614 940 607 935 q 631 944 621 944 l 658 944 q 673 938 668 944 q 676 922 678 931 q 637 851 671 882 q 561 819 603 819 z "},"o":{"ha":772,"x_min":47,"x_max":703,"o":"m 303 -14 q 114 53 181 -14 q 47 232 47 121 q 54 303 47 261 q 65 361 58 329 q 79 419 72 393 q 208 649 114 561 q 446 736 301 736 q 637 669 571 736 q 703 492 703 603 q 696 419 703 461 q 671 303 679 336 q 542 74 636 161 q 303 -14 447 -14 m 303 67 q 482 131 404 67 q 588 310 560 194 q 610 413 596 343 q 617 483 617 454 q 573 612 617 568 q 446 656 529 656 q 267 592 344 656 q 163 413 190 528 q 140 310 149 367 q 133 238 133 265 q 176 110 133 154 q 303 67 219 67 z "},"ó":{"ha":772,"x_min":47,"x_max":703,"o":"m 303 -14 q 114 53 181 -14 q 47 232 47 121 q 54 303 47 261 q 65 361 58 329 q 79 419 72 393 q 208 649 114 561 q 446 736 301 736 q 637 669 571 736 q 703 492 703 603 q 696 419 703 461 q 671 303 679 336 q 542 74 636 161 q 303 -14 447 -14 m 303 67 q 482 131 404 67 q 588 310 560 194 q 610 413 596 343 q 617 483 617 454 q 573 612 617 568 q 446 656 529 656 q 267 592 344 656 q 163 413 190 528 q 140 310 149 367 q 133 238 133 265 q 176 110 133 154 q 303 67 219 67 m 449 826 q 434 833 439 826 q 432 849 429 839 q 443 867 435 858 l 564 982 q 590 1002 579 997 q 621 1007 601 1007 l 678 1007 q 693 1001 688 1007 q 699 986 699 994 q 688 964 699 971 l 510 840 q 488 829 497 832 q 464 826 479 826 l 449 826 z "},"ŏ":{"ha":772,"x_min":47,"x_max":703,"o":"m 303 -14 q 114 53 181 -14 q 47 232 47 121 q 54 303 47 261 q 65 361 58 329 q 79 419 72 393 q 208 649 114 561 q 446 736 301 736 q 637 669 571 736 q 703 492 703 603 q 696 419 703 461 q 671 303 679 336 q 542 74 636 161 q 303 -14 447 -14 m 303 67 q 482 131 404 67 q 588 310 560 194 q 610 413 596 343 q 617 483 617 454 q 573 612 617 568 q 446 656 529 656 q 267 592 344 656 q 163 413 190 528 q 140 310 149 367 q 133 238 133 265 q 176 110 133 154 q 303 67 219 67 m 481 819 q 381 853 413 819 q 349 940 349 888 q 353 981 349 960 q 364 999 356 992 q 385 1007 372 1007 l 406 1007 q 424 999 418 1007 q 426 981 429 992 q 422 946 422 964 q 483 889 422 889 q 585 981 558 889 q 596 999 588 992 q 617 1007 604 1007 l 638 1007 q 656 999 650 1007 q 658 981 661 992 q 603 864 643 908 q 481 819 564 819 z "},"ô":{"ha":772,"x_min":47,"x_max":703,"o":"m 303 -14 q 114 53 181 -14 q 47 232 47 121 q 54 303 47 261 q 65 361 58 329 q 79 419 72 393 q 208 649 114 561 q 446 736 301 736 q 637 669 571 736 q 703 492 703 603 q 696 419 703 461 q 671 303 679 336 q 542 74 636 161 q 303 -14 447 -14 m 303 67 q 482 131 404 67 q 588 310 560 194 q 610 413 596 343 q 617 483 617 454 q 573 612 617 568 q 446 656 529 656 q 267 592 344 656 q 163 413 190 528 q 140 310 149 367 q 133 238 133 265 q 176 110 133 154 q 303 67 219 67 m 294 826 q 279 840 279 826 q 292 861 279 851 l 447 988 q 473 1003 463 1000 q 496 1007 483 1007 l 510 1007 q 531 1003 522 1007 q 550 988 540 1000 l 651 863 q 657 847 657 856 q 651 833 657 839 q 636 826 644 826 l 608 826 q 585 836 594 826 l 494 919 l 368 836 q 359 831 367 835 q 342 826 351 826 l 294 826 z "},"ö":{"ha":772,"x_min":47,"x_max":703,"o":"m 303 -14 q 114 53 181 -14 q 47 232 47 121 q 54 303 47 261 q 65 361 58 329 q 79 419 72 393 q 208 649 114 561 q 446 736 301 736 q 637 669 571 736 q 703 492 703 603 q 696 419 703 461 q 671 303 679 336 q 542 74 636 161 q 303 -14 447 -14 m 303 67 q 482 131 404 67 q 588 310 560 194 q 610 413 596 343 q 617 483 617 454 q 573 612 617 568 q 446 656 529 656 q 267 592 344 656 q 163 413 190 528 q 140 310 149 367 q 133 238 133 265 q 176 110 133 154 q 303 67 219 67 m 350 871 q 329 879 336 871 q 325 901 322 888 l 338 954 q 350 977 340 968 q 374 986 360 986 l 426 986 q 448 977 440 986 q 453 954 456 968 l 440 901 q 427 879 438 888 q 403 871 417 871 l 350 871 m 563 871 q 542 879 549 871 q 538 901 535 888 l 550 954 q 563 977 553 968 q 586 986 572 986 l 639 986 q 660 977 653 986 q 665 954 668 968 l 653 901 q 640 879 650 888 q 615 871 629 871 l 563 871 z "},"ò":{"ha":772,"x_min":47,"x_max":703,"o":"m 303 -14 q 114 53 181 -14 q 47 232 47 121 q 54 303 47 261 q 65 361 58 329 q 79 419 72 393 q 208 649 114 561 q 446 736 301 736 q 637 669 571 736 q 703 492 703 603 q 696 419 703 461 q 671 303 679 336 q 542 74 636 161 q 303 -14 447 -14 m 303 67 q 482 131 404 67 q 588 310 560 194 q 610 413 596 343 q 617 483 617 454 q 573 612 617 568 q 446 656 529 656 q 267 592 344 656 q 163 413 190 528 q 140 310 149 367 q 133 238 133 265 q 176 110 133 154 q 303 67 219 67 m 483 826 q 460 829 468 826 q 443 840 451 832 l 322 960 q 315 978 315 967 q 324 998 315 989 q 344 1007 333 1007 l 404 1007 q 433 1002 424 1007 q 450 982 442 997 l 519 869 q 524 847 526 858 q 514 833 521 839 q 497 826 507 826 l 483 826 z "},"ő":{"ha":772,"x_min":47,"x_max":744,"o":"m 303 -14 q 114 53 181 -14 q 47 232 47 121 q 54 303 47 261 q 65 361 58 329 q 79 419 72 393 q 208 649 114 561 q 446 736 301 736 q 637 669 571 736 q 703 492 703 603 q 696 419 703 461 q 671 303 679 336 q 542 74 636 161 q 303 -14 447 -14 m 303 67 q 482 131 404 67 q 588 310 560 194 q 610 413 596 343 q 617 483 617 454 q 573 612 617 568 q 446 656 529 656 q 267 592 344 656 q 163 413 190 528 q 140 310 149 367 q 133 238 133 265 q 176 110 133 154 q 303 67 219 67 m 350 826 q 331 842 331 826 q 338 860 331 850 l 418 981 q 475 1007 435 1007 l 524 1007 q 546 988 546 1007 q 536 965 546 975 l 410 846 q 364 826 388 826 l 350 826 m 549 826 q 529 842 529 826 q 536 860 529 850 l 617 981 q 674 1007 633 1007 l 722 1007 q 744 988 744 1007 q 735 965 744 975 l 608 846 q 563 826 586 826 l 549 826 z "},"ō":{"ha":772,"x_min":47,"x_max":703,"o":"m 303 -14 q 114 53 181 -14 q 47 232 47 121 q 54 303 47 261 q 65 361 58 329 q 79 419 72 393 q 208 649 114 561 q 446 736 301 736 q 637 669 571 736 q 703 492 703 603 q 696 419 703 461 q 671 303 679 336 q 542 74 636 161 q 303 -14 447 -14 m 303 67 q 482 131 404 67 q 588 310 560 194 q 610 413 596 343 q 617 483 617 454 q 573 612 617 568 q 446 656 529 656 q 267 592 344 656 q 163 413 190 528 q 140 310 149 367 q 133 238 133 265 q 176 110 133 154 q 303 67 219 67 m 344 864 q 324 872 331 864 q 319 894 317 881 l 324 914 q 337 936 326 928 q 361 944 347 944 l 638 944 q 658 936 651 944 q 661 914 664 928 l 657 894 q 645 872 656 881 q 621 864 635 864 l 344 864 z "},"ø":{"ha":825,"x_min":-7,"x_max":849,"o":"m 342 -14 q 158 45 218 -14 q 93 200 99 104 l 36 179 q 17 175 24 175 q -1 181 4 175 q -4 200 -7 188 l 1 226 q 12 248 4 242 q 39 261 19 254 l 97 282 q 125 419 106 343 q 251 644 158 551 q 501 736 344 736 q 685 675 626 736 q 749 515 744 614 l 806 536 q 825 540 818 540 q 843 534 838 540 q 846 515 849 528 l 840 489 q 830 467 838 474 q 803 454 822 461 l 744 433 q 718 303 738 381 q 592 78 685 171 q 342 -14 499 -14 m 663 485 q 613 614 663 572 q 485 656 564 656 q 315 598 390 656 q 210 419 240 540 q 188 314 193 344 l 663 485 m 358 67 q 528 124 453 67 q 633 303 603 182 q 654 401 644 346 l 178 231 q 230 107 181 147 q 358 67 279 67 z "},"ǿ":{"ha":822,"x_min":-6,"x_max":847,"o":"m 475 826 q 460 833 465 826 q 458 849 456 839 q 469 867 461 858 l 590 982 q 617 1002 606 997 q 647 1007 628 1007 l 704 1007 q 719 1001 714 1007 q 725 986 725 994 q 714 964 725 971 l 536 840 q 515 829 524 832 q 490 826 506 826 l 475 826 m 342 -14 q 158 45 218 -14 q 93 200 99 104 l 36 179 q 17 175 24 175 q -1 181 4 175 q -4 200 -7 188 l 1 226 q 12 248 4 242 q 39 261 19 254 l 97 282 q 125 419 106 343 q 251 644 158 551 q 501 736 344 736 q 685 675 626 736 q 749 515 744 614 l 806 536 q 825 540 818 540 q 843 534 838 540 q 846 515 849 528 l 840 489 q 830 467 838 474 q 803 454 822 461 l 744 433 q 718 303 738 381 q 592 78 685 171 q 342 -14 499 -14 m 663 485 q 613 614 663 572 q 485 656 564 656 q 315 598 390 656 q 210 419 240 540 q 188 314 193 344 l 663 485 m 358 67 q 528 124 453 67 q 633 303 603 182 q 654 401 644 346 l 178 231 q 230 107 181 147 q 358 67 279 67 z "},"õ":{"ha":772,"x_min":47,"x_max":703,"o":"m 303 -14 q 114 53 181 -14 q 47 232 47 121 q 54 303 47 261 q 65 361 58 329 q 79 419 72 393 q 208 649 114 561 q 446 736 301 736 q 637 669 571 736 q 703 492 703 603 q 696 419 703 461 q 671 303 679 336 q 542 74 636 161 q 303 -14 447 -14 m 303 67 q 482 131 404 67 q 588 310 560 194 q 610 413 596 343 q 617 483 617 454 q 573 612 617 568 q 446 656 529 656 q 267 592 344 656 q 163 413 190 528 q 140 310 149 367 q 133 238 133 265 q 176 110 133 154 q 303 67 219 67 m 544 819 q 506 826 521 819 q 471 847 492 833 q 450 860 461 854 q 428 867 439 867 q 410 862 418 867 q 397 852 401 857 q 390 846 393 847 q 374 831 381 836 q 357 826 367 826 l 329 826 q 315 833 319 826 q 311 849 310 840 q 351 919 317 889 q 428 950 386 950 q 466 943 451 950 q 501 922 481 936 q 513 915 504 921 q 528 906 521 908 q 544 903 536 903 q 563 908 556 903 q 581 924 569 913 q 597 940 590 935 q 614 944 604 944 l 642 944 q 656 938 651 944 q 660 922 661 931 q 620 851 654 882 q 544 819 586 819 z "},"œ":{"ha":1293,"x_min":69,"x_max":1251,"o":"m 318 -14 q 133 51 196 -14 q 69 224 69 115 q 78 303 69 261 q 101 419 86 358 q 235 648 136 560 q 478 736 333 736 q 634 695 575 736 q 714 581 693 654 q 844 695 768 654 q 1008 736 919 736 q 1189 672 1126 736 q 1251 490 1251 607 q 1239 378 1251 439 l 1235 357 q 1221 335 1232 343 q 1196 326 1210 326 l 701 326 l 699 313 q 694 260 694 286 q 739 122 694 176 q 865 67 783 67 q 991 97 938 67 q 1071 157 1044 128 q 1094 178 1088 174 q 1118 182 1101 182 l 1140 182 q 1158 176 1151 182 q 1165 161 1165 171 q 1120 92 1165 135 q 1003 18 1075 50 q 849 -14 931 -14 q 701 26 760 -14 q 621 140 643 67 q 492 26 568 67 q 318 -14 415 -14 m 335 67 q 508 130 433 67 q 611 310 582 193 q 632 413 625 364 q 639 479 639 451 q 592 610 639 564 q 461 656 544 656 q 288 592 363 656 q 185 413 214 529 q 164 310 171 358 q 157 243 157 271 q 204 113 157 158 q 335 67 251 67 m 1160 404 l 1161 410 q 1168 476 1168 449 q 1122 606 1168 557 q 992 656 1076 656 q 816 586 890 656 q 719 410 742 517 l 718 404 l 1160 404 z "},"p":{"ha":804,"x_min":-26,"x_max":732,"o":"m 1 -264 q -19 -256 -12 -264 q -24 -233 -26 -247 l 174 692 q 186 714 176 706 q 210 722 196 722 l 233 722 q 254 714 247 722 q 258 692 261 706 l 244 626 q 349 708 294 681 q 489 736 404 736 q 674 663 617 736 q 732 476 732 590 q 726 400 732 433 q 710 322 722 372 q 585 82 672 178 q 346 -14 499 -14 q 132 96 189 -14 l 61 -233 q 49 -256 58 -247 q 25 -264 39 -264 l 1 -264 m 346 67 q 521 139 451 67 q 624 322 590 211 q 640 400 633 356 q 647 479 647 446 q 489 656 647 656 q 353 619 414 656 q 253 527 292 583 q 199 411 214 471 q 175 303 189 372 q 169 247 169 267 q 213 118 169 169 q 346 67 256 67 z "},"þ":{"ha":804,"x_min":-26,"x_max":732,"o":"m 1 -264 q -19 -256 -12 -264 q -24 -233 -26 -247 l 231 956 q 243 978 233 969 q 267 986 253 986 l 290 986 q 311 978 304 986 q 315 956 318 969 l 244 626 q 347 707 290 678 q 489 736 404 736 q 674 663 617 736 q 732 476 732 590 q 726 400 732 433 q 710 322 722 372 q 585 82 672 178 q 346 -14 499 -14 q 132 96 189 -14 l 61 -233 q 49 -256 58 -247 q 25 -264 39 -264 l 1 -264 m 346 67 q 521 139 451 67 q 624 322 590 211 q 640 400 633 356 q 647 479 647 446 q 489 656 647 656 q 353 619 414 656 q 253 527 292 583 q 199 411 214 471 q 175 303 189 372 q 169 247 169 267 q 213 118 169 169 q 346 67 256 67 z "},"q":{"ha":806,"x_min":50,"x_max":753,"o":"m 493 -264 q 473 -256 479 -264 q 469 -233 467 -247 l 539 96 q 432 15 489 43 q 296 -14 375 -14 q 108 57 167 -14 q 50 240 50 128 q 56 315 50 282 q 75 407 61 350 q 199 642 110 547 q 438 736 288 736 q 572 706 519 736 q 651 626 625 676 l 665 692 q 678 714 668 706 q 703 722 689 722 l 726 722 q 747 714 740 722 q 750 692 753 706 l 554 -233 q 541 -256 551 -247 q 517 -264 531 -264 l 493 -264 m 296 67 q 430 101 369 67 q 530 190 490 136 q 583 303 569 244 q 606 411 599 363 q 611 474 611 439 q 570 604 611 553 q 438 656 529 656 q 261 583 331 656 q 158 400 192 511 q 142 322 149 367 q 133 235 133 261 q 170 112 133 157 q 296 67 207 67 z "},"r":{"ha":486,"x_min":29,"x_max":531,"o":"m 57 0 q 36 8 43 0 q 32 31 29 17 l 172 690 q 185 713 175 704 q 210 722 196 722 l 232 722 q 253 713 246 722 q 257 690 260 704 l 243 626 q 328 698 275 674 q 453 722 382 722 l 504 722 q 524 714 518 722 q 528 692 531 706 l 524 672 q 512 650 522 658 q 488 642 501 642 l 428 642 q 285 593 344 642 q 208 461 226 544 l 117 31 q 103 8 114 17 q 79 0 93 0 l 57 0 z "},"ŕ":{"ha":486,"x_min":31,"x_max":583,"o":"m 57 0 q 36 8 43 0 q 32 31 29 17 l 172 690 q 185 713 175 704 q 210 722 196 722 l 232 722 q 253 713 246 722 q 257 690 260 704 l 243 626 q 328 698 275 674 q 453 722 382 722 l 504 722 q 524 714 518 722 q 528 692 531 706 l 524 672 q 512 650 522 658 q 488 642 501 642 l 428 642 q 285 593 344 642 q 208 461 226 544 l 117 31 q 103 8 114 17 q 79 0 93 0 l 57 0 m 333 826 q 319 833 324 826 q 317 849 314 839 q 328 867 319 858 l 449 982 q 475 1002 464 997 q 506 1007 486 1007 l 563 1007 q 578 1001 572 1007 q 583 986 583 994 q 572 964 583 971 l 394 840 q 373 829 382 832 q 349 826 364 826 l 333 826 z "},"ř":{"ha":486,"x_min":31,"x_max":582,"o":"m 57 0 q 36 8 43 0 q 32 31 29 17 l 172 690 q 185 713 175 704 q 210 722 196 722 l 232 722 q 253 713 246 722 q 257 690 260 704 l 243 626 q 328 698 275 674 q 453 722 382 722 l 504 722 q 524 714 518 722 q 528 692 531 706 l 524 672 q 512 650 522 658 q 488 642 501 642 l 428 642 q 285 593 344 642 q 208 461 226 544 l 117 31 q 103 8 114 17 q 79 0 93 0 l 57 0 m 351 826 q 329 830 338 826 q 311 846 321 833 l 210 971 q 203 988 203 981 q 210 1001 203 996 q 225 1007 217 1007 l 253 1007 q 276 997 267 1007 l 367 914 l 493 997 q 502 1003 494 999 q 519 1007 510 1007 l 567 1007 q 582 993 582 1007 q 569 972 582 983 l 414 846 q 389 830 399 833 q 365 826 379 826 l 351 826 z "},"ŗ":{"ha":486,"x_min":-161,"x_max":529,"o":"m 57 0 q 36 8 43 0 q 32 31 29 17 l 172 690 q 185 713 175 704 q 210 722 196 722 l 232 722 q 253 713 246 722 q 257 690 260 704 l 243 626 q 328 698 275 674 q 453 722 382 722 l 504 722 q 524 714 518 722 q 528 692 531 706 l 524 672 q 512 650 522 658 q 488 642 501 642 l 428 642 q 285 593 344 642 q 208 461 226 544 l 117 31 q 103 8 114 17 q 79 0 93 0 l 57 0 m -144 -292 q -161 -275 -161 -292 l -158 -262 l -101 -107 q -58 -69 -90 -69 l 4 -69 q 18 -76 14 -69 q 19 -92 22 -83 q 8 -117 17 -104 l -78 -262 q -97 -285 -89 -279 q -119 -292 -106 -292 l -144 -292 z "},"s":{"ha":683,"x_min":29,"x_max":650,"o":"m 271 -14 q 132 13 186 -14 q 53 77 78 40 q 29 140 29 114 q 41 167 29 157 q 65 176 53 176 l 86 176 q 101 173 96 176 q 113 158 107 169 q 173 91 135 115 q 288 67 211 67 q 434 99 374 67 q 507 193 494 132 q 510 217 510 210 q 490 265 510 246 q 426 300 469 285 q 303 335 383 315 q 166 396 206 358 q 126 486 126 433 q 132 535 126 513 q 181 632 143 586 q 282 707 219 678 q 424 736 344 736 q 557 708 506 736 q 629 644 608 681 q 646 583 650 608 q 633 562 644 571 q 610 553 622 553 l 589 553 q 563 571 569 553 q 535 616 550 599 q 490 644 519 633 q 407 656 460 656 q 278 622 326 656 q 217 535 229 589 q 214 511 214 518 q 254 450 214 475 q 400 400 294 425 q 551 337 506 375 q 597 239 597 299 q 592 193 597 226 q 537 89 579 136 q 426 14 494 42 q 271 -14 358 -14 z "},"ś":{"ha":681,"x_min":29,"x_max":646,"o":"m 271 -14 q 132 13 186 -14 q 53 77 78 40 q 29 140 29 114 q 41 167 29 157 q 65 176 53 176 l 86 176 q 101 173 96 176 q 113 158 107 169 q 173 91 135 115 q 288 67 211 67 q 434 99 374 67 q 507 193 494 132 q 510 217 510 210 q 490 265 510 246 q 426 300 469 285 q 303 335 383 315 q 166 396 206 358 q 126 486 126 433 q 132 535 126 513 q 181 632 143 586 q 282 707 219 678 q 424 736 344 736 q 557 708 506 736 q 629 644 608 681 q 646 583 650 608 q 633 562 644 571 q 610 553 622 553 l 589 553 q 563 571 569 553 q 535 616 550 599 q 490 644 519 633 q 407 656 460 656 q 278 622 326 656 q 217 535 229 589 q 214 511 214 518 q 254 450 214 475 q 400 400 294 425 q 551 337 506 375 q 597 239 597 299 q 592 193 597 226 q 537 89 579 136 q 426 14 494 42 q 271 -14 358 -14 m 392 826 q 377 833 382 826 q 375 849 372 839 q 386 867 378 858 l 507 982 q 533 1002 522 997 q 564 1007 544 1007 l 621 1007 q 636 1001 631 1007 q 642 986 642 994 q 631 964 642 971 l 453 840 q 431 829 440 832 q 407 826 422 826 l 392 826 z "},"š":{"ha":681,"x_min":29,"x_max":647,"o":"m 271 -14 q 132 13 186 -14 q 53 77 78 40 q 29 140 29 114 q 41 167 29 157 q 65 176 53 176 l 86 176 q 101 173 96 176 q 113 158 107 169 q 173 91 135 115 q 288 67 211 67 q 434 99 374 67 q 507 193 494 132 q 510 217 510 210 q 490 265 510 246 q 426 300 469 285 q 303 335 383 315 q 166 396 206 358 q 126 486 126 433 q 132 535 126 513 q 181 632 143 586 q 282 707 219 678 q 424 736 344 736 q 557 708 506 736 q 629 644 608 681 q 646 583 650 608 q 633 562 644 571 q 610 553 622 553 l 589 553 q 563 571 569 553 q 535 616 550 599 q 490 644 519 633 q 407 656 460 656 q 278 622 326 656 q 217 535 229 589 q 214 511 214 518 q 254 450 214 475 q 400 400 294 425 q 551 337 506 375 q 597 239 597 299 q 592 193 597 226 q 537 89 579 136 q 426 14 494 42 q 271 -14 358 -14 m 417 826 q 394 830 403 826 q 376 846 386 833 l 275 971 q 268 988 268 981 q 275 1001 268 996 q 290 1007 282 1007 l 318 1007 q 342 997 332 1007 l 432 914 l 558 997 q 567 1003 560 999 q 585 1007 575 1007 l 632 1007 q 647 993 647 1007 q 635 972 647 983 l 479 846 q 454 830 464 833 q 431 826 444 826 l 417 826 z "},"ş":{"ha":683,"x_min":25,"x_max":650,"o":"m 207 -306 q 131 -287 163 -306 q 99 -249 99 -268 q 106 -235 99 -240 l 129 -217 q 143 -211 136 -211 q 160 -220 149 -211 q 184 -235 172 -229 q 218 -242 196 -242 q 264 -226 243 -242 q 290 -186 285 -211 q 292 -175 292 -182 q 278 -144 292 -156 q 242 -133 264 -133 q 201 -140 222 -133 q 174 -147 179 -147 q 157 -139 163 -147 l 140 -115 q 138 -108 138 -110 q 145 -89 138 -100 q 156 -74 153 -78 l 199 -7 q 97 33 136 4 q 41 94 57 63 q 29 146 25 126 q 42 168 31 160 q 65 176 54 176 l 86 176 q 101 173 96 176 q 113 158 107 169 q 173 91 135 115 q 288 67 211 67 q 434 99 374 67 q 507 193 494 132 q 510 217 510 210 q 490 265 510 246 q 426 300 469 285 q 303 335 383 315 q 166 396 206 358 q 126 486 126 433 q 132 535 126 513 q 181 632 143 586 q 282 707 219 678 q 424 736 344 736 q 557 708 506 736 q 629 644 608 681 q 646 583 650 608 q 633 562 644 571 q 610 553 622 553 l 589 553 q 563 571 569 553 q 535 616 550 599 q 490 644 519 633 q 407 656 460 656 q 278 622 326 656 q 217 535 229 589 q 214 511 214 518 q 254 450 214 475 q 400 400 294 425 q 551 337 506 375 q 597 239 597 299 q 592 193 597 226 q 537 89 579 136 q 426 14 494 42 q 271 -14 358 -14 l 225 -81 q 281 -69 244 -69 q 342 -92 319 -69 q 364 -154 364 -115 q 321 -260 364 -215 q 207 -306 278 -306 z "},"ŝ":{"ha":681,"x_min":29,"x_max":646,"o":"m 271 -14 q 132 13 186 -14 q 53 77 78 40 q 29 140 29 114 q 41 167 29 157 q 65 176 53 176 l 86 176 q 101 173 96 176 q 113 158 107 169 q 173 91 135 115 q 288 67 211 67 q 434 99 374 67 q 507 193 494 132 q 510 217 510 210 q 490 265 510 246 q 426 300 469 285 q 303 335 383 315 q 166 396 206 358 q 126 486 126 433 q 132 535 126 513 q 181 632 143 586 q 282 707 219 678 q 424 736 344 736 q 557 708 506 736 q 629 644 608 681 q 646 583 650 608 q 633 562 644 571 q 610 553 622 553 l 589 553 q 563 571 569 553 q 535 616 550 599 q 490 644 519 633 q 407 656 460 656 q 278 622 326 656 q 217 535 229 589 q 214 511 214 518 q 254 450 214 475 q 400 400 294 425 q 551 337 506 375 q 597 239 597 299 q 592 193 597 226 q 537 89 579 136 q 426 14 494 42 q 271 -14 358 -14 m 235 826 q 219 840 219 826 q 232 861 219 851 l 388 988 q 413 1003 403 1000 q 436 1007 424 1007 l 450 1007 q 472 1003 463 1007 q 490 988 481 1000 l 592 863 q 597 847 597 856 q 591 833 597 839 q 576 826 585 826 l 549 826 q 525 836 535 826 l 435 919 l 308 836 q 299 831 307 835 q 282 826 292 826 l 235 826 z "},"ș":{"ha":681,"x_min":29,"x_max":646,"o":"m 271 -14 q 132 13 186 -14 q 53 77 78 40 q 29 140 29 114 q 41 167 29 157 q 65 176 53 176 l 86 176 q 101 173 96 176 q 113 158 107 169 q 173 91 135 115 q 288 67 211 67 q 434 99 374 67 q 507 193 494 132 q 510 217 510 210 q 490 265 510 246 q 426 300 469 285 q 303 335 383 315 q 166 396 206 358 q 126 486 126 433 q 132 535 126 513 q 181 632 143 586 q 282 707 219 678 q 424 736 344 736 q 557 708 506 736 q 629 644 608 681 q 646 583 650 608 q 633 562 644 571 q 610 553 622 553 l 589 553 q 563 571 569 553 q 535 616 550 599 q 490 644 519 633 q 407 656 460 656 q 278 622 326 656 q 217 535 229 589 q 214 511 214 518 q 254 450 214 475 q 400 400 294 425 q 551 337 506 375 q 597 239 597 299 q 592 193 597 226 q 537 89 579 136 q 426 14 494 42 q 271 -14 358 -14 m 96 -292 q 79 -275 79 -292 l 82 -262 l 139 -107 q 182 -69 150 -69 l 244 -69 q 258 -76 254 -69 q 260 -92 263 -83 q 249 -117 257 -104 l 163 -262 q 143 -285 151 -279 q 121 -292 135 -292 l 96 -292 z "},"ß":{"ha":789,"x_min":50,"x_max":771,"o":"m 76 0 q 56 8 63 0 q 53 31 50 17 l 194 697 q 308 904 221 822 q 536 986 394 986 q 713 930 656 986 q 771 789 771 874 q 764 733 771 764 q 699 599 747 651 q 594 524 650 546 q 717 353 717 482 q 708 281 717 317 q 649 149 694 214 q 527 42 604 85 q 349 0 450 0 l 244 0 q 224 8 231 0 q 221 31 218 17 l 225 50 q 238 72 228 64 q 263 81 249 81 l 353 81 q 534 137 463 81 q 624 281 606 193 q 629 326 629 314 q 580 440 629 397 q 438 482 531 482 l 347 482 q 327 490 333 482 q 324 513 321 499 l 328 532 q 340 554 329 546 q 364 563 350 563 l 440 563 q 679 733 644 564 q 683 771 683 754 q 640 869 683 832 q 519 906 596 906 q 364 851 428 906 q 278 690 300 796 l 138 31 q 124 8 135 17 q 100 0 114 0 l 76 0 z "},"ſ":{"ha":374,"x_min":72,"x_max":614,"o":"m 178 31 q 165 8 175 17 q 142 0 156 0 l 118 0 q 97 8 104 0 q 93 31 90 17 l 224 642 l 100 642 q 79 650 86 642 q 75 672 72 658 l 79 692 q 92 714 82 706 q 117 722 103 722 l 240 722 l 257 801 q 341 965 278 901 q 507 1028 404 1028 l 588 1028 q 608 1019 601 1028 q 611 997 614 1011 l 607 978 q 594 956 604 964 q 569 947 583 947 l 507 947 q 397 909 436 947 q 340 794 357 871 l 178 31 z "},"t":{"ha":488,"x_min":72,"x_max":508,"o":"m 275 0 q 145 34 182 0 q 108 132 108 68 q 121 232 108 178 l 208 642 l 100 642 q 79 650 86 642 q 75 672 72 658 l 79 692 q 92 714 82 706 q 117 722 103 722 l 225 722 l 275 956 q 288 978 278 969 q 311 986 297 986 l 335 986 q 356 978 349 986 q 360 956 363 969 l 310 722 l 482 722 q 502 714 496 722 q 506 692 508 706 l 501 672 q 490 650 500 658 q 465 642 479 642 l 293 642 l 207 238 q 192 144 192 169 q 210 96 192 111 q 276 81 229 81 l 360 81 q 380 72 374 81 q 383 50 386 64 l 379 31 q 367 8 376 17 q 343 0 357 0 l 275 0 z "},"ŧ":{"ha":499,"x_min":35,"x_max":517,"o":"m 283 0 q 153 34 190 0 q 117 132 117 68 q 129 232 117 178 l 169 422 l 61 422 q 41 431 47 422 q 38 453 35 439 l 42 472 q 54 494 44 486 q 78 503 64 503 l 186 503 l 217 642 l 108 642 q 88 650 94 642 q 83 672 81 658 l 88 692 q 101 714 90 706 q 125 722 111 722 l 233 722 l 283 956 q 296 978 286 969 q 319 986 306 986 l 343 986 q 364 978 357 986 q 368 956 371 969 l 318 722 l 490 722 q 510 714 504 722 q 514 692 517 706 l 510 672 q 498 650 508 658 q 474 642 488 642 l 301 642 l 271 503 l 443 503 q 464 494 457 503 q 468 472 471 486 l 464 453 q 451 431 461 439 q 426 422 440 422 l 254 422 l 215 238 q 200 144 200 169 q 219 96 200 111 q 285 81 238 81 l 368 81 q 388 72 382 81 q 392 50 394 64 l 388 31 q 375 8 385 17 q 351 0 365 0 l 283 0 z "},"ť":{"ha":488,"x_min":75,"x_max":669,"o":"m 275 0 q 145 34 182 0 q 108 132 108 68 q 121 232 108 178 l 208 642 l 100 642 q 79 650 86 642 q 75 672 72 658 l 79 692 q 92 714 82 706 q 117 722 103 722 l 225 722 l 275 956 q 288 978 278 969 q 311 986 297 986 l 335 986 q 356 978 349 986 q 360 956 363 969 l 310 722 l 482 722 q 502 714 496 722 q 506 692 508 706 l 501 672 q 490 650 500 658 q 465 642 479 642 l 293 642 l 207 238 q 192 144 192 169 q 210 96 192 111 q 276 81 229 81 l 360 81 q 380 72 374 81 q 383 50 386 64 l 379 31 q 367 8 376 17 q 343 0 357 0 l 275 0 m 504 764 q 488 781 488 764 l 490 793 l 547 949 q 590 986 558 986 l 653 986 q 667 979 663 986 q 668 964 671 972 q 657 939 665 951 l 571 793 q 551 770 560 776 q 529 764 543 764 l 504 764 z "},"ț":{"ha":488,"x_min":28,"x_max":507,"o":"m 275 0 q 145 34 182 0 q 108 132 108 68 q 121 232 108 178 l 208 642 l 100 642 q 79 650 86 642 q 75 672 72 658 l 79 692 q 92 714 82 706 q 117 722 103 722 l 225 722 l 275 956 q 288 978 278 969 q 311 986 297 986 l 335 986 q 356 978 349 986 q 360 956 363 969 l 310 722 l 482 722 q 502 714 496 722 q 506 692 508 706 l 501 672 q 490 650 500 658 q 465 642 479 642 l 293 642 l 207 238 q 192 144 192 169 q 210 96 192 111 q 276 81 229 81 l 360 81 q 380 72 374 81 q 383 50 386 64 l 379 31 q 367 8 376 17 q 343 0 357 0 l 275 0 m 44 -292 q 28 -275 28 -292 l 31 -262 l 88 -107 q 131 -69 99 -69 l 193 -69 q 207 -76 203 -69 q 208 -92 211 -83 q 197 -117 206 -104 l 111 -262 q 92 -285 100 -279 q 69 -292 83 -292 l 44 -292 z "},"u":{"ha":814,"x_min":71,"x_max":763,"o":"m 308 -14 q 128 43 186 -14 q 71 199 71 100 q 82 297 71 242 l 165 692 q 178 714 168 706 q 203 722 189 722 l 226 722 q 247 714 240 722 q 250 692 253 706 l 168 304 q 154 197 154 238 q 190 99 154 131 q 308 67 226 67 q 492 131 414 67 q 593 304 569 194 l 675 692 q 688 714 678 706 q 713 722 699 722 l 736 722 q 756 714 750 722 q 760 692 763 706 l 619 31 q 607 8 617 17 q 583 0 597 0 l 560 0 q 539 8 546 0 q 535 31 532 17 l 549 96 q 481 35 510 57 q 410 -1 451 13 q 308 -14 368 -14 z "},"ú":{"ha":814,"x_min":71,"x_max":761,"o":"m 308 -14 q 128 43 186 -14 q 71 199 71 100 q 82 297 71 242 l 165 692 q 178 714 168 706 q 203 722 189 722 l 226 722 q 247 714 240 722 q 250 692 253 706 l 168 304 q 154 197 154 238 q 190 99 154 131 q 308 67 226 67 q 492 131 414 67 q 593 304 569 194 l 675 692 q 688 714 678 706 q 713 722 699 722 l 736 722 q 756 714 750 722 q 760 692 763 706 l 619 31 q 607 8 617 17 q 583 0 597 0 l 560 0 q 539 8 546 0 q 535 31 532 17 l 549 96 q 481 35 510 57 q 410 -1 451 13 q 308 -14 368 -14 m 450 826 q 435 833 440 826 q 433 849 431 839 q 444 867 436 858 l 565 982 q 592 1002 581 997 q 622 1007 603 1007 l 679 1007 q 694 1001 689 1007 q 700 986 700 994 q 689 964 700 971 l 511 840 q 490 829 499 832 q 465 826 481 826 l 450 826 z "},"ŭ":{"ha":814,"x_min":71,"x_max":761,"o":"m 308 -14 q 128 43 186 -14 q 71 199 71 100 q 82 297 71 242 l 165 692 q 178 714 168 706 q 203 722 189 722 l 226 722 q 247 714 240 722 q 250 692 253 706 l 168 304 q 154 197 154 238 q 190 99 154 131 q 308 67 226 67 q 492 131 414 67 q 593 304 569 194 l 675 692 q 688 714 678 706 q 713 722 699 722 l 736 722 q 756 714 750 722 q 760 692 763 706 l 619 31 q 607 8 617 17 q 583 0 597 0 l 560 0 q 539 8 546 0 q 535 31 532 17 l 549 96 q 481 35 510 57 q 410 -1 451 13 q 308 -14 368 -14 m 485 819 q 385 853 417 819 q 353 940 353 888 q 357 981 353 960 q 368 999 360 992 q 389 1007 376 1007 l 410 1007 q 428 999 422 1007 q 431 981 433 992 q 426 946 426 964 q 488 889 426 889 q 589 981 563 889 q 600 999 592 992 q 621 1007 608 1007 l 642 1007 q 660 999 654 1007 q 663 981 665 992 q 608 864 647 908 q 485 819 568 819 z "},"û":{"ha":814,"x_min":71,"x_max":761,"o":"m 308 -14 q 128 43 186 -14 q 71 199 71 100 q 82 297 71 242 l 165 692 q 178 714 168 706 q 203 722 189 722 l 226 722 q 247 714 240 722 q 250 692 253 706 l 168 304 q 154 197 154 238 q 190 99 154 131 q 308 67 226 67 q 492 131 414 67 q 593 304 569 194 l 675 692 q 688 714 678 706 q 713 722 699 722 l 736 722 q 756 714 750 722 q 760 692 763 706 l 619 31 q 607 8 617 17 q 583 0 597 0 l 560 0 q 539 8 546 0 q 535 31 532 17 l 549 96 q 481 35 510 57 q 410 -1 451 13 q 308 -14 368 -14 m 290 826 q 275 840 275 826 q 288 861 275 851 l 443 988 q 469 1003 458 1000 q 492 1007 479 1007 l 506 1007 q 527 1003 518 1007 q 546 988 536 1000 l 647 863 q 653 847 653 856 q 647 833 653 839 q 632 826 640 826 l 604 826 q 581 836 590 826 l 490 919 l 364 836 q 355 831 363 835 q 338 826 347 826 l 290 826 z "},"ü":{"ha":814,"x_min":71,"x_max":761,"o":"m 308 -14 q 128 43 186 -14 q 71 199 71 100 q 82 297 71 242 l 165 692 q 178 714 168 706 q 203 722 189 722 l 226 722 q 247 714 240 722 q 250 692 253 706 l 168 304 q 154 197 154 238 q 190 99 154 131 q 308 67 226 67 q 492 131 414 67 q 593 304 569 194 l 675 692 q 688 714 678 706 q 713 722 699 722 l 736 722 q 756 714 750 722 q 760 692 763 706 l 619 31 q 607 8 617 17 q 583 0 597 0 l 560 0 q 539 8 546 0 q 535 31 532 17 l 549 96 q 481 35 510 57 q 410 -1 451 13 q 308 -14 368 -14 m 354 871 q 333 879 340 871 q 329 901 326 888 l 342 954 q 354 977 344 968 q 378 986 364 986 l 431 986 q 452 977 444 986 q 457 954 460 968 l 444 901 q 431 879 442 888 q 407 871 421 871 l 354 871 m 567 871 q 546 879 553 871 q 542 901 539 888 l 554 954 q 567 977 557 968 q 590 986 576 986 l 643 986 q 665 977 657 986 q 669 954 672 968 l 657 901 q 644 879 654 888 q 619 871 633 871 l 567 871 z "},"ù":{"ha":814,"x_min":71,"x_max":761,"o":"m 308 -14 q 128 43 186 -14 q 71 199 71 100 q 82 297 71 242 l 165 692 q 178 714 168 706 q 203 722 189 722 l 226 722 q 247 714 240 722 q 250 692 253 706 l 168 304 q 154 197 154 238 q 190 99 154 131 q 308 67 226 67 q 492 131 414 67 q 593 304 569 194 l 675 692 q 688 714 678 706 q 713 722 699 722 l 736 722 q 756 714 750 722 q 760 692 763 706 l 619 31 q 607 8 617 17 q 583 0 597 0 l 560 0 q 539 8 546 0 q 535 31 532 17 l 549 96 q 481 35 510 57 q 410 -1 451 13 q 308 -14 368 -14 m 496 826 q 472 829 481 826 q 456 840 464 832 l 335 960 q 328 978 328 967 q 337 998 328 989 q 357 1007 346 1007 l 417 1007 q 445 1002 436 1007 q 463 982 454 997 l 532 869 q 536 847 539 858 q 526 833 533 839 q 510 826 519 826 l 496 826 z "},"ű":{"ha":814,"x_min":71,"x_max":761,"o":"m 308 -14 q 128 43 186 -14 q 71 199 71 100 q 82 297 71 242 l 165 692 q 178 714 168 706 q 203 722 189 722 l 226 722 q 247 714 240 722 q 250 692 253 706 l 168 304 q 154 197 154 238 q 190 99 154 131 q 308 67 226 67 q 492 131 414 67 q 593 304 569 194 l 675 692 q 688 714 678 706 q 713 722 699 722 l 736 722 q 756 714 750 722 q 760 692 763 706 l 619 31 q 607 8 617 17 q 583 0 597 0 l 560 0 q 539 8 546 0 q 535 31 532 17 l 549 96 q 481 35 510 57 q 410 -1 451 13 q 308 -14 368 -14 m 349 826 q 329 842 329 826 q 336 860 329 850 l 417 981 q 474 1007 433 1007 l 522 1007 q 544 988 544 1007 q 535 965 544 975 l 408 846 q 363 826 386 826 l 349 826 m 547 826 q 528 842 528 826 q 535 860 528 850 l 615 981 q 672 1007 632 1007 l 721 1007 q 743 988 743 1007 q 733 965 743 975 l 607 846 q 561 826 585 826 l 547 826 z "},"ū":{"ha":814,"x_min":71,"x_max":761,"o":"m 308 -14 q 128 43 186 -14 q 71 199 71 100 q 82 297 71 242 l 165 692 q 178 714 168 706 q 203 722 189 722 l 226 722 q 247 714 240 722 q 250 692 253 706 l 168 304 q 154 197 154 238 q 190 99 154 131 q 308 67 226 67 q 492 131 414 67 q 593 304 569 194 l 675 692 q 688 714 678 706 q 713 722 699 722 l 736 722 q 756 714 750 722 q 760 692 763 706 l 619 31 q 607 8 617 17 q 583 0 597 0 l 560 0 q 539 8 546 0 q 535 31 532 17 l 549 96 q 481 35 510 57 q 410 -1 451 13 q 308 -14 368 -14 m 349 864 q 328 872 335 864 q 324 894 321 881 l 328 914 q 341 936 331 928 q 365 944 351 944 l 642 944 q 662 936 656 944 q 665 914 668 928 l 661 894 q 649 872 660 881 q 625 864 639 864 l 349 864 z "},"ų":{"ha":813,"x_min":90,"x_max":782,"o":"m 524 -306 q 435 -272 469 -306 q 401 -178 401 -239 q 407 -125 401 -151 q 465 -18 421 -64 q 558 49 510 28 l 560 60 l 568 96 q 456 14 515 42 q 313 -14 396 -14 q 146 44 201 -14 q 90 203 90 103 q 101 297 90 244 l 185 692 q 198 714 188 706 q 222 722 208 722 l 246 722 q 266 714 260 722 q 269 692 272 706 l 188 304 q 178 219 178 261 q 343 67 178 67 q 516 130 443 67 q 613 304 589 193 l 694 692 q 708 714 697 706 q 732 722 718 722 l 756 722 q 776 714 769 722 q 779 692 782 706 l 639 31 q 610 0 635 11 l 606 -3 q 528 -51 556 -24 q 490 -125 500 -79 q 486 -162 486 -146 q 547 -226 486 -226 l 554 -226 q 574 -235 568 -226 q 578 -257 581 -243 l 574 -275 q 560 -297 571 -289 q 536 -306 550 -306 l 524 -306 z "},"ů":{"ha":814,"x_min":71,"x_max":761,"o":"m 308 -14 q 128 43 186 -14 q 71 199 71 100 q 82 297 71 242 l 165 692 q 178 714 168 706 q 203 722 189 722 l 226 722 q 247 714 240 722 q 250 692 253 706 l 168 304 q 154 197 154 238 q 190 99 154 131 q 308 67 226 67 q 492 131 414 67 q 593 304 569 194 l 675 692 q 688 714 678 706 q 713 722 699 722 l 736 722 q 756 714 750 722 q 760 692 763 706 l 619 31 q 607 8 617 17 q 583 0 597 0 l 560 0 q 539 8 546 0 q 535 31 532 17 l 549 96 q 481 35 510 57 q 410 -1 451 13 q 308 -14 368 -14 m 479 819 q 411 843 439 819 q 383 903 383 867 q 386 924 383 910 q 433 999 396 969 q 515 1028 469 1028 q 584 1005 557 1028 q 611 944 611 982 q 608 924 611 938 q 562 849 599 878 q 479 819 525 819 m 483 882 q 524 898 508 882 q 540 936 540 914 q 510 965 540 965 q 470 950 486 965 q 454 913 454 935 q 462 890 454 899 q 483 882 469 882 z "},"ũ":{"ha":814,"x_min":71,"x_max":761,"o":"m 308 -14 q 128 43 186 -14 q 71 199 71 100 q 82 297 71 242 l 165 692 q 178 714 168 706 q 203 722 189 722 l 226 722 q 247 714 240 722 q 250 692 253 706 l 168 304 q 154 197 154 238 q 190 99 154 131 q 308 67 226 67 q 492 131 414 67 q 593 304 569 194 l 675 692 q 688 714 678 706 q 713 722 699 722 l 736 722 q 756 714 750 722 q 760 692 763 706 l 619 31 q 607 8 617 17 q 583 0 597 0 l 560 0 q 539 8 546 0 q 535 31 532 17 l 549 96 q 481 35 510 57 q 410 -1 451 13 q 308 -14 368 -14 m 547 819 q 509 826 524 819 q 474 847 494 833 q 453 860 464 854 q 431 867 442 867 q 413 862 421 867 q 400 852 404 857 q 393 846 396 847 q 376 831 383 836 q 360 826 369 826 l 332 826 q 317 833 322 826 q 314 849 313 840 q 354 919 319 889 q 431 950 389 950 q 469 943 454 950 q 504 922 483 936 q 515 915 507 921 q 531 906 524 908 q 547 903 539 903 q 565 908 558 903 q 583 924 572 913 q 600 940 593 935 q 617 944 607 944 l 644 944 q 659 938 654 944 q 663 922 664 931 q 623 851 657 882 q 547 819 589 819 z "},"v":{"ha":740,"x_min":107,"x_max":751,"o":"m 268 0 q 239 8 247 0 q 226 35 231 17 l 108 689 l 107 696 q 115 715 107 708 q 135 722 124 722 l 161 722 q 193 692 188 722 l 299 101 l 661 701 q 674 715 665 708 q 696 722 683 722 l 729 722 q 744 716 738 722 q 751 700 751 710 q 744 679 751 690 l 353 35 q 330 8 342 17 q 297 0 318 0 l 268 0 z "},"w":{"ha":1092,"x_min":111,"x_max":1096,"o":"m 210 0 q 183 8 192 0 q 172 35 175 17 l 113 690 q 119 713 111 704 q 144 722 128 722 l 168 722 q 196 701 193 722 l 247 124 l 547 694 q 588 722 561 722 l 621 722 q 651 694 649 722 l 714 124 l 1008 701 q 1019 715 1011 708 q 1039 722 1026 722 l 1072 722 q 1096 704 1096 722 q 1090 685 1096 699 l 758 35 q 737 8 749 15 q 707 0 725 0 l 681 0 q 640 35 644 0 l 579 582 l 292 35 q 238 0 274 0 l 210 0 z "},"ẃ":{"ha":1092,"x_min":113,"x_max":1096,"o":"m 210 0 q 183 8 192 0 q 172 35 175 17 l 113 690 q 119 713 111 704 q 144 722 128 722 l 168 722 q 196 701 193 722 l 247 124 l 547 694 q 588 722 561 722 l 621 722 q 651 694 649 722 l 714 124 l 1008 701 q 1019 715 1011 708 q 1039 722 1026 722 l 1072 722 q 1096 704 1096 722 q 1090 685 1096 699 l 758 35 q 737 8 749 15 q 707 0 725 0 l 681 0 q 640 35 644 0 l 579 582 l 292 35 q 238 0 274 0 l 210 0 m 607 826 q 592 833 597 826 q 590 849 588 839 q 601 867 593 858 l 722 982 q 749 1002 738 997 q 779 1007 760 1007 l 836 1007 q 851 1001 846 1007 q 857 986 857 994 q 846 964 857 971 l 668 840 q 647 829 656 832 q 622 826 638 826 l 607 826 z "},"ŵ":{"ha":1092,"x_min":113,"x_max":1096,"o":"m 210 0 q 183 8 192 0 q 172 35 175 17 l 113 690 q 119 713 111 704 q 144 722 128 722 l 168 722 q 196 701 193 722 l 247 124 l 547 694 q 588 722 561 722 l 621 722 q 651 694 649 722 l 714 124 l 1008 701 q 1019 715 1011 708 q 1039 722 1026 722 l 1072 722 q 1096 704 1096 722 q 1090 685 1096 699 l 758 35 q 737 8 749 15 q 707 0 725 0 l 681 0 q 640 35 644 0 l 579 582 l 292 35 q 238 0 274 0 l 210 0 m 436 826 q 421 840 421 826 q 433 861 421 851 l 589 988 q 615 1003 604 1000 q 638 1007 625 1007 l 651 1007 q 673 1003 664 1007 q 692 988 682 1000 l 793 863 q 799 847 799 856 q 792 833 799 839 q 778 826 786 826 l 750 826 q 726 836 736 826 l 636 919 l 510 836 q 501 831 508 835 q 483 826 493 826 l 436 826 z "},"ẅ":{"ha":1092,"x_min":113,"x_max":1096,"o":"m 210 0 q 183 8 192 0 q 172 35 175 17 l 113 690 q 119 713 111 704 q 144 722 128 722 l 168 722 q 196 701 193 722 l 247 124 l 547 694 q 588 722 561 722 l 621 722 q 651 694 649 722 l 714 124 l 1008 701 q 1019 715 1011 708 q 1039 722 1026 722 l 1072 722 q 1096 704 1096 722 q 1090 685 1096 699 l 758 35 q 737 8 749 15 q 707 0 725 0 l 681 0 q 640 35 644 0 l 579 582 l 292 35 q 238 0 274 0 l 210 0 m 493 871 q 472 879 479 871 q 468 901 465 888 l 481 954 q 493 977 483 968 q 517 986 503 986 l 569 986 q 591 977 583 986 q 596 954 599 968 l 583 901 q 570 879 581 888 q 546 871 560 871 l 493 871 m 706 871 q 685 879 692 871 q 681 901 678 888 l 693 954 q 706 977 696 968 q 729 986 715 986 l 782 986 q 803 977 796 986 q 808 954 811 968 l 796 901 q 783 879 793 888 q 758 871 772 871 l 706 871 z "},"ẁ":{"ha":1092,"x_min":113,"x_max":1096,"o":"m 210 0 q 183 8 192 0 q 172 35 175 17 l 113 690 q 119 713 111 704 q 144 722 128 722 l 168 722 q 196 701 193 722 l 247 124 l 547 694 q 588 722 561 722 l 621 722 q 651 694 649 722 l 714 124 l 1008 701 q 1019 715 1011 708 q 1039 722 1026 722 l 1072 722 q 1096 704 1096 722 q 1090 685 1096 699 l 758 35 q 737 8 749 15 q 707 0 725 0 l 681 0 q 640 35 644 0 l 579 582 l 292 35 q 238 0 274 0 l 210 0 m 624 826 q 600 829 608 826 q 583 840 592 832 l 463 960 q 456 978 456 967 q 465 998 456 989 q 485 1007 474 1007 l 544 1007 q 573 1002 564 1007 q 590 982 582 997 l 660 869 q 664 847 667 858 q 654 833 661 839 q 638 826 647 826 l 624 826 z "},"x":{"ha":718,"x_min":-32,"x_max":729,"o":"m -4 0 q -24 8 -17 0 q -32 28 -32 17 q -24 47 -32 39 l 296 369 l 121 679 q 117 694 117 686 q 124 714 117 706 q 143 722 131 722 l 169 722 q 203 701 190 722 l 358 425 l 633 701 q 653 717 644 713 q 679 722 661 722 l 701 722 q 721 715 713 724 q 729 694 729 706 q 719 674 729 683 l 401 351 l 574 43 q 579 25 579 32 q 572 7 579 14 q 553 0 565 0 l 526 0 q 492 21 504 0 l 338 294 l 67 21 q 47 6 56 11 q 21 0 39 0 l -4 0 z "},"y":{"ha":742,"x_min":65,"x_max":761,"o":"m 88 -264 q 65 -242 65 -264 q 74 -218 65 -231 l 244 49 l 108 686 q 107 696 107 689 q 115 715 107 707 q 138 722 122 722 l 163 722 q 192 701 188 722 l 310 150 l 667 701 q 703 722 679 722 l 736 722 q 753 716 746 722 q 761 700 761 710 q 754 682 761 693 l 156 -243 q 119 -264 143 -264 l 88 -264 z "},"ý":{"ha":742,"x_min":65,"x_max":761,"o":"m 88 -264 q 65 -242 65 -264 q 74 -218 65 -231 l 244 49 l 108 686 q 107 696 107 689 q 115 715 107 707 q 138 722 122 722 l 163 722 q 192 701 188 722 l 310 150 l 667 701 q 703 722 679 722 l 736 722 q 753 716 746 722 q 761 700 761 710 q 754 682 761 693 l 156 -243 q 119 -264 143 -264 l 88 -264 m 419 826 q 405 833 410 826 q 403 849 400 839 q 414 867 406 858 l 535 982 q 561 1002 550 997 q 592 1007 572 1007 l 649 1007 q 664 1001 658 1007 q 669 986 669 994 q 658 964 669 971 l 481 840 q 459 829 468 832 q 435 826 450 826 l 419 826 z "},"ŷ":{"ha":742,"x_min":65,"x_max":761,"o":"m 88 -264 q 65 -242 65 -264 q 74 -218 65 -231 l 244 49 l 108 686 q 107 696 107 689 q 115 715 107 707 q 138 722 122 722 l 163 722 q 192 701 188 722 l 310 150 l 667 701 q 703 722 679 722 l 736 722 q 753 716 746 722 q 761 700 761 710 q 754 682 761 693 l 156 -243 q 119 -264 143 -264 l 88 -264 m 260 826 q 244 840 244 826 q 257 861 244 851 l 413 988 q 438 1003 428 1000 q 461 1007 449 1007 l 475 1007 q 497 1003 488 1007 q 515 988 506 1000 l 617 863 q 622 847 622 856 q 616 833 622 839 q 601 826 610 826 l 574 826 q 550 836 560 826 l 460 919 l 333 836 q 324 831 332 835 q 307 826 317 826 l 260 826 z "},"ÿ":{"ha":742,"x_min":65,"x_max":761,"o":"m 88 -264 q 65 -242 65 -264 q 74 -218 65 -231 l 244 49 l 108 686 q 107 696 107 689 q 115 715 107 707 q 138 722 122 722 l 163 722 q 192 701 188 722 l 310 150 l 667 701 q 703 722 679 722 l 736 722 q 753 716 746 722 q 761 700 761 710 q 754 682 761 693 l 156 -243 q 119 -264 143 -264 l 88 -264 m 317 871 q 296 879 303 871 q 292 901 289 888 l 304 954 q 317 977 307 968 q 340 986 326 986 l 393 986 q 415 977 407 986 q 419 954 422 968 l 407 901 q 394 879 404 888 q 369 871 383 871 l 317 871 m 529 871 q 508 879 515 871 q 504 901 501 888 l 517 954 q 529 977 519 968 q 553 986 539 986 l 606 986 q 627 977 619 986 q 632 954 635 968 l 619 901 q 606 879 617 888 q 582 871 596 871 l 529 871 z "},"ỳ":{"ha":742,"x_min":65,"x_max":761,"o":"m 88 -264 q 65 -242 65 -264 q 74 -218 65 -231 l 244 49 l 108 686 q 107 696 107 689 q 115 715 107 707 q 138 722 122 722 l 163 722 q 192 701 188 722 l 310 150 l 667 701 q 703 722 679 722 l 736 722 q 753 716 746 722 q 761 700 761 710 q 754 682 761 693 l 156 -243 q 119 -264 143 -264 l 88 -264 m 456 826 q 432 829 440 826 q 415 840 424 832 l 294 960 q 288 978 288 967 q 297 998 288 989 q 317 1007 306 1007 l 376 1007 q 405 1002 396 1007 q 422 982 414 997 l 492 869 q 496 847 499 858 q 486 833 493 839 q 469 826 479 826 l 456 826 z "},"z":{"ha":675,"x_min":-28,"x_max":660,"o":"m 0 0 q -21 8 -14 0 q -25 31 -28 17 l -19 54 q -7 81 -17 69 l 533 642 l 150 642 q 129 650 136 642 q 125 672 122 658 l 129 692 q 142 714 132 706 q 167 722 153 722 l 633 722 q 653 714 647 722 q 657 692 660 706 l 653 668 q 639 642 651 654 l 100 81 l 525 81 q 545 72 539 81 q 549 50 551 64 l 544 31 q 532 8 542 17 q 508 0 522 0 l 0 0 z "},"ź":{"ha":675,"x_min":-26,"x_max":658,"o":"m 0 0 q -21 8 -14 0 q -25 31 -28 17 l -19 54 q -7 81 -17 69 l 533 642 l 150 642 q 129 650 136 642 q 125 672 122 658 l 129 692 q 142 714 132 706 q 167 722 153 722 l 633 722 q 653 714 647 722 q 657 692 660 706 l 653 668 q 639 642 651 654 l 100 81 l 525 81 q 545 72 539 81 q 549 50 551 64 l 544 31 q 532 8 542 17 q 508 0 522 0 l 0 0 m 403 826 q 388 833 393 826 q 386 849 383 839 q 397 867 389 858 l 518 982 q 544 1002 533 997 q 575 1007 556 1007 l 632 1007 q 647 1001 642 1007 q 653 986 653 994 q 642 964 653 971 l 464 840 q 442 829 451 832 q 418 826 433 826 l 403 826 z "},"ž":{"ha":675,"x_min":-26,"x_max":658,"o":"m 0 0 q -21 8 -14 0 q -25 31 -28 17 l -19 54 q -7 81 -17 69 l 533 642 l 150 642 q 129 650 136 642 q 125 672 122 658 l 129 692 q 142 714 132 706 q 167 722 153 722 l 633 722 q 653 714 647 722 q 657 692 660 706 l 653 668 q 639 642 651 654 l 100 81 l 525 81 q 545 72 539 81 q 549 50 551 64 l 544 31 q 532 8 542 17 q 508 0 522 0 l 0 0 m 408 826 q 386 830 394 826 q 368 846 378 833 l 267 971 q 260 988 260 981 q 267 1001 260 996 q 282 1007 274 1007 l 310 1007 q 333 997 324 1007 l 424 914 l 550 997 q 559 1003 551 999 q 576 1007 567 1007 l 624 1007 q 639 993 639 1007 q 626 972 639 983 l 471 846 q 446 830 456 833 q 422 826 436 826 l 408 826 z "},"ż":{"ha":675,"x_min":-26,"x_max":658,"o":"m 0 0 q -21 8 -14 0 q -25 31 -28 17 l -19 54 q -7 81 -17 69 l 533 642 l 150 642 q 129 650 136 642 q 125 672 122 658 l 129 692 q 142 714 132 706 q 167 722 153 722 l 633 722 q 653 714 647 722 q 657 692 660 706 l 653 668 q 639 642 651 654 l 100 81 l 525 81 q 545 72 539 81 q 549 50 551 64 l 544 31 q 532 8 542 17 q 508 0 522 0 l 0 0 m 399 857 q 378 865 385 857 q 374 888 371 874 l 389 954 q 401 977 392 968 q 425 986 411 986 l 492 986 q 513 977 506 986 q 518 954 521 968 l 503 888 q 490 865 500 874 q 465 857 479 857 l 399 857 z "},"ﬀ":{"ha":886,"x_min":75,"x_max":1008,"o":"m 903 722 q 923 714 917 722 q 926 692 929 706 l 922 672 q 910 650 921 658 q 886 642 900 642 l 703 642 l 572 31 q 560 8 569 17 q 536 0 550 0 l 513 0 q 492 8 499 0 q 488 31 485 17 l 618 642 l 311 642 l 181 31 q 168 8 178 17 q 144 0 158 0 l 121 0 q 100 8 107 0 q 96 31 93 17 l 226 642 l 103 642 q 82 650 89 642 q 78 672 75 658 l 82 692 q 95 714 85 706 q 119 722 106 722 l 243 722 l 260 801 q 344 965 281 901 q 510 1028 407 1028 l 590 1028 q 610 1019 604 1028 q 614 997 617 1011 l 610 978 q 597 956 607 964 q 572 947 586 947 l 510 947 q 399 909 439 947 q 343 794 360 871 l 328 722 l 635 722 l 651 801 q 735 965 672 901 q 901 1028 799 1028 l 982 1028 q 1002 1019 996 1028 q 1006 997 1008 1011 l 1001 978 q 988 956 999 964 q 964 947 978 947 l 901 947 q 791 909 831 947 q 735 794 751 871 l 719 722 l 903 722 z "},"ﬃ":{"ha":1076,"x_min":75,"x_max":1090,"o":"m 121 0 q 100 8 107 0 q 96 31 93 17 l 226 642 l 103 642 q 82 650 89 642 q 78 672 75 658 l 82 692 q 95 714 85 706 q 119 722 106 722 l 243 722 l 260 801 q 344 965 281 901 q 510 1028 407 1028 l 590 1028 q 610 1019 604 1028 q 614 997 617 1011 l 610 978 q 597 956 607 964 q 572 947 586 947 l 510 947 q 399 909 439 947 q 343 794 360 871 l 328 722 l 635 722 l 651 801 q 735 965 672 901 q 901 1028 799 1028 l 1064 1028 q 1084 1019 1078 1028 q 1088 997 1090 1011 l 1083 978 q 1070 956 1081 964 q 1046 947 1060 947 l 901 947 q 791 909 831 947 q 735 794 751 871 l 719 722 l 999 722 q 1019 714 1013 722 q 1022 692 1025 706 l 882 31 q 869 8 879 17 q 846 0 860 0 l 822 0 q 801 8 808 0 q 797 31 794 17 l 926 642 l 703 642 l 572 31 q 560 8 569 17 q 536 0 550 0 l 513 0 q 492 8 499 0 q 488 31 485 17 l 618 642 l 311 642 l 181 31 q 168 8 178 17 q 144 0 158 0 l 121 0 z "},"ﬄ":{"ha":1160,"x_min":75,"x_max":1172,"o":"m 121 0 q 100 8 107 0 q 96 31 93 17 l 226 642 l 103 642 q 82 650 89 642 q 78 672 75 658 l 82 692 q 95 714 85 706 q 119 722 106 722 l 243 722 l 260 801 q 344 965 281 901 q 510 1028 407 1028 l 590 1028 q 610 1019 604 1028 q 614 997 617 1011 l 610 978 q 597 956 607 964 q 572 947 586 947 l 510 947 q 399 909 439 947 q 343 794 360 871 l 328 722 l 635 722 l 651 801 q 735 965 672 901 q 901 1028 799 1028 l 982 1028 q 1002 1019 996 1028 q 1006 997 1008 1011 l 1001 978 q 988 956 999 964 q 964 947 978 947 l 901 947 q 791 909 831 947 q 735 794 751 871 l 719 722 l 1026 722 l 1085 997 q 1097 1019 1088 1011 q 1121 1028 1107 1028 l 1144 1028 q 1165 1019 1158 1028 q 1169 997 1172 1011 l 964 31 q 951 8 961 17 q 928 0 942 0 l 904 0 q 883 8 890 0 q 879 31 876 17 l 1008 642 l 703 642 l 572 31 q 560 8 569 17 q 536 0 550 0 l 513 0 q 492 8 499 0 q 488 31 485 17 l 618 642 l 311 642 l 181 31 q 168 8 178 17 q 144 0 158 0 l 121 0 z "},"ﬁ":{"ha":685,"x_min":75,"x_max":699,"o":"m 121 0 q 100 8 107 0 q 96 31 93 17 l 226 642 l 103 642 q 82 650 89 642 q 78 672 75 658 l 82 692 q 95 714 85 706 q 119 722 106 722 l 243 722 l 260 801 q 344 965 281 901 q 510 1028 407 1028 l 672 1028 q 692 1019 686 1028 q 696 997 699 1011 l 692 978 q 678 956 689 964 q 654 947 668 947 l 510 947 q 399 909 439 947 q 343 794 360 871 l 328 722 l 607 722 q 627 714 621 722 q 631 692 633 706 l 490 31 q 478 8 488 17 q 454 0 468 0 l 431 0 q 410 8 417 0 q 406 31 403 17 l 535 642 l 311 642 l 181 31 q 168 8 178 17 q 144 0 158 0 l 121 0 z "},"ﬂ":{"ha":768,"x_min":75,"x_max":781,"o":"m 121 0 q 100 8 107 0 q 96 31 93 17 l 226 642 l 103 642 q 82 650 89 642 q 78 672 75 658 l 82 692 q 95 714 85 706 q 119 722 106 722 l 243 722 l 260 801 q 344 965 281 901 q 510 1028 407 1028 l 590 1028 q 610 1019 604 1028 q 614 997 617 1011 l 610 978 q 597 956 607 964 q 572 947 586 947 l 510 947 q 399 909 439 947 q 343 794 360 871 l 328 722 l 635 722 l 693 997 q 706 1019 696 1011 q 729 1028 715 1028 l 753 1028 q 774 1019 767 1028 q 778 997 781 1011 l 572 31 q 560 8 569 17 q 536 0 550 0 l 513 0 q 492 8 499 0 q 488 31 485 17 l 617 642 l 311 642 l 181 31 q 168 8 178 17 q 144 0 158 0 l 121 0 z "},"ª":{"ha":506,"x_min":138,"x_max":499,"o":"m 260 596 q 171 623 204 596 q 138 690 138 650 q 188 785 138 747 q 326 836 239 824 l 413 849 q 417 867 417 857 q 365 899 417 899 q 317 894 335 899 q 282 881 299 889 q 251 871 265 871 l 228 871 q 201 894 197 871 q 226 931 206 911 q 281 965 246 950 q 365 979 317 979 q 465 949 431 979 q 499 868 499 919 q 494 831 499 850 l 451 633 q 440 611 450 619 q 415 603 429 603 l 392 603 q 371 611 378 603 q 367 633 364 619 l 369 643 q 324 609 353 622 q 260 596 296 596 m 260 671 q 351 701 314 671 q 397 776 389 732 l 326 767 q 249 740 274 758 q 224 697 224 722 q 233 678 224 686 q 260 671 242 671 z "},"º":{"ha":497,"x_min":149,"x_max":501,"o":"m 289 596 q 186 627 224 596 q 149 719 149 658 q 151 757 149 743 q 165 818 154 779 q 240 938 186 897 q 363 979 293 979 q 463 947 425 979 q 501 853 501 915 q 499 818 501 843 q 485 757 496 796 q 413 635 464 675 q 289 596 363 596 m 297 676 q 363 697 336 676 q 400 757 390 718 q 414 818 411 796 q 415 840 415 826 q 353 899 415 899 q 287 876 314 899 q 250 818 260 854 q 236 757 239 779 q 233 732 233 738 q 249 690 233 704 q 297 676 264 676 z "},"А":{"ha":907,"x_min":-50,"x_max":797,"o":"m -24 0 q -43 8 -36 0 q -50 26 -50 15 q -46 43 -50 35 l 497 944 q 543 972 514 972 l 601 972 q 636 944 632 972 l 796 43 q 797 31 797 39 q 790 8 797 17 q 771 0 782 0 l 742 0 q 710 29 715 0 l 668 243 l 178 243 l 42 21 q 7 0 29 0 l -24 0 m 228 326 l 654 326 l 557 874 l 228 326 z "},"Б":{"ha":878,"x_min":31,"x_max":871,"o":"m 58 0 q 38 8 44 0 q 33 31 31 17 l 228 940 q 240 963 229 954 q 264 972 250 972 l 842 972 q 863 964 856 972 q 868 940 871 956 l 863 919 q 849 897 860 906 q 825 889 839 889 l 304 889 l 232 553 l 542 553 q 724 499 664 553 q 785 354 785 446 q 776 283 785 321 q 717 151 763 217 q 596 43 671 86 q 425 0 521 0 l 58 0 m 428 83 q 600 142 528 83 q 690 288 672 201 q 696 336 696 310 q 650 439 696 401 q 513 476 604 476 l 217 476 l 132 83 l 428 83 z "},"В":{"ha":913,"x_min":49,"x_max":875,"o":"m 75 0 q 54 8 61 0 q 50 31 47 17 l 243 940 q 256 963 246 954 q 281 972 267 972 l 643 972 q 814 916 753 972 q 875 774 875 860 q 869 724 875 746 q 804 585 850 635 q 703 513 758 535 q 774 438 747 483 q 800 332 800 392 q 794 275 800 301 q 683 78 768 156 q 449 0 599 0 l 75 0 m 529 550 q 696 596 628 550 q 782 724 764 642 q 788 772 788 747 q 622 889 788 889 l 321 889 l 249 550 l 529 550 m 449 83 q 617 138 546 83 q 707 275 689 192 q 713 331 713 301 q 532 467 713 467 l 231 467 l 149 83 l 449 83 z "},"Г":{"ha":701,"x_min":31,"x_max":801,"o":"m 58 0 q 38 8 44 0 q 33 31 31 17 l 228 940 q 240 963 229 954 q 264 972 250 972 l 772 972 q 794 964 786 972 q 799 940 801 956 l 793 919 q 780 897 790 906 q 756 889 769 889 l 304 889 l 121 31 q 108 8 118 17 q 83 0 97 0 l 58 0 z "},"Ѓ":{"ha":701,"x_min":33,"x_max":799,"o":"m 58 0 q 38 8 44 0 q 33 31 31 17 l 228 940 q 240 963 229 954 q 264 972 250 972 l 772 972 q 794 964 786 972 q 799 940 801 956 l 793 919 q 780 897 790 906 q 756 889 769 889 l 304 889 l 121 31 q 108 8 118 17 q 83 0 97 0 l 58 0 m 508 1042 q 494 1047 499 1042 q 489 1058 489 1051 q 499 1079 489 1069 l 622 1197 q 648 1217 636 1211 q 679 1222 660 1222 l 743 1222 q 760 1217 754 1222 q 765 1203 765 1211 q 753 1179 765 1188 l 575 1056 q 553 1044 563 1047 q 529 1042 544 1042 l 508 1042 z "},"Ґ":{"ha":717,"x_min":46,"x_max":858,"o":"m 829 1167 q 851 1158 843 1167 q 856 1136 858 1150 l 808 919 q 795 897 806 906 q 771 889 785 889 l 319 889 l 136 31 q 123 8 133 17 q 99 0 113 0 l 74 0 q 53 8 60 0 q 49 31 46 17 l 243 940 q 256 963 246 954 q 281 972 267 972 l 733 972 l 768 1136 q 780 1158 769 1150 q 804 1167 790 1167 l 829 1167 z "},"Д":{"ha":947,"x_min":-92,"x_max":908,"o":"m -65 -193 q -85 -185 -79 -193 q -89 -162 -92 -176 l -44 53 q -31 75 -42 67 q -7 83 -21 83 l 25 83 q 285 635 167 83 l 349 942 q 362 964 351 956 q 386 972 372 972 l 881 972 q 901 964 894 972 q 906 940 908 956 l 724 83 l 793 83 q 814 75 807 83 q 818 53 821 67 l 774 -162 q 760 -185 771 -176 q 735 -193 749 -193 l 710 -193 q 690 -185 696 -193 q 686 -162 683 -176 l 719 0 l 32 0 l -1 -162 q -15 -185 -4 -176 q -40 -193 -26 -193 l -65 -193 m 636 83 l 807 889 l 425 889 l 369 624 q 270 276 324 407 q 153 83 217 146 l 636 83 z "},"Е":{"ha":821,"x_min":47,"x_max":850,"o":"m 75 0 q 54 8 61 0 q 50 31 47 17 l 243 940 q 256 963 246 954 q 281 972 267 972 l 822 972 q 843 964 836 972 q 847 940 850 956 l 843 919 q 830 897 840 906 q 806 889 819 889 l 321 889 l 244 535 l 699 535 q 719 526 713 535 q 724 503 726 518 l 719 482 q 706 460 717 468 q 682 451 696 451 l 228 451 l 149 83 l 644 83 q 665 75 658 83 q 669 51 672 67 l 665 31 q 652 8 663 17 q 628 0 642 0 l 75 0 z "},"Ѐ":{"ha":821,"x_min":49,"x_max":849,"o":"m 75 0 q 54 8 61 0 q 50 31 47 17 l 243 940 q 256 963 246 954 q 281 972 267 972 l 822 972 q 843 964 836 972 q 847 940 850 956 l 843 919 q 830 897 840 906 q 806 889 819 889 l 321 889 l 244 535 l 699 535 q 719 526 713 535 q 724 503 726 518 l 719 482 q 706 460 717 468 q 682 451 696 451 l 228 451 l 149 83 l 644 83 q 665 75 658 83 q 669 51 672 67 l 665 31 q 652 8 663 17 q 628 0 642 0 l 75 0 m 539 1042 q 515 1044 524 1042 q 499 1056 507 1047 l 378 1175 q 371 1193 371 1182 q 380 1213 371 1204 q 403 1222 389 1222 l 467 1222 q 494 1217 486 1222 q 513 1197 501 1213 l 583 1082 q 586 1068 586 1074 q 578 1049 586 1057 q 560 1042 571 1042 l 539 1042 z "},"Ё":{"ha":821,"x_min":49,"x_max":849,"o":"m 75 0 q 54 8 61 0 q 50 31 47 17 l 243 940 q 256 963 246 954 q 281 972 267 972 l 822 972 q 843 964 836 972 q 847 940 850 956 l 843 919 q 830 897 840 906 q 806 889 819 889 l 321 889 l 244 535 l 699 535 q 719 526 713 535 q 724 503 726 518 l 719 482 q 706 460 717 468 q 682 451 696 451 l 228 451 l 149 83 l 644 83 q 665 75 658 83 q 669 51 672 67 l 665 31 q 652 8 663 17 q 628 0 642 0 l 75 0 m 440 1121 q 419 1129 426 1121 q 415 1151 413 1138 l 428 1204 q 440 1227 431 1218 q 464 1236 450 1236 l 517 1236 q 538 1227 531 1236 q 543 1204 546 1218 l 531 1151 q 517 1129 528 1138 q 493 1121 507 1121 l 440 1121 m 653 1121 q 632 1129 639 1121 q 628 1151 625 1138 l 640 1204 q 653 1227 643 1218 q 676 1236 663 1236 l 729 1236 q 751 1227 743 1236 q 756 1204 758 1218 l 743 1151 q 730 1129 740 1138 q 706 1121 719 1121 l 653 1121 z "},"Ж":{"ha":1410,"x_min":17,"x_max":1410,"o":"m 1385 972 q 1405 965 1400 972 q 1407 944 1410 957 q 1396 926 1406 939 l 1035 500 l 1251 49 q 1253 42 1253 47 q 1240 13 1253 25 q 1213 0 1228 0 l 1196 0 q 1167 18 1176 0 l 957 451 l 754 451 l 664 29 q 651 8 661 17 q 628 0 642 0 l 601 0 q 581 8 588 0 q 576 31 574 17 l 667 451 l 494 451 l 114 18 q 98 4 106 8 q 79 0 90 0 l 44 0 q 24 10 31 0 q 19 33 17 19 q 21 40 19 35 q 25 49 22 46 l 419 500 l 239 926 q 236 944 235 938 q 269 972 242 972 l 285 972 q 326 951 318 972 l 503 533 l 683 535 l 771 942 q 783 964 772 956 q 807 972 793 972 l 833 972 q 854 964 847 972 q 858 942 861 956 l 771 535 l 957 533 l 1304 951 q 1354 972 1324 972 l 1385 972 z "},"З":{"ha":811,"x_min":-1,"x_max":769,"o":"m 301 -14 q 80 44 161 -14 q -1 197 -1 103 q 0 224 -1 215 q 11 243 1 236 q 35 250 21 250 l 57 250 q 78 244 71 250 q 88 218 86 238 q 147 110 90 150 q 306 69 203 69 q 505 124 415 69 q 614 268 594 178 q 619 313 619 299 q 563 426 619 385 q 408 467 507 467 l 310 467 q 290 475 296 467 q 286 497 283 483 l 290 518 q 303 541 293 532 q 328 550 314 550 l 419 550 q 590 595 521 550 q 678 732 658 640 q 681 763 681 743 q 626 865 681 826 q 489 903 572 903 q 317 866 389 903 q 214 751 246 829 q 176 722 201 722 l 149 722 q 129 730 136 722 q 125 750 122 738 q 253 924 158 863 q 493 986 347 986 q 699 926 628 986 q 769 776 769 867 q 765 732 769 756 q 710 603 750 661 q 607 511 671 546 q 683 438 657 483 q 708 333 708 393 q 701 268 708 306 q 567 63 674 140 q 301 -14 460 -14 z "},"И":{"ha":1010,"x_min":47,"x_max":994,"o":"m 75 0 q 54 8 61 0 q 50 32 47 17 l 244 940 q 256 963 246 954 q 282 972 267 972 l 307 972 q 328 963 321 972 q 332 940 335 954 l 164 153 l 906 956 q 918 967 910 961 q 938 972 926 972 l 967 972 q 988 964 981 972 q 992 940 994 956 l 797 31 q 785 8 796 17 q 761 0 775 0 l 736 0 q 714 8 721 0 q 710 31 707 17 l 878 817 l 138 17 q 125 6 133 11 q 106 0 117 0 l 75 0 z "},"Й":{"ha":1010,"x_min":50,"x_max":992,"o":"m 75 0 q 54 8 61 0 q 50 32 47 17 l 244 940 q 256 963 246 954 q 282 972 267 972 l 307 972 q 328 963 321 972 q 332 940 335 954 l 164 153 l 906 956 q 918 967 910 961 q 938 972 926 972 l 967 972 q 988 964 981 972 q 992 940 994 956 l 797 31 q 785 8 796 17 q 761 0 775 0 l 736 0 q 714 8 721 0 q 710 31 707 17 l 878 817 l 138 17 q 125 6 133 11 q 106 0 117 0 l 75 0 m 628 1028 q 456 1147 456 1028 q 460 1189 456 1168 q 471 1208 463 1200 q 492 1215 479 1215 l 513 1215 q 531 1208 525 1215 q 533 1189 536 1200 q 531 1168 531 1175 q 642 1097 531 1097 q 747 1124 713 1097 q 789 1189 782 1150 q 800 1208 792 1200 q 821 1215 808 1215 l 842 1215 q 860 1208 854 1215 q 863 1189 865 1200 q 793 1074 847 1119 q 628 1028 739 1028 z "},"Ѝ":{"ha":1010,"x_min":50,"x_max":992,"o":"m 75 0 q 54 8 61 0 q 50 32 47 17 l 244 940 q 256 963 246 954 q 282 972 267 972 l 307 972 q 328 963 321 972 q 332 940 335 954 l 164 153 l 906 956 q 918 967 910 961 q 938 972 926 972 l 967 972 q 988 964 981 972 q 992 940 994 956 l 797 31 q 785 8 796 17 q 761 0 775 0 l 736 0 q 714 8 721 0 q 710 31 707 17 l 878 817 l 138 17 q 125 6 133 11 q 106 0 117 0 l 75 0 m 613 1042 q 589 1044 597 1042 q 572 1056 581 1047 l 451 1175 q 444 1193 444 1182 q 453 1213 444 1204 q 476 1222 463 1222 l 540 1222 q 567 1217 560 1222 q 586 1197 575 1213 l 657 1082 q 660 1068 660 1074 q 652 1049 660 1057 q 633 1042 644 1042 l 613 1042 z "},"К":{"ha":868,"x_min":46,"x_max":885,"o":"m 857 972 q 879 944 885 972 q 868 926 878 939 l 507 500 l 710 49 q 711 42 711 47 q 699 13 711 25 q 671 0 686 0 l 654 0 q 625 18 635 0 l 426 451 l 226 451 l 136 31 q 123 8 133 17 q 99 0 113 0 l 74 0 q 53 8 60 0 q 49 31 46 17 l 243 940 q 255 963 244 954 q 279 972 265 972 l 304 972 q 326 964 318 972 q 331 940 333 956 l 243 535 l 428 533 l 776 951 q 826 972 796 972 l 857 972 z "},"Ќ":{"ha":853,"x_min":49,"x_max":881,"o":"m 857 972 q 879 944 885 972 q 868 926 878 939 l 507 500 l 710 49 q 711 42 711 47 q 699 13 711 25 q 671 0 686 0 l 654 0 q 625 18 635 0 l 426 451 l 226 451 l 136 31 q 123 8 133 17 q 99 0 113 0 l 74 0 q 53 8 60 0 q 49 31 46 17 l 243 940 q 255 963 244 954 q 279 972 265 972 l 304 972 q 326 964 318 972 q 331 940 333 956 l 243 535 l 428 533 l 776 951 q 826 972 796 972 l 857 972 m 490 1042 q 476 1047 481 1042 q 471 1058 471 1051 q 481 1079 471 1069 l 604 1197 q 630 1217 618 1211 q 661 1222 642 1222 l 725 1222 q 742 1217 736 1222 q 747 1203 747 1211 q 735 1179 747 1188 l 557 1056 q 535 1044 544 1047 q 511 1042 526 1042 l 490 1042 z "}}}
